<svg width="230" height="47" viewBox="0 0 230 47" fill="none" xmlns="http://www.w3.org/2000/svg">
<path fill-rule="evenodd" clip-rule="evenodd" d="M12.8693 10.1939C13.3087 10.4007 13.7998 10.5558 14.2392 10.7884C16.9274 12.2359 18.349 14.5105 18.4782 17.5605C18.5299 18.4651 18.4782 19.3956 18.4782 20.3003C18.4782 20.8173 18.1422 21.1533 17.6252 21.1533C12.0422 21.1533 6.45911 21.1533 0.876039 21.1533C0.333241 21.1533 -0.002777 20.8173 0.0230705 20.2745C0.0230705 19.163 -0.0544721 18.0516 0.0747656 16.9401C0.384936 13.9935 1.93579 11.8999 4.59808 10.6333C4.7704 10.5472 4.94272 10.4696 5.11503 10.4007C5.29597 10.349 5.4769 10.2715 5.68368 10.2198C5.4769 9.98714 5.24427 9.78036 5.06334 9.54773C4.28791 8.64307 3.87435 7.58332 3.79681 6.39433C3.69342 4.86933 3.92605 3.44772 4.90825 2.20703C6.35572 0.397708 8.26843 -0.300175 10.543 0.216775C12.6884 0.682031 14.2909 2.43966 14.6269 4.61085C14.8854 6.29094 14.7045 7.89349 13.6447 9.28926C13.4121 9.62528 13.1278 9.9096 12.8693 10.1939ZM16.8498 19.5507C16.8498 18.6978 16.9015 17.8448 16.824 17.0177C16.5396 13.9677 13.9032 11.5638 10.8273 11.538C9.7762 11.5208 8.73369 11.5208 7.69979 11.538C5.01164 11.5638 2.60782 13.399 1.85825 15.9579C1.52223 17.1211 1.62562 18.31 1.62562 19.499C1.62562 19.5249 1.65146 19.5249 1.65146 19.5507C6.71758 19.5507 11.7837 19.5507 16.8498 19.5507ZM13.1019 5.7223C13.1019 5.61891 13.1019 5.52413 13.1019 5.43798C13.0761 3.62865 11.8095 2.0778 10.0778 1.71593C8.29428 1.32822 6.5108 2.20703 5.76122 3.86128C5.4252 4.53331 5.37351 5.28289 5.39936 6.03247C5.45105 8.74646 8.26843 10.5816 10.7756 9.47019C12.3782 8.77231 13.1019 7.45408 13.1019 5.7223Z" fill="#16A34A"/>
<path d="M13.1019 5.7223V5.43798C13.0761 3.62865 11.8095 2.0778 10.0778 1.71593C8.29428 1.32822 6.5108 2.20703 5.76122 3.86128C5.4252 4.53331 5.37351 5.28289 5.39936 6.03247C5.45105 8.74646 8.26843 10.5816 10.7756 9.47019C12.3782 8.77231 13.1019 7.45408 13.1019 5.7223Z" fill="#16A34A"/>
<path d="M16.8498 19.5507C16.8498 18.6978 16.9015 17.8448 16.824 17.0177C16.5396 13.9677 13.9032 11.5638 10.8273 11.538C9.7762 11.5208 8.73369 11.5208 7.69979 11.538C5.01164 11.5638 2.60782 13.399 1.85825 15.9579C1.52223 17.1211 1.62562 18.31 1.62562 19.499C1.62562 19.5249 1.65146 19.5249 1.65146 19.5507H16.8498Z" fill="#16A34A"/>
<path fill-rule="evenodd" clip-rule="evenodd" d="M36.3649 10.1939C36.8043 10.4007 37.2954 10.5558 37.7348 10.7884C40.423 12.2359 41.8446 14.5105 41.9738 17.5605C42.0255 18.4651 41.9997 19.3956 41.9997 20.3003C41.9738 20.8173 41.6636 21.1533 41.1208 21.1533C35.5378 21.1533 29.9547 21.1533 24.3716 21.1533C23.8547 21.1533 23.5187 20.8173 23.5187 20.2745C23.5187 19.163 23.4411 18.0516 23.5704 16.9401C23.8805 13.9935 25.4314 11.8999 28.0937 10.6333C28.266 10.5472 28.4383 10.4696 28.6106 10.4007C28.7916 10.349 28.9725 10.2715 29.1793 10.2198C28.9725 9.98714 28.7399 9.78036 28.5589 9.54773C27.8094 8.64307 27.3958 7.58332 27.2924 6.39433C27.189 4.86933 27.4217 3.44772 28.4039 2.20703C29.8513 0.397708 31.764 -0.300175 34.0386 0.216775C36.184 0.682031 37.7865 2.43966 38.1225 4.61085C38.381 6.29094 38.2001 7.89349 37.1403 9.28926C36.9077 9.62528 36.6234 9.9096 36.3649 10.1939ZM40.3454 19.5507C40.3454 18.6978 40.3971 17.8448 40.3196 17.0177C40.0352 13.9677 37.3988 11.5638 34.3229 11.538C33.289 11.5208 32.2465 11.5208 31.1954 11.538C28.5072 11.5638 26.1034 13.399 25.3539 15.9579C25.0178 17.1211 25.1471 18.31 25.1212 19.499C25.1212 19.5249 25.1471 19.5249 25.1471 19.5507C30.2132 19.5507 35.2793 19.5507 40.3454 19.5507ZM36.5975 5.7223C36.5975 5.61891 36.5975 5.52413 36.5975 5.43798C36.5717 3.62865 35.3052 2.0778 33.5734 1.71593C31.8157 1.32822 30.0064 2.20703 29.2568 3.86128C28.9208 4.53331 28.8691 5.28289 28.895 6.03247C28.9467 8.74646 31.764 10.5816 34.2712 9.47019C35.8738 8.77231 36.5975 7.45408 36.5975 5.7223Z" fill="#808285"/>
<path fill-rule="evenodd" clip-rule="evenodd" d="M59.8601 10.1939C60.2995 10.4007 60.7906 10.5558 61.23 10.7884C63.9182 12.2359 65.3398 14.5105 65.469 17.5605C65.5207 18.4651 65.4949 19.3956 65.4949 20.3003C65.4949 20.8173 65.1589 21.1533 64.6161 21.1533C59.033 21.1533 53.4499 21.1533 47.8669 21.1533C47.3499 21.1533 47.0139 20.8173 47.0139 20.2745C47.0139 19.163 46.9622 18.0516 47.0656 16.9401C47.3758 13.9935 48.9266 11.8999 51.5889 10.6333C51.7612 10.5472 51.9422 10.4696 52.1317 10.4007C52.3126 10.349 52.4936 10.2715 52.6745 10.2198C52.4677 9.98714 52.2609 9.78036 52.0542 9.54773C51.3046 8.64307 50.891 7.58332 50.8135 6.39433C50.7101 4.86933 50.9169 3.44772 51.8991 2.20703C53.3465 0.397708 55.2593 -0.300175 57.5338 0.216775C59.6792 0.682031 61.3076 2.43966 61.6178 4.61085C61.8762 6.29094 61.6953 7.89349 60.6355 9.28926C60.4029 9.62528 60.1186 9.9096 59.8601 10.1939ZM63.8406 19.5507C63.8406 18.6978 63.9182 17.8448 63.8406 17.0177C63.5305 13.9677 60.9199 11.5638 57.8182 11.538C56.7843 11.5208 55.7417 11.5208 54.6906 11.538C52.0025 11.5638 49.5987 13.399 48.8491 15.9579C48.5131 17.1211 48.6423 18.31 48.6164 19.499C48.6164 19.5249 48.6423 19.5249 48.6681 19.5507C53.717 19.5507 58.7745 19.5507 63.8406 19.5507ZM60.0927 5.7223C60.0927 5.61891 60.0927 5.52413 60.0927 5.43798C60.0669 3.62865 58.8004 2.0778 57.0686 1.71593C55.311 1.32822 53.5275 2.20703 52.7521 3.86128C52.416 4.53331 52.3643 5.28289 52.3902 6.03247C52.4419 8.74646 55.2851 10.5816 57.7665 9.47019C59.369 8.77231 60.0927 7.45408 60.0927 5.7223Z" fill="#808285"/>
<path d="M63.8407 19.551C58.7746 19.551 53.7171 19.551 48.6682 19.551C48.6424 19.5252 48.6165 19.5252 48.6165 19.4994C48.6424 18.3104 48.5131 17.1214 48.8492 15.9582C49.5987 13.3993 52.0026 11.5642 54.6907 11.5383C55.7418 11.5211 56.7843 11.5211 57.8182 11.5383C60.9199 11.5642 63.5305 13.968 63.8407 17.018C63.9183 17.8451 63.8407 18.6981 63.8407 19.551Z" fill="white"/>
<path d="M60.0926 5.72223C60.0926 7.45401 59.3688 8.77223 57.7663 9.47012C55.2849 10.5816 52.4417 8.74639 52.39 6.0324C52.3642 5.28282 52.4159 4.53324 52.7519 3.8612C53.5273 2.20696 55.3108 1.32815 57.0684 1.71586C58.8002 2.07773 60.0667 3.62858 60.0926 5.4379C60.0926 5.52406 60.0926 5.61884 60.0926 5.72223Z" fill="white"/>
<path fill-rule="evenodd" clip-rule="evenodd" d="M83.3557 10.1939C83.821 10.4007 84.2862 10.5558 84.7256 10.7884C87.4138 12.2359 88.8354 14.5105 88.9905 17.5605C89.0163 18.4651 88.9905 19.3956 88.9905 20.3003C88.9905 20.8173 88.6545 21.1533 88.1117 21.1533C82.5286 21.1533 76.9455 21.1533 71.3625 21.1533C70.8455 21.1533 70.5095 20.8173 70.5095 20.2745C70.5095 19.163 70.4578 18.0516 70.5612 16.9401C70.8714 13.9935 72.4222 11.8999 75.0845 10.6333C75.2568 10.5472 75.4378 10.4696 75.6273 10.4007C75.8082 10.349 75.9892 10.2715 76.1701 10.2198C75.9633 9.98714 75.7566 9.78036 75.5498 9.54773C74.8002 8.64307 74.3866 7.58332 74.3091 6.39433C74.2057 4.86933 74.4125 3.44772 75.3947 2.20703C76.868 0.397708 78.7549 -0.300175 81.0295 0.216775C83.1748 0.682031 84.8032 2.43966 85.1134 4.61085C85.3718 6.29094 85.1909 7.89349 84.1312 9.28926C83.8985 9.62528 83.6142 9.9096 83.3557 10.1939ZM87.3362 19.5507C87.3362 18.6978 87.4138 17.8448 87.3362 17.0177C87.0519 13.9677 84.4155 11.5638 81.3396 11.538C80.2885 11.5208 79.2374 11.5208 78.1862 11.538C75.4981 11.5638 73.1201 13.399 72.3705 15.9579C72.0345 17.1211 72.1379 18.31 72.1121 19.499C72.1121 19.5249 72.1379 19.5249 72.1637 19.5507C77.2126 19.5507 82.2701 19.5507 87.3362 19.5507ZM83.5884 5.7223C83.6056 5.61891 83.6056 5.52413 83.5884 5.43798C83.5625 3.62865 82.3218 2.0778 80.59 1.71593C78.8066 1.32822 77.0231 2.20703 76.2477 3.86128C75.9116 4.53331 75.8858 5.28289 75.8858 6.03247C75.9375 8.74646 78.7807 10.5816 81.2621 9.47019C82.8905 8.77231 83.5884 7.45408 83.5884 5.7223Z" fill="#808285"/>
<path d="M87.336 19.551C82.2699 19.551 77.2124 19.551 72.1635 19.551C72.1377 19.5252 72.1118 19.5252 72.1118 19.4994C72.1377 18.3104 72.0343 17.1214 72.3703 15.9582C73.1199 13.3993 75.4978 11.5642 78.186 11.5383C79.2371 11.5211 80.2882 11.5211 81.3394 11.5383C84.4152 11.5642 87.0517 13.968 87.336 17.018C87.4136 17.8451 87.336 18.6981 87.336 19.551Z" fill="white"/>
<path d="M83.5878 5.72223C83.5878 7.45401 82.8899 8.77223 81.2615 9.47012C78.7802 10.5816 75.9369 8.74639 75.8853 6.0324C75.8853 5.28282 75.9111 4.53324 76.2471 3.8612C77.0226 2.20696 78.806 1.32815 80.5895 1.71586C82.3213 2.07773 83.562 3.62858 83.5878 5.4379C83.6051 5.52406 83.6051 5.61884 83.5878 5.72223Z" fill="white"/>
<path fill-rule="evenodd" clip-rule="evenodd" d="M106.851 10.1939C107.316 10.4007 107.781 10.5558 108.221 10.7884C110.935 12.2359 112.356 14.5105 112.485 17.5605C112.511 18.4651 112.485 19.3956 112.485 20.3003C112.485 20.8173 112.149 21.1533 111.607 21.1533C106.024 21.1533 100.449 21.1533 94.8832 21.1533C94.3404 21.1533 94.0044 20.8173 94.0044 20.2745C94.0303 19.163 93.9527 18.0516 94.0561 16.9401C94.3921 13.9935 95.943 11.8999 98.5794 10.6333C98.7517 10.5472 98.9327 10.4696 99.1222 10.4007C99.3032 10.349 99.4841 10.2715 99.6909 10.2198C99.4582 9.98714 99.2515 9.78036 99.0705 9.54773C98.2951 8.64307 97.8815 7.58332 97.804 6.39433C97.7006 4.86933 97.9332 3.44772 98.8896 2.20703C100.363 0.397708 102.25 -0.300175 104.55 0.216775C106.67 0.682031 108.298 2.43966 108.634 4.61085C108.893 6.29094 108.686 7.89349 107.652 9.28926C107.393 9.62528 107.109 9.9096 106.851 10.1939ZM110.831 19.5507C110.831 18.6978 110.909 17.8448 110.831 17.0177C110.547 13.9677 107.91 11.5638 104.835 11.538C103.783 11.5208 102.732 11.5208 101.681 11.538C98.993 11.5638 96.615 13.399 95.8654 15.9579C95.5294 17.1211 95.6328 18.31 95.6328 19.499C95.6328 19.5249 95.6328 19.5249 95.6586 19.5507C100.725 19.5507 105.782 19.5507 110.831 19.5507ZM107.109 5.7223C107.109 5.61891 107.109 5.52413 107.109 5.43798C107.083 3.62865 105.817 2.0778 104.085 1.71593C102.301 1.32822 100.518 2.20703 99.7426 3.86128C99.4324 4.53331 99.3807 5.28289 99.3807 6.03247C99.4324 8.74646 102.276 10.5816 104.757 9.47019C106.385 8.77231 107.109 7.45408 107.109 5.7223Z" fill="#808285"/>
<path d="M110.832 19.551C105.783 19.551 100.725 19.551 95.659 19.551C95.6332 19.5252 95.6332 19.5252 95.6332 19.4994C95.6332 18.3104 95.5298 17.1214 95.8658 15.9582C96.6154 13.3993 98.9933 11.5642 101.681 11.5383C102.733 11.5211 103.784 11.5211 104.835 11.5383C107.911 11.5642 110.547 13.968 110.832 17.018C110.909 17.8451 110.832 18.6981 110.832 19.551Z" fill="white"/>
<path d="M107.109 5.72223C107.109 7.45401 106.386 8.77223 104.757 9.47012C102.276 10.5816 99.4326 8.74639 99.3809 6.0324C99.3809 5.28282 99.4326 4.53324 99.7427 3.8612C100.518 2.20696 102.302 1.32815 104.085 1.71586C105.817 2.07773 107.083 3.62858 107.109 5.4379C107.109 5.52406 107.109 5.61884 107.109 5.72223Z" fill="white"/>
<path fill-rule="evenodd" clip-rule="evenodd" d="M130.346 10.1939C130.811 10.4007 131.277 10.5558 131.716 10.7884C134.43 12.2359 135.852 14.5105 135.981 17.5605C136.033 18.4651 135.981 19.3956 135.981 20.3003C135.981 20.8173 135.645 21.1533 135.128 21.1533C129.545 21.1533 123.962 21.1533 118.379 21.1533C117.836 21.1533 117.5 20.8173 117.5 20.2745C117.526 19.163 117.448 18.0516 117.578 16.9401C117.888 13.9935 119.439 11.8999 122.101 10.6333C122.273 10.5472 122.445 10.4696 122.618 10.4007C122.799 10.349 122.98 10.2715 123.186 10.2198C122.954 9.98714 122.747 9.78036 122.566 9.54773C121.791 8.64307 121.377 7.58332 121.3 6.39433C121.196 4.86933 121.429 3.44772 122.411 2.20703C123.858 0.397708 125.771 -0.300175 128.046 0.216775C130.165 0.682031 131.794 2.43966 132.13 4.61085C132.388 6.29094 132.207 7.89349 131.147 9.28926C130.915 9.62528 130.631 9.9096 130.346 10.1939ZM134.327 19.5507C134.327 18.6978 134.404 17.8448 134.327 17.0177C134.042 13.9677 131.406 11.5638 128.33 11.538C127.279 11.5208 126.236 11.5208 125.203 11.538C122.514 11.5638 120.111 13.399 119.361 15.9579C119.025 17.1211 119.128 18.31 119.128 19.499C119.128 19.5249 119.154 19.5249 119.154 19.5507C124.22 19.5507 129.278 19.5507 134.327 19.5507ZM130.605 5.7223C130.605 5.61891 130.605 5.52413 130.605 5.43798C130.579 3.62865 129.312 2.0778 127.581 1.71593C125.797 1.32822 124.014 2.20703 123.238 3.86128C122.928 4.53331 122.876 5.28289 122.902 6.03247C122.954 8.74646 125.771 10.5816 128.278 9.47019C129.881 8.77231 130.605 7.45408 130.605 5.7223Z" fill="#808285"/>
<path d="M134.327 19.551C129.278 19.551 124.22 19.551 119.154 19.551C119.154 19.5252 119.128 19.5252 119.128 19.4994C119.128 18.3104 119.025 17.1214 119.361 15.9582C120.11 13.3993 122.514 11.5642 125.202 11.5383C126.236 11.5211 127.279 11.5211 128.33 11.5383C131.406 11.5642 134.042 13.968 134.327 17.018C134.404 17.8451 134.327 18.6981 134.327 19.551Z" fill="white"/>
<path d="M130.605 5.72223C130.605 7.45401 129.881 8.77223 128.279 9.47012C125.771 10.5816 122.954 8.74639 122.902 6.0324C122.876 5.28282 122.928 4.53324 123.238 3.8612C124.014 2.20696 125.797 1.32815 127.581 1.71586C129.312 2.07773 130.579 3.62858 130.605 5.4379C130.605 5.52406 130.605 5.61884 130.605 5.72223Z" fill="white"/>
<path fill-rule="evenodd" clip-rule="evenodd" d="M153.867 10.1939C154.307 10.4007 154.798 10.5558 155.237 10.7884C157.925 12.2359 159.347 14.5105 159.476 17.5605C159.528 18.4651 159.502 19.3956 159.476 20.3003C159.476 20.8173 159.14 21.1533 158.623 21.1533C153.04 21.1533 147.457 21.1533 141.874 21.1533C141.331 21.1533 140.995 20.8173 141.021 20.2745C141.021 19.163 140.944 18.0516 141.073 16.9401C141.383 13.9935 142.934 11.8999 145.596 10.6333C145.768 10.5472 145.941 10.4696 146.113 10.4007C146.294 10.349 146.475 10.2715 146.682 10.2198C146.475 9.98714 146.242 9.78036 146.061 9.54773C145.286 8.64307 144.898 7.58332 144.795 6.39433C144.691 4.86933 144.924 3.44772 145.906 2.20703C147.354 0.397708 149.266 -0.300175 151.541 0.216775C153.686 0.682031 155.289 2.43966 155.625 4.61085C155.883 6.29094 155.703 7.89349 154.643 9.28926C154.41 9.62528 154.126 9.9096 153.867 10.1939ZM157.848 19.5507C157.848 18.6978 157.9 17.8448 157.822 17.0177C157.538 13.9677 154.901 11.5638 151.825 11.538C150.774 11.5208 149.732 11.5208 148.698 11.538C146.01 11.5638 143.606 13.399 142.856 15.9579C142.52 17.1211 142.624 18.31 142.624 19.499C142.624 19.5249 142.65 19.5249 142.65 19.5507C147.716 19.5507 152.782 19.5507 157.848 19.5507ZM154.1 5.7223C154.1 5.61891 154.1 5.52413 154.1 5.43798C154.074 3.62865 152.808 2.0778 151.076 1.71593C149.292 1.32822 147.509 2.20703 146.759 3.86128C146.423 4.53331 146.372 5.28289 146.397 6.03247C146.449 8.74646 149.266 10.5816 151.774 9.47019C153.376 8.77231 154.1 7.45408 154.1 5.7223Z" fill="#808285"/>
<path d="M157.848 19.551C152.782 19.551 147.716 19.551 142.65 19.551C142.65 19.5252 142.624 19.5252 142.624 19.4994C142.624 18.3104 142.521 17.1214 142.857 15.9582C143.606 13.3993 146.01 11.5642 148.698 11.5383C149.732 11.5211 150.774 11.5211 151.826 11.5383C154.901 11.5642 157.538 13.968 157.822 17.018C157.9 17.8451 157.848 18.6981 157.848 19.551Z" fill="white"/>
<path d="M154.1 5.72223C154.1 7.45401 153.376 8.77223 151.774 9.47012C149.266 10.5816 146.449 8.74639 146.397 6.0324C146.371 5.28282 146.423 4.53324 146.759 3.8612C147.509 2.20696 149.292 1.32815 151.076 1.71586C152.808 2.07773 154.074 3.62858 154.1 5.4379C154.1 5.52406 154.1 5.61884 154.1 5.72223Z" fill="white"/>
<path fill-rule="evenodd" clip-rule="evenodd" d="M177.363 10.1939C177.802 10.4007 178.293 10.5558 178.733 10.7884C181.421 12.2359 182.843 14.5105 182.972 17.5605C183.024 18.4651 182.998 19.3956 182.998 20.3003C182.998 20.8173 182.662 21.1533 182.119 21.1533C176.536 21.1533 170.953 21.1533 165.37 21.1533C164.853 21.1533 164.517 20.8173 164.517 20.2745C164.517 19.163 164.439 18.0516 164.568 16.9401C164.879 13.9935 166.429 11.8999 169.092 10.6333C169.264 10.5472 169.445 10.4696 169.635 10.4007C169.79 10.349 169.996 10.2715 170.177 10.2198C169.971 9.98714 169.738 9.78036 169.557 9.54773C168.807 8.64307 168.394 7.58332 168.316 6.39433C168.187 4.86933 168.42 3.44772 169.402 2.20703C170.849 0.397708 172.762 -0.300175 175.037 0.216775C177.182 0.682031 178.785 2.43966 179.121 4.61085C179.379 6.29094 179.198 7.89349 178.138 9.28926C177.906 9.62528 177.621 9.9096 177.363 10.1939ZM181.343 19.5507C181.343 18.6978 181.395 17.8448 181.318 17.0177C181.033 13.9677 178.397 11.5638 175.321 11.538C174.287 11.5208 173.245 11.5208 172.193 11.538C169.505 11.5638 167.101 13.399 166.352 15.9579C166.016 17.1211 166.145 18.31 166.119 19.499C166.119 19.5249 166.145 19.5249 166.171 19.5507C171.22 19.5507 176.277 19.5507 181.343 19.5507ZM177.596 5.7223C177.596 5.61891 177.596 5.52413 177.596 5.43798C177.57 3.62865 176.303 2.0778 174.571 1.71593C172.814 1.32822 171.004 2.20703 170.255 3.86128C169.919 4.53331 169.867 5.28289 169.893 6.03247C169.945 8.74646 172.762 10.5816 175.269 9.47019C176.872 8.77231 177.596 7.45408 177.596 5.7223Z" fill="#808285"/>
<path d="M181.344 19.551C176.278 19.551 171.22 19.551 166.171 19.551C166.145 19.5252 166.119 19.5252 166.119 19.4994C166.145 18.3104 166.016 17.1214 166.352 15.9582C167.102 13.3993 169.505 11.5642 172.194 11.5383C173.245 11.5211 174.287 11.5211 175.321 11.5383C178.397 11.5642 181.033 13.968 181.318 17.018C181.395 17.8451 181.344 18.6981 181.344 19.551Z" fill="white"/>
<path d="M177.595 5.72223C177.595 7.45401 176.872 8.77223 175.269 9.47012C172.762 10.5816 169.945 8.74639 169.893 6.0324C169.867 5.28282 169.919 4.53324 170.255 3.8612C171.004 2.20696 172.814 1.32815 174.571 1.71586C176.303 2.07773 177.57 3.62858 177.595 5.4379C177.595 5.52406 177.595 5.61884 177.595 5.72223Z" fill="white"/>
<path fill-rule="evenodd" clip-rule="evenodd" d="M200.858 10.1939C201.298 10.4007 201.789 10.5558 202.228 10.7884C204.916 12.2359 206.338 14.5105 206.467 17.5605C206.519 18.4651 206.493 19.3956 206.493 20.3003C206.493 20.8173 206.157 21.1533 205.614 21.1533C200.031 21.1533 194.448 21.1533 188.865 21.1533C188.348 21.1533 188.012 20.8173 188.012 20.2745C188.012 19.163 187.96 18.0516 188.064 16.9401C188.374 13.9935 189.925 11.8999 192.587 10.6333C192.759 10.5472 192.94 10.4696 193.13 10.4007C193.311 10.349 193.492 10.2715 193.673 10.2198C193.466 9.98714 193.259 9.78036 193.052 9.54773C192.303 8.64307 191.889 7.58332 191.812 6.39433C191.708 4.86933 191.915 3.44772 192.897 2.20703C194.37 0.397708 196.257 -0.300175 198.532 0.216775C200.677 0.682031 202.306 2.43966 202.616 4.61085C202.874 6.29094 202.693 7.89349 201.634 9.28926C201.401 9.62528 201.117 9.9096 200.858 10.1939ZM204.839 19.5507C204.839 18.6978 204.916 17.8448 204.839 17.0177C204.529 13.9677 201.918 11.5638 198.842 11.538C197.791 11.5208 196.74 11.5208 195.689 11.538C193.001 11.5638 190.597 13.399 189.873 15.9579C189.511 17.1211 189.64 18.31 189.614 19.499C189.614 19.5249 189.64 19.5249 189.666 19.5507C194.715 19.5507 199.773 19.5507 204.839 19.5507ZM201.091 5.7223C201.091 5.61891 201.091 5.52413 201.091 5.43798C201.065 3.62865 199.798 2.0778 198.067 1.71593C196.309 1.32822 194.526 2.20703 193.75 3.86128C193.414 4.53331 193.388 5.28289 193.388 6.03247C193.44 8.74646 196.283 10.5816 198.765 9.47019C200.367 8.77231 201.091 7.45408 201.091 5.7223Z" fill="#808285"/>
<path d="M204.839 19.551C199.773 19.551 194.715 19.551 189.666 19.551C189.64 19.5252 189.615 19.5252 189.615 19.4994C189.64 18.3104 189.511 17.1214 189.873 15.9582C190.597 13.3993 193.001 11.5642 195.689 11.5383C196.74 11.5211 197.791 11.5211 198.842 11.5383C201.918 11.5642 204.529 13.968 204.839 17.018C204.916 17.8451 204.839 18.6981 204.839 19.551Z" fill="white"/>
<path d="M201.091 5.72223C201.091 7.45401 200.367 8.77223 198.764 9.47012C196.283 10.5816 193.44 8.74639 193.388 6.0324C193.388 5.28282 193.414 4.53324 193.75 3.8612C194.525 2.20696 196.309 1.32815 198.067 1.71586C199.798 2.07773 201.065 3.62858 201.091 5.4379C201.091 5.52406 201.091 5.61884 201.091 5.72223Z" fill="white"/>
<path fill-rule="evenodd" clip-rule="evenodd" d="M224.354 10.1939C224.819 10.4007 225.284 10.5558 225.724 10.7884C228.412 12.2359 229.859 14.5105 229.989 17.5605C230.014 18.4651 229.989 19.3956 229.989 20.3003C229.989 20.8173 229.653 21.1533 229.11 21.1533C223.527 21.1533 217.944 21.1533 212.361 21.1533C211.844 21.1533 211.508 20.8173 211.508 20.2745C211.508 19.163 211.456 18.0516 211.559 16.9401C211.895 13.9935 213.446 11.8999 216.083 10.6333C216.255 10.5472 216.436 10.4696 216.625 10.4007C216.806 10.349 216.987 10.2715 217.168 10.2198C216.961 9.98714 216.755 9.78036 216.548 9.54773C215.798 8.64307 215.385 7.58332 215.307 6.39433C215.204 4.86933 215.411 3.44772 216.393 2.20703C217.866 0.397708 219.753 -0.300175 222.053 0.216775C224.173 0.682031 225.801 2.43966 226.137 4.61085C226.37 6.29094 226.189 7.89349 225.129 9.28926C224.897 9.62528 224.612 9.9096 224.354 10.1939ZM228.334 19.5507C228.334 18.6978 228.412 17.8448 228.334 17.0177C228.05 13.9677 225.414 11.5638 222.338 11.538C221.287 11.5208 220.235 11.5208 219.184 11.538C216.496 11.5638 214.118 13.399 213.369 15.9579C213.033 17.1211 213.136 18.31 213.136 19.499C213.136 19.5249 213.136 19.5249 213.162 19.5507C218.211 19.5507 223.268 19.5507 228.334 19.5507ZM224.612 5.7223C224.612 5.61891 224.612 5.52413 224.612 5.43798C224.561 3.62865 223.32 2.0778 221.588 1.71593C219.805 1.32822 218.021 2.20703 217.246 3.86128C216.936 4.53331 216.884 5.28289 216.884 6.03247C216.936 8.74646 219.779 10.5816 222.26 9.47019C223.889 8.77231 224.586 7.45408 224.612 5.7223Z" fill="#808285"/>
<path d="M228.334 19.551C223.268 19.551 218.211 19.551 213.162 19.551C213.136 19.5252 213.136 19.5252 213.136 19.4994C213.136 18.3104 213.033 17.1214 213.369 15.9582C214.118 13.3993 216.496 11.5642 219.184 11.5383C220.236 11.5211 221.287 11.5211 222.338 11.5383C225.414 11.5642 228.05 13.968 228.334 17.018C228.412 17.8451 228.334 18.6981 228.334 19.551Z" fill="white"/>
<path d="M224.612 5.72223C224.586 7.45401 223.888 8.77223 222.26 9.47012C219.779 10.5816 216.935 8.74639 216.884 6.0324C216.884 5.28282 216.935 4.53324 217.246 3.8612C218.021 2.20696 219.805 1.32815 221.588 1.71586C223.32 2.07773 224.561 3.62858 224.612 5.4379C224.612 5.52406 224.612 5.61884 224.612 5.72223Z" fill="white"/>
<path fill-rule="evenodd" clip-rule="evenodd" d="M12.8693 36.0414C13.3087 36.2224 13.7998 36.3775 14.2392 36.6101C16.9274 38.0834 18.349 40.3321 18.4782 43.408C18.5299 44.3127 18.4782 45.2173 18.4782 46.122C18.4782 46.6648 18.1422 46.9749 17.6252 46.9749C12.0422 46.9749 6.45911 46.9749 0.876039 46.9749C0.333241 46.9749 -0.00277701 46.6389 0.0230705 46.122C0.0230705 45.0105 -0.0544721 43.8732 0.0747656 42.7618C0.384936 39.841 1.93579 37.7474 4.59808 36.455C4.7704 36.3688 4.94272 36.2999 5.11503 36.2482C5.29597 36.1707 5.4769 36.119 5.68368 36.0414C5.4769 35.8347 5.24427 35.6279 5.06334 35.3953C4.28791 34.4647 3.87435 33.4308 3.79681 32.2419C3.69342 30.7169 3.92605 29.2694 4.90825 28.0546C6.35572 26.2194 8.26843 25.5473 10.543 26.0385C12.6884 26.5296 14.2909 28.2872 14.6269 30.4325C14.8854 32.1126 14.7045 33.7152 13.6447 35.1368C13.4121 35.4469 13.1278 35.7313 12.8693 36.0414ZM16.8498 45.3724C16.8498 44.5194 16.9015 43.6923 16.824 42.8652C16.5396 39.7893 13.9032 37.4114 10.8273 37.3597C9.7762 37.3597 8.73369 37.3597 7.69979 37.3597C5.01164 37.3855 2.60782 39.2207 1.85825 41.8054C1.52223 42.9686 1.62562 44.1576 1.62562 45.3466L1.65146 45.3724C6.71758 45.3724 11.7837 45.3724 16.8498 45.3724ZM13.1019 31.5698C13.1019 31.4664 13.1019 31.363 13.1019 31.2597C13.0761 29.4762 11.8095 27.9253 10.0778 27.5635C8.29428 27.1757 6.5108 28.0546 5.76122 29.683C5.4252 30.3808 5.37351 31.1046 5.39936 31.8541C5.45105 34.594 8.26843 36.4292 10.7756 35.3177C12.3782 34.594 13.1019 33.3016 13.1019 31.5698Z" fill="#808285"/>
<path d="M16.8495 45.3721C11.7834 45.3721 6.71732 45.3721 1.6512 45.3721L1.62536 45.3463C1.62536 44.1573 1.52197 42.9683 1.85798 41.8051C2.60756 39.2204 5.01138 37.3852 7.69952 37.3594C8.73343 37.3594 9.77594 37.3594 10.8271 37.3594C13.9029 37.4111 16.5394 39.789 16.8237 42.8649C16.9012 43.692 16.8495 44.5191 16.8495 45.3721Z" fill="white"/>
<path d="M13.1018 31.57C13.1018 33.3018 12.3781 34.5941 10.7756 35.3179C8.26836 36.4293 5.45098 34.5941 5.39928 31.8543C5.37344 31.1047 5.42513 30.381 5.76115 29.6831C6.51073 28.0547 8.29421 27.1759 10.0777 27.5636C11.8095 27.9255 13.076 29.4763 13.1018 31.2598C13.1018 31.3632 13.1018 31.4666 13.1018 31.57Z" fill="white"/>
<path fill-rule="evenodd" clip-rule="evenodd" d="M36.3649 36.0413C36.8043 36.2223 37.2954 36.3773 37.7348 36.61C40.423 38.0833 41.8446 40.332 41.9738 43.4079C42.0255 44.3125 41.9997 45.2172 41.9997 46.1219C41.9738 46.6647 41.6636 46.9748 41.1208 46.9748C35.5378 46.9748 29.9547 46.9748 24.3716 46.9748C23.8547 46.9748 23.5187 46.6388 23.5187 46.1219C23.5187 45.0104 23.4411 43.8731 23.5704 42.7617C23.8805 39.8409 25.4314 37.7473 28.0937 36.4549C28.266 36.3687 28.4383 36.2998 28.6106 36.2481C28.7916 36.1706 28.9725 36.1189 29.1793 36.0413C28.9725 35.8345 28.7399 35.6278 28.5589 35.3951C27.8094 34.4646 27.3958 33.4307 27.2924 32.2417C27.189 30.7167 27.4217 29.2693 28.4039 28.0544C29.8513 26.2193 31.764 25.5472 34.0386 26.0383C36.184 26.5294 37.7865 28.2871 38.1225 30.4324C38.381 32.1125 38.2001 33.715 37.1403 35.1367C36.9077 35.4468 36.6234 35.7311 36.3649 36.0413ZM40.3454 45.3723C40.3454 44.5193 40.3971 43.6922 40.3196 42.8651C40.0352 39.7892 37.3988 37.4112 34.3229 37.3595C33.289 37.3595 32.2465 37.3595 31.1954 37.3595C28.5072 37.3854 26.1034 39.2206 25.3539 41.8053C25.0178 42.9685 25.1471 44.1574 25.1212 45.3464L25.1471 45.3723C30.2132 45.3723 35.2793 45.3723 40.3454 45.3723ZM36.5975 31.5697C36.5975 31.4663 36.5975 31.3629 36.5975 31.2595C36.5717 29.4761 35.3052 27.9252 33.5734 27.5633C31.8157 27.1756 30.0064 28.0544 29.2568 29.6828C28.9208 30.3807 28.8691 31.1044 28.895 31.854C28.9467 34.5939 31.764 36.429 34.2712 35.3176C35.8738 34.5939 36.5975 33.3015 36.5975 31.5697Z" fill="#808285"/>
<path d="M40.3451 45.3721C35.279 45.3721 30.2129 45.3721 25.1468 45.3721L25.1209 45.3463C25.1468 44.1573 25.0175 42.9683 25.3535 41.8051C26.1031 39.2204 28.5069 37.3852 31.1951 37.3594C32.2462 37.3594 33.2887 37.3594 34.3226 37.3594C37.3985 37.4111 40.0349 39.789 40.3193 42.8649C40.3968 43.692 40.3451 44.5191 40.3451 45.3721Z" fill="white"/>
<path d="M36.5975 31.57C36.5975 33.3018 35.8737 34.5941 34.2712 35.3179C31.764 36.4293 28.9466 34.5941 28.8949 31.8543C28.869 31.1047 28.9207 30.381 29.2568 29.6831C30.0063 28.0547 31.8157 27.1759 33.5733 27.5636C35.3051 27.9255 36.5716 29.4763 36.5975 31.2598C36.5975 31.3632 36.5975 31.4666 36.5975 31.57Z" fill="white"/>
<path fill-rule="evenodd" clip-rule="evenodd" d="M59.8601 36.0413C60.2995 36.2223 60.7906 36.3773 61.23 36.61C63.9182 38.0833 65.3398 40.332 65.469 43.4079C65.5207 44.3125 65.4949 45.2172 65.4949 46.1219C65.4949 46.6647 65.1589 46.9748 64.6161 46.9748C59.033 46.9748 53.4499 46.9748 47.8669 46.9748C47.3499 46.9748 47.0139 46.6388 47.0139 46.1219C47.0139 45.0104 46.9622 43.8731 47.0656 42.7617C47.3758 39.8409 48.9266 37.7473 51.5889 36.4549C51.7612 36.3687 51.9422 36.2998 52.1317 36.2481C52.3126 36.1706 52.4936 36.1189 52.6745 36.0413C52.4677 35.8345 52.2609 35.6278 52.0542 35.3951C51.3046 34.4646 50.891 33.4307 50.8135 32.2417C50.7101 30.7167 50.9169 29.2693 51.8991 28.0544C53.3465 26.2193 55.2593 25.5472 57.5338 26.0383C59.6792 26.5294 61.3076 28.2871 61.6178 30.4324C61.8762 32.1125 61.6953 33.715 60.6355 35.1367C60.4029 35.4468 60.1186 35.7311 59.8601 36.0413ZM63.8406 45.3723C63.8406 44.5193 63.9182 43.6922 63.8406 42.8651C63.5305 39.7892 60.9199 37.4112 57.8182 37.3595C56.7843 37.3595 55.7417 37.3595 54.6906 37.3595C52.0025 37.3854 49.5987 39.2206 48.8491 41.8053C48.5131 42.9685 48.6423 44.1574 48.6164 45.3464C48.6164 45.3464 48.6423 45.3723 48.6681 45.3723C53.717 45.3723 58.7745 45.3723 63.8406 45.3723ZM60.0927 31.5697C60.0927 31.4663 60.0927 31.3629 60.0927 31.2595C60.0669 29.4761 58.8004 27.9252 57.0686 27.5633C55.311 27.1756 53.5275 28.0544 52.7521 29.6828C52.416 30.3807 52.3643 31.1044 52.3902 31.854C52.4419 34.5939 55.2851 36.429 57.7665 35.3176C59.369 34.5939 60.0927 33.3015 60.0927 31.5697Z" fill="#808285"/>
<path d="M63.8407 45.3721C58.7746 45.3721 53.7171 45.3721 48.6682 45.3721C48.6424 45.3721 48.6165 45.3463 48.6165 45.3463C48.6424 44.1573 48.5131 42.9683 48.8492 41.8051C49.5987 39.2204 52.0026 37.3852 54.6907 37.3594C55.7418 37.3594 56.7843 37.3594 57.8182 37.3594C60.9199 37.4111 63.5305 39.789 63.8407 42.8649C63.9183 43.692 63.8407 44.5191 63.8407 45.3721Z" fill="white"/>
<path d="M60.0926 31.57C60.0926 33.3018 59.3688 34.5941 57.7663 35.3179C55.2849 36.4293 52.4417 34.5941 52.39 31.8543C52.3642 31.1047 52.4159 30.381 52.7519 29.6831C53.5273 28.0547 55.3108 27.1759 57.0684 27.5636C58.8002 27.9255 60.0667 29.4763 60.0926 31.2598C60.0926 31.3632 60.0926 31.4666 60.0926 31.57Z" fill="white"/>
<path fill-rule="evenodd" clip-rule="evenodd" d="M83.3557 36.0413C83.821 36.2223 84.2862 36.3773 84.7256 36.61C87.4138 38.0833 88.8354 40.332 88.9905 43.4079C89.0163 44.3125 88.9905 45.2172 88.9905 46.1219C88.9905 46.6647 88.6545 46.9748 88.1117 46.9748C82.5286 46.9748 76.9455 46.9748 71.3625 46.9748C70.8455 46.9748 70.5095 46.6388 70.5095 46.1219C70.5095 45.0104 70.4578 43.8731 70.5612 42.7617C70.8714 39.8409 72.4222 37.7473 75.0845 36.4549C75.2568 36.3687 75.4378 36.2998 75.6273 36.2481C75.8082 36.1706 75.9892 36.1189 76.1701 36.0413C75.9633 35.8345 75.7566 35.6278 75.5498 35.3951C74.8002 34.4646 74.3866 33.4307 74.3091 32.2417C74.2057 30.7167 74.4125 29.2693 75.3947 28.0544C76.868 26.2193 78.7549 25.5472 81.0295 26.0383C83.1748 26.5294 84.8032 28.2871 85.1134 30.4324C85.3718 32.1125 85.1909 33.715 84.1312 35.1367C83.8985 35.4468 83.6142 35.7311 83.3557 36.0413ZM87.3362 45.3723C87.3362 44.5193 87.4138 43.6922 87.3362 42.8651C87.0519 39.7892 84.4155 37.4112 81.3396 37.3595C80.2885 37.3595 79.2374 37.3595 78.1862 37.3595C75.4981 37.3854 73.1201 39.2206 72.3705 41.8053C72.0345 42.9685 72.1379 44.1574 72.1121 45.3464C72.1121 45.3464 72.1379 45.3723 72.1637 45.3723C77.2126 45.3723 82.2701 45.3723 87.3362 45.3723ZM83.5884 31.5697C83.6056 31.4663 83.6056 31.3629 83.5884 31.2595C83.5625 29.4761 82.3218 27.9252 80.59 27.5633C78.8066 27.1756 77.0231 28.0544 76.2477 29.6828C75.9116 30.3807 75.8858 31.1044 75.8858 31.854C75.9375 34.5939 78.7807 36.429 81.2621 35.3176C82.8905 34.5939 83.5884 33.3015 83.5884 31.5697Z" fill="#808285"/>
<path d="M87.336 45.3721C82.2699 45.3721 77.2124 45.3721 72.1635 45.3721C72.1377 45.3721 72.1118 45.3463 72.1118 45.3463C72.1377 44.1573 72.0343 42.9683 72.3703 41.8051C73.1199 39.2204 75.4978 37.3852 78.186 37.3594C79.2371 37.3594 80.2882 37.3594 81.3394 37.3594C84.4152 37.4111 87.0517 39.789 87.336 42.8649C87.4136 43.692 87.336 44.5191 87.336 45.3721Z" fill="white"/>
<path d="M83.5878 31.57C83.5878 33.3018 82.8899 34.5941 81.2615 35.3179C78.7802 36.4293 75.9369 34.5941 75.8853 31.8543C75.8853 31.1047 75.9111 30.381 76.2471 29.6831C77.0226 28.0547 78.806 27.1759 80.5895 27.5636C82.3213 27.9255 83.562 29.4763 83.5878 31.2598C83.6051 31.3632 83.6051 31.4666 83.5878 31.57Z" fill="white"/>
<path fill-rule="evenodd" clip-rule="evenodd" d="M106.851 36.0413C107.316 36.2223 107.781 36.3773 108.221 36.61C110.935 38.0833 112.356 40.332 112.485 43.4079C112.511 44.3125 112.485 45.2172 112.485 46.1219C112.485 46.6647 112.149 46.9748 111.607 46.9748C106.024 46.9748 100.449 46.9748 94.8832 46.9748C94.3404 46.9748 94.0044 46.6388 94.0044 46.1219C94.0303 45.0104 93.9527 43.8731 94.0561 42.7617C94.3921 39.8409 95.943 37.7473 98.5794 36.4549C98.7517 36.3687 98.9327 36.2998 99.1222 36.2481C99.3032 36.1706 99.4841 36.1189 99.6909 36.0413C99.4582 35.8345 99.2515 35.6278 99.0705 35.3951C98.2951 34.4646 97.8815 33.4307 97.804 32.2417C97.7006 30.7167 97.9332 29.2693 98.8896 28.0544C100.363 26.2193 102.25 25.5472 104.55 26.0383C106.67 26.5294 108.298 28.2871 108.634 30.4324C108.893 32.1125 108.686 33.715 107.652 35.1367C107.393 35.4468 107.109 35.7311 106.851 36.0413ZM110.831 45.3723C110.831 44.5193 110.909 43.6922 110.831 42.8651C110.547 39.7892 107.91 37.4112 104.835 37.3595C103.783 37.3595 102.732 37.3595 101.681 37.3595C98.993 37.3854 96.615 39.2206 95.8654 41.8053C95.5294 42.9685 95.6328 44.1574 95.6328 45.3464C95.6328 45.3464 95.6328 45.3723 95.6586 45.3723C100.725 45.3723 105.782 45.3723 110.831 45.3723ZM107.109 31.5697C107.109 31.4663 107.109 31.3629 107.109 31.2595C107.083 29.4761 105.817 27.9252 104.085 27.5633C102.301 27.1756 100.518 28.0544 99.7426 29.6828C99.4324 30.3807 99.3807 31.1044 99.3807 31.854C99.4324 34.5939 102.276 36.429 104.757 35.3176C106.385 34.5939 107.109 33.3015 107.109 31.5697Z" fill="#808285"/>
<path d="M110.832 45.3721C105.783 45.3721 100.725 45.3721 95.659 45.3721C95.6332 45.3721 95.6332 45.3463 95.6332 45.3463C95.6332 44.1573 95.5298 42.9683 95.8658 41.8051C96.6154 39.2204 98.9933 37.3852 101.681 37.3594C102.733 37.3594 103.784 37.3594 104.835 37.3594C107.911 37.4111 110.547 39.789 110.832 42.8649C110.909 43.692 110.832 44.5191 110.832 45.3721Z" fill="white"/>
<path d="M107.109 31.57C107.109 33.3018 106.386 34.5941 104.757 35.3179C102.276 36.4293 99.4326 34.5941 99.3809 31.8543C99.3809 31.1047 99.4326 30.381 99.7427 29.6831C100.518 28.0547 102.302 27.1759 104.085 27.5636C105.817 27.9255 107.083 29.4763 107.109 31.2598C107.109 31.3632 107.109 31.4666 107.109 31.57Z" fill="white"/>
<path fill-rule="evenodd" clip-rule="evenodd" d="M130.346 36.0414C130.811 36.2224 131.277 36.3775 131.716 36.6101C134.43 38.0834 135.852 40.3321 135.981 43.408C136.033 44.3127 135.981 45.2173 135.981 46.122C135.981 46.6648 135.645 46.9749 135.128 46.9749C129.545 46.9749 123.962 46.9749 118.379 46.9749C117.836 46.9749 117.5 46.6389 117.5 46.122C117.526 45.0105 117.448 43.8732 117.578 42.7618C117.888 39.841 119.439 37.7474 122.101 36.455C122.273 36.3688 122.445 36.2999 122.618 36.2482C122.799 36.1707 122.98 36.119 123.186 36.0414C122.954 35.8347 122.747 35.6279 122.566 35.3953C121.791 34.4647 121.377 33.4308 121.3 32.2419C121.196 30.7169 121.429 29.2694 122.411 28.0546C123.858 26.2194 125.771 25.5473 128.046 26.0385C130.165 26.5296 131.794 28.2872 132.13 30.4325C132.388 32.1126 132.207 33.7152 131.147 35.1368C130.915 35.4469 130.631 35.7313 130.346 36.0414ZM134.327 45.3724C134.327 44.5194 134.404 43.6923 134.327 42.8652C134.042 39.7893 131.406 37.4114 128.33 37.3597C127.279 37.3597 126.236 37.3597 125.203 37.3597C122.514 37.3855 120.111 39.2207 119.361 41.8054C119.025 42.9686 119.128 44.1576 119.128 45.3466L119.154 45.3724C124.22 45.3724 129.278 45.3724 134.327 45.3724ZM130.605 31.5698C130.605 31.4664 130.605 31.363 130.605 31.2597C130.579 29.4762 129.312 27.9253 127.581 27.5635C125.797 27.1757 124.014 28.0546 123.238 29.683C122.928 30.3808 122.876 31.1046 122.902 31.8541C122.954 34.594 125.771 36.4292 128.278 35.3177C129.881 34.594 130.605 33.3016 130.605 31.5698Z" fill="#808285"/>
<path d="M134.327 45.3721C129.278 45.3721 124.22 45.3721 119.154 45.3721L119.128 45.3463C119.128 44.1573 119.025 42.9683 119.361 41.8051C120.11 39.2204 122.514 37.3852 125.202 37.3594C126.236 37.3594 127.279 37.3594 128.33 37.3594C131.406 37.4111 134.042 39.789 134.327 42.8649C134.404 43.692 134.327 44.5191 134.327 45.3721Z" fill="white"/>
<path d="M130.605 31.57C130.605 33.3018 129.881 34.5941 128.279 35.3179C125.771 36.4293 122.954 34.5941 122.902 31.8543C122.876 31.1047 122.928 30.381 123.238 29.6831C124.014 28.0547 125.797 27.1759 127.581 27.5636C129.312 27.9255 130.579 29.4763 130.605 31.2598C130.605 31.3632 130.605 31.4666 130.605 31.57Z" fill="white"/>
<path fill-rule="evenodd" clip-rule="evenodd" d="M153.867 36.0413C154.307 36.2223 154.798 36.3773 155.237 36.61C157.925 38.0833 159.347 40.332 159.476 43.4079C159.528 44.3125 159.502 45.2172 159.476 46.1219C159.476 46.6647 159.14 46.9748 158.623 46.9748C153.04 46.9748 147.457 46.9748 141.874 46.9748C141.331 46.9748 140.995 46.6388 141.021 46.1219C141.021 45.0104 140.944 43.8731 141.073 42.7617C141.383 39.8409 142.934 37.7473 145.596 36.4549C145.768 36.3687 145.941 36.2998 146.113 36.2481C146.294 36.1706 146.475 36.1189 146.682 36.0413C146.475 35.8345 146.242 35.6278 146.061 35.3951C145.286 34.4646 144.898 33.4307 144.795 32.2417C144.691 30.7167 144.924 29.2693 145.906 28.0544C147.354 26.2193 149.266 25.5472 151.541 26.0383C153.686 26.5294 155.289 28.2871 155.625 30.4324C155.883 32.1125 155.703 33.715 154.643 35.1367C154.41 35.4468 154.126 35.7311 153.867 36.0413ZM157.848 45.3723C157.848 44.5193 157.9 43.6922 157.822 42.8651C157.538 39.7892 154.901 37.4112 151.825 37.3595C150.774 37.3595 149.732 37.3595 148.698 37.3595C146.01 37.3854 143.606 39.2206 142.856 41.8053C142.52 42.9685 142.624 44.1574 142.624 45.3464L142.65 45.3723C147.716 45.3723 152.782 45.3723 157.848 45.3723ZM154.1 31.5697C154.1 31.4663 154.1 31.3629 154.1 31.2595C154.074 29.4761 152.808 27.9252 151.076 27.5633C149.292 27.1756 147.509 28.0544 146.759 29.6828C146.423 30.3807 146.372 31.1044 146.397 31.854C146.449 34.5939 149.266 36.429 151.774 35.3176C153.376 34.5939 154.1 33.3015 154.1 31.5697Z" fill="#808285"/>
<path d="M157.848 45.3721C152.782 45.3721 147.716 45.3721 142.65 45.3721L142.624 45.3463C142.624 44.1573 142.521 42.9683 142.857 41.8051C143.606 39.2204 146.01 37.3852 148.698 37.3594C149.732 37.3594 150.774 37.3594 151.826 37.3594C154.901 37.4111 157.538 39.789 157.822 42.8649C157.9 43.692 157.848 44.5191 157.848 45.3721Z" fill="white"/>
<path d="M154.1 31.57C154.1 33.3018 153.376 34.5941 151.774 35.3179C149.266 36.4293 146.449 34.5941 146.397 31.8543C146.371 31.1047 146.423 30.381 146.759 29.6831C147.509 28.0547 149.292 27.1759 151.076 27.5636C152.808 27.9255 154.074 29.4763 154.1 31.2598C154.1 31.3632 154.1 31.4666 154.1 31.57Z" fill="white"/>
<path fill-rule="evenodd" clip-rule="evenodd" d="M177.363 36.0414C177.802 36.2224 178.293 36.3775 178.733 36.6101C181.421 38.0834 182.843 40.3321 182.972 43.408C183.024 44.3127 182.998 45.2173 182.998 46.122C182.998 46.6648 182.662 46.9749 182.119 46.9749C176.536 46.9749 170.953 46.9749 165.37 46.9749C164.853 46.9749 164.517 46.6389 164.517 46.122C164.517 45.0105 164.439 43.8732 164.568 42.7618C164.879 39.841 166.429 37.7474 169.092 36.455C169.264 36.3688 169.445 36.2999 169.635 36.2482C169.79 36.1707 169.996 36.119 170.177 36.0414C169.971 35.8347 169.738 35.6279 169.557 35.3953C168.807 34.4647 168.394 33.4308 168.316 32.2419C168.187 30.7169 168.42 29.2694 169.402 28.0546C170.849 26.2194 172.762 25.5473 175.037 26.0385C177.182 26.5296 178.785 28.2872 179.121 30.4325C179.379 32.1126 179.198 33.7152 178.138 35.1368C177.906 35.4469 177.621 35.7313 177.363 36.0414ZM181.343 45.3724C181.343 44.5194 181.395 43.6923 181.318 42.8652C181.033 39.7893 178.397 37.4114 175.321 37.3597C174.287 37.3597 173.245 37.3597 172.193 37.3597C169.505 37.3855 167.101 39.2207 166.352 41.8054C166.016 42.9686 166.145 44.1576 166.119 45.3466C166.119 45.3466 166.145 45.3724 166.171 45.3724C171.22 45.3724 176.277 45.3724 181.343 45.3724ZM177.596 31.5698C177.596 31.4664 177.596 31.363 177.596 31.2597C177.57 29.4762 176.303 27.9253 174.571 27.5635C172.814 27.1757 171.004 28.0546 170.255 29.683C169.919 30.3808 169.867 31.1046 169.893 31.8541C169.945 34.594 172.762 36.4292 175.269 35.3177C176.872 34.594 177.596 33.3016 177.596 31.5698Z" fill="#808285"/>
<path d="M181.344 45.3721C176.278 45.3721 171.22 45.3721 166.171 45.3721C166.145 45.3721 166.119 45.3463 166.119 45.3463C166.145 44.1573 166.016 42.9683 166.352 41.8051C167.102 39.2204 169.505 37.3852 172.194 37.3594C173.245 37.3594 174.287 37.3594 175.321 37.3594C178.397 37.4111 181.033 39.789 181.318 42.8649C181.395 43.692 181.344 44.5191 181.344 45.3721Z" fill="white"/>
<path d="M177.595 31.57C177.595 33.3018 176.872 34.5941 175.269 35.3179C172.762 36.4293 169.945 34.5941 169.893 31.8543C169.867 31.1047 169.919 30.381 170.255 29.6831C171.004 28.0547 172.814 27.1759 174.571 27.5636C176.303 27.9255 177.57 29.4763 177.595 31.2598C177.595 31.3632 177.595 31.4666 177.595 31.57Z" fill="white"/>
<path fill-rule="evenodd" clip-rule="evenodd" d="M200.858 36.0414C201.298 36.2224 201.789 36.3775 202.228 36.6101C204.916 38.0834 206.338 40.3321 206.467 43.408C206.519 44.3127 206.493 45.2173 206.493 46.122C206.493 46.6648 206.157 46.9749 205.614 46.9749C200.031 46.9749 194.448 46.9749 188.865 46.9749C188.348 46.9749 188.012 46.6389 188.012 46.122C188.012 45.0105 187.96 43.8732 188.064 42.7618C188.374 39.841 189.925 37.7474 192.587 36.455C192.759 36.3688 192.94 36.2999 193.13 36.2482C193.311 36.1707 193.492 36.119 193.673 36.0414C193.466 35.8347 193.259 35.6279 193.052 35.3953C192.303 34.4647 191.889 33.4308 191.812 32.2419C191.708 30.7169 191.915 29.2694 192.897 28.0546C194.37 26.2194 196.257 25.5473 198.532 26.0385C200.677 26.5296 202.306 28.2872 202.616 30.4325C202.874 32.1126 202.693 33.7152 201.634 35.1368C201.401 35.4469 201.117 35.7313 200.858 36.0414ZM204.839 45.3724C204.839 44.5194 204.916 43.6923 204.839 42.8652C204.529 39.7893 201.918 37.4114 198.842 37.3597C197.791 37.3597 196.74 37.3597 195.689 37.3597C193.001 37.3855 190.597 39.2207 189.873 41.8054C189.511 42.9686 189.64 44.1576 189.614 45.3466C189.614 45.3466 189.64 45.3724 189.666 45.3724C194.715 45.3724 199.773 45.3724 204.839 45.3724ZM201.091 31.5698C201.091 31.4664 201.091 31.363 201.091 31.2597C201.065 29.4762 199.798 27.9253 198.067 27.5635C196.309 27.1757 194.526 28.0546 193.75 29.683C193.414 30.3808 193.388 31.1046 193.388 31.8541C193.44 34.594 196.283 36.4292 198.765 35.3177C200.367 34.594 201.091 33.3016 201.091 31.5698Z" fill="#808285"/>
<path d="M204.839 45.3721C199.773 45.3721 194.715 45.3721 189.666 45.3721C189.64 45.3721 189.615 45.3463 189.615 45.3463C189.64 44.1573 189.511 42.9683 189.873 41.8051C190.597 39.2204 193.001 37.3852 195.689 37.3594C196.74 37.3594 197.791 37.3594 198.842 37.3594C201.918 37.4111 204.529 39.789 204.839 42.8649C204.916 43.692 204.839 44.5191 204.839 45.3721Z" fill="white"/>
<path d="M201.091 31.57C201.091 33.3018 200.367 34.5941 198.764 35.3179C196.283 36.4293 193.44 34.5941 193.388 31.8543C193.388 31.1047 193.414 30.381 193.75 29.6831C194.525 28.0547 196.309 27.1759 198.067 27.5636C199.798 27.9255 201.065 29.4763 201.091 31.2598C201.091 31.3632 201.091 31.4666 201.091 31.57Z" fill="white"/>
<path fill-rule="evenodd" clip-rule="evenodd" d="M224.354 36.0414C224.819 36.2224 225.284 36.3775 225.724 36.6101C228.412 38.0834 229.859 40.3321 229.989 43.408C230.014 44.3127 229.989 45.2173 229.989 46.122C229.989 46.6648 229.653 46.9749 229.11 46.9749C223.527 46.9749 217.944 46.9749 212.361 46.9749C211.844 46.9749 211.508 46.6389 211.508 46.122C211.508 45.0105 211.456 43.8732 211.559 42.7618C211.895 39.841 213.446 37.7474 216.083 36.455C216.255 36.3688 216.436 36.2999 216.625 36.2482C216.806 36.1707 216.987 36.119 217.168 36.0414C216.961 35.8347 216.755 35.6279 216.548 35.3953C215.798 34.4647 215.385 33.4308 215.307 32.2419C215.204 30.7169 215.411 29.2694 216.393 28.0546C217.866 26.2194 219.753 25.5473 222.053 26.0385C224.173 26.5296 225.801 28.2872 226.137 30.4325C226.37 32.1126 226.189 33.7152 225.129 35.1368C224.897 35.4469 224.612 35.7313 224.354 36.0414ZM228.334 45.3724C228.334 44.5194 228.412 43.6923 228.334 42.8652C228.05 39.7893 225.414 37.4114 222.338 37.3597C221.287 37.3597 220.235 37.3597 219.184 37.3597C216.496 37.3855 214.118 39.2207 213.369 41.8054C213.033 42.9686 213.136 44.1576 213.136 45.3466C213.136 45.3466 213.136 45.3724 213.162 45.3724C218.211 45.3724 223.268 45.3724 228.334 45.3724ZM224.612 31.5698C224.612 31.4664 224.612 31.363 224.612 31.2597C224.561 29.4762 223.32 27.9253 221.588 27.5635C219.805 27.1757 218.021 28.0546 217.246 29.683C216.936 30.3808 216.884 31.1046 216.884 31.8541C216.936 34.594 219.779 36.4292 222.26 35.3177C223.889 34.594 224.586 33.3016 224.612 31.5698Z" fill="#808285"/>
<path d="M228.334 45.3721C223.268 45.3721 218.211 45.3721 213.162 45.3721C213.136 45.3721 213.136 45.3463 213.136 45.3463C213.136 44.1573 213.033 42.9683 213.369 41.8051C214.118 39.2204 216.496 37.3852 219.184 37.3594C220.236 37.3594 221.287 37.3594 222.338 37.3594C225.414 37.4111 228.05 39.789 228.334 42.8649C228.412 43.692 228.334 44.5191 228.334 45.3721Z" fill="white"/>
<path d="M224.612 31.57C224.586 33.3018 223.888 34.5941 222.26 35.3179C219.779 36.4293 216.935 34.5941 216.884 31.8543C216.884 31.1047 216.935 30.381 217.246 29.6831C218.021 28.0547 219.805 27.1759 221.588 27.5636C223.32 27.9255 224.561 29.4763 224.612 31.2598C224.612 31.3632 224.612 31.4666 224.612 31.57Z" fill="white"/>
</svg>
