<svg width="144" height="32" viewBox="0 0 144 32" fill="none" xmlns="http://www.w3.org/2000/svg">
<path d="M12.312 1.02734V31.0508H8.51807V5.76465L0.868652 8.55371V5.12891L11.7173 1.02734H12.312ZM38.4185 8.86133V31.0508H34.604V8.86133H38.4185ZM34.3169 2.97559C34.3169 2.36035 34.5015 1.84082 34.8706 1.41699C35.2534 0.993164 35.814 0.78125 36.5522 0.78125C37.2769 0.78125 37.8306 0.993164 38.2134 1.41699C38.6099 1.84082 38.8081 2.36035 38.8081 2.97559C38.8081 3.56348 38.6099 4.06934 38.2134 4.49316C37.8306 4.90332 37.2769 5.1084 36.5522 5.1084C35.814 5.1084 35.2534 4.90332 34.8706 4.49316C34.5015 4.06934 34.3169 3.56348 34.3169 2.97559ZM48.3032 13.5986V31.0508H44.5093V8.86133H48.0981L48.3032 13.5986ZM47.4009 19.1152L45.8218 19.0537C45.8354 17.5361 46.061 16.1348 46.4985 14.8496C46.936 13.5508 47.5513 12.4229 48.3442 11.4658C49.1372 10.5088 50.0806 9.77051 51.1743 9.25098C52.2817 8.71777 53.5054 8.45117 54.8452 8.45117C55.939 8.45117 56.9233 8.60156 57.7983 8.90234C58.6733 9.18945 59.4185 9.6543 60.0337 10.2969C60.6626 10.9395 61.1411 11.7734 61.4692 12.7988C61.7974 13.8105 61.9614 15.0479 61.9614 16.5107V31.0508H58.147V16.4697C58.147 15.3076 57.9761 14.3779 57.6343 13.6807C57.2925 12.9697 56.7935 12.457 56.1372 12.1426C55.481 11.8145 54.6743 11.6504 53.7173 11.6504C52.7739 11.6504 51.9126 11.8486 51.1333 12.2451C50.3677 12.6416 49.7046 13.1885 49.144 13.8857C48.5972 14.583 48.1665 15.3828 47.8521 16.2852C47.5513 17.1738 47.4009 18.1172 47.4009 19.1152ZM97.2964 27.9336V31.0508H77.7524V28.3232L87.5347 17.4336C88.7378 16.0938 89.6675 14.959 90.3237 14.0293C90.9937 13.0859 91.4585 12.2451 91.7183 11.5068C91.9917 10.7549 92.1284 9.98926 92.1284 9.20996C92.1284 8.22559 91.9233 7.33691 91.5132 6.54395C91.1167 5.7373 90.5288 5.09473 89.7495 4.61621C88.9702 4.1377 88.0269 3.89844 86.9194 3.89844C85.5933 3.89844 84.4858 4.1582 83.5972 4.67773C82.7222 5.18359 82.0659 5.89453 81.6284 6.81055C81.1909 7.72656 80.9722 8.7793 80.9722 9.96875H77.1782C77.1782 8.28711 77.5474 6.74902 78.2856 5.35449C79.0239 3.95996 80.1177 2.85254 81.5669 2.03223C83.0161 1.19824 84.8003 0.78125 86.9194 0.78125C88.8062 0.78125 90.4194 1.11621 91.7593 1.78613C93.0991 2.44238 94.1245 3.37207 94.8354 4.5752C95.5601 5.76465 95.9224 7.15918 95.9224 8.75879C95.9224 9.63379 95.772 10.5225 95.4712 11.4248C95.1841 12.3135 94.7808 13.2021 94.2612 14.0908C93.7554 14.9795 93.1606 15.8545 92.4771 16.7158C91.8071 17.5771 91.0894 18.4248 90.3237 19.2588L82.3257 27.9336H97.2964ZM121.537 21.002V24.1191H99.9624V21.8838L113.333 1.19141H116.43L113.108 7.17969L104.269 21.002H121.537ZM117.374 1.19141V31.0508H113.58V1.19141H117.374ZM143.726 13.7422V18.2949C143.726 20.7422 143.507 22.8066 143.07 24.4883C142.632 26.1699 142.003 27.5234 141.183 28.5488C140.363 29.5742 139.372 30.3193 138.209 30.7842C137.061 31.2354 135.762 31.4609 134.313 31.4609C133.165 31.4609 132.105 31.3174 131.134 31.0303C130.164 30.7432 129.289 30.2852 128.509 29.6562C127.744 29.0137 127.087 28.1797 126.541 27.1543C125.994 26.1289 125.577 24.8848 125.29 23.4219C125.002 21.959 124.859 20.25 124.859 18.2949V13.7422C124.859 11.2949 125.078 9.24414 125.515 7.58984C125.966 5.93555 126.602 4.60938 127.422 3.61133C128.243 2.59961 129.227 1.875 130.375 1.4375C131.538 1 132.836 0.78125 134.272 0.78125C135.434 0.78125 136.5 0.924805 137.471 1.21191C138.456 1.48535 139.331 1.92969 140.096 2.54492C140.862 3.14648 141.511 3.95313 142.044 4.96484C142.591 5.96289 143.008 7.18652 143.295 8.63574C143.583 10.085 143.726 11.7871 143.726 13.7422ZM139.912 18.9102V13.1064C139.912 11.7666 139.83 10.5908 139.666 9.5791C139.515 8.55371 139.29 7.67871 138.989 6.9541C138.688 6.22949 138.305 5.6416 137.84 5.19043C137.389 4.73926 136.863 4.41113 136.261 4.20605C135.673 3.9873 135.01 3.87793 134.272 3.87793C133.37 3.87793 132.57 4.04883 131.873 4.39062C131.175 4.71875 130.587 5.24512 130.109 5.96973C129.644 6.69434 129.289 7.64453 129.042 8.82031C128.796 9.99609 128.673 11.4248 128.673 13.1064V18.9102C128.673 20.25 128.749 21.4326 128.899 22.458C129.063 23.4834 129.302 24.3721 129.617 25.124C129.931 25.8623 130.314 26.4707 130.765 26.9492C131.216 27.4277 131.736 27.7832 132.324 28.0156C132.925 28.2344 133.588 28.3438 134.313 28.3438C135.243 28.3438 136.056 28.166 136.753 27.8105C137.451 27.4551 138.032 26.9014 138.497 26.1494C138.975 25.3838 139.331 24.4062 139.563 23.2168C139.795 22.0137 139.912 20.5781 139.912 18.9102Z" fill="#16A34A"/>
</svg>
