<svg width="284" height="27" viewBox="0 0 284 27" fill="none" xmlns="http://www.w3.org/2000/svg">
<path fill-rule="evenodd" clip-rule="evenodd" d="M16.3361 12.6143C16.8804 12.8704 17.4887 13.0625 18.0329 13.3506C21.3625 15.1435 23.1234 17.9608 23.2834 21.7386C23.3475 22.8911 23.3154 24.0117 23.2834 25.1322C23.2834 25.7725 22.8672 26.1887 22.2269 26.1887C15.3116 26.1887 8.39636 26.1887 1.48108 26.1887C0.808757 26.1887 0.392543 25.7725 0.424558 25.1322C0.424558 23.7235 0.328536 22.3469 0.488612 20.9702C0.872795 17.3525 2.79371 14.7273 6.09127 13.1585C6.30471 13.0518 6.51814 12.9558 6.73158 12.8704C6.95569 12.8063 7.17978 12.7423 7.4359 12.6463C7.17978 12.3581 6.89163 12.102 6.66752 11.8139C5.73908 10.6933 5.22683 9.38072 5.09877 7.90802C4.97071 6.05114 5.25886 4.25829 6.47544 2.72156C8.26829 0.480491 10.6374 -0.38392 13.4548 0.256384C16.112 0.832658 18.097 3.04171 18.5132 5.69897C18.8333 7.77996 18.6092 9.7649 17.2966 11.5257C17.0085 11.9099 16.6563 12.2621 16.3361 12.6143ZM21.2665 24.2038C21.2665 23.1473 21.3305 22.0908 21.2344 21.0663C20.8823 17.2885 17.6167 14.3111 13.8069 14.279C12.5263 14.2577 11.2351 14.2577 9.9331 14.279C6.60352 14.3111 3.62607 16.5841 2.69763 19.7857C2.28143 21.2263 2.40953 22.699 2.40953 24.1397C2.40953 24.1717 2.44153 24.1717 2.44153 24.2038C8.71651 24.2038 14.9915 24.2038 21.2665 24.2038ZM16.6242 7.07562C16.6242 6.96891 16.6242 6.85152 16.6242 6.72346C16.5922 4.48239 15.0235 2.5935 12.8785 2.11327C10.7014 1.63304 8.4604 2.75357 7.53196 4.77053C7.11576 5.63494 7.05172 6.53137 7.08374 7.45981C7.14777 10.8214 10.6374 13.0945 13.7429 11.7498C15.7278 10.8534 16.6242 9.22064 16.6242 7.07562Z" fill="#16A34A"/>
<path d="M16.6242 7.07562V6.72346C16.5922 4.48239 15.0235 2.5935 12.8785 2.11327C10.7014 1.63304 8.4604 2.75357 7.53196 4.77053C7.11576 5.63494 7.05172 6.53137 7.08374 7.45981C7.14777 10.8214 10.6374 13.0945 13.7429 11.7498C15.7278 10.8534 16.6242 9.22064 16.6242 7.07562Z" fill="#16A34A"/>
<path d="M21.2665 24.2038C21.2665 23.1473 21.3305 22.0908 21.2344 21.0663C20.8823 17.2885 17.6167 14.3111 13.8069 14.279C12.5263 14.2577 11.2351 14.2577 9.9331 14.279C6.60352 14.3111 3.62607 16.5841 2.69763 19.7857C2.28143 21.2263 2.40953 22.699 2.40953 24.1397C2.40953 24.1717 2.44153 24.1717 2.44153 24.2038H21.2665Z" fill="#16A34A"/>
<path fill-rule="evenodd" clip-rule="evenodd" d="M45.2459 12.6143C45.7902 12.8704 46.3985 13.0625 46.9427 13.3506C50.2723 15.1435 52.0332 17.9608 52.2253 21.7386C52.2573 22.8911 52.2253 24.0117 52.2253 25.1322C52.2253 25.7725 51.809 26.1887 51.1367 26.1887C44.2214 26.1887 37.3061 26.1887 30.3909 26.1887C29.7505 26.1887 29.3344 25.7725 29.3344 25.1322C29.3344 23.7235 29.2703 22.3469 29.3984 20.9702C29.7826 17.3525 31.7035 14.7273 35.0011 13.1585C35.2145 13.0518 35.4386 12.9558 35.6734 12.8704C35.8975 12.8063 36.1216 12.7423 36.3457 12.6463C36.0896 12.3581 35.8335 12.102 35.5773 11.8139C34.6489 10.6933 34.1366 9.38072 34.0406 7.90802C33.9125 6.05114 34.1687 4.25829 35.3853 2.72156C37.2101 0.480491 39.5472 -0.38392 42.3646 0.256384C45.0218 0.832658 47.0388 3.04171 47.423 5.69897C47.7431 7.77996 47.519 9.7649 46.2064 11.5257C45.9182 11.9099 45.5661 12.2621 45.2459 12.6143ZM50.1763 24.2038C50.1763 23.1473 50.2723 22.0908 50.1763 21.0663C49.7921 17.2885 46.5586 14.3111 42.7488 14.279C41.4468 14.2577 40.1448 14.2577 38.8429 14.279C35.5133 14.3111 32.5679 16.5841 31.6395 19.7857C31.1912 21.2263 31.3513 22.699 31.3193 24.1397C31.3193 24.1717 31.3513 24.1717 31.3834 24.2038C37.637 24.2038 43.9013 24.2038 50.1763 24.2038ZM45.5341 7.07562C45.5341 6.96891 45.5341 6.85152 45.5341 6.72346C45.5021 4.48239 43.9333 2.5935 41.8203 2.11327C39.6113 1.63304 37.4022 2.75357 36.4417 4.77053C36.0255 5.63494 35.9935 6.53137 35.9935 7.45981C36.0575 10.8214 39.5792 13.0945 42.6527 11.7498C44.6376 10.8534 45.5341 9.22064 45.5341 7.07562Z" fill="#16A34A"/>
<path d="M45.5341 7.07562V6.72346C45.5021 4.48239 43.9333 2.5935 41.8203 2.11327C39.6113 1.63304 37.4022 2.75357 36.4417 4.77053C36.0255 5.63494 35.9935 6.53137 35.9935 7.45981C36.0575 10.8214 39.5792 13.0945 42.6527 11.7498C44.6376 10.8534 45.5341 9.22064 45.5341 7.07562Z" fill="#16A34A"/>
<path d="M50.1763 24.2038C50.1763 23.1473 50.2723 22.0908 50.1763 21.0663C49.7921 17.2885 46.5586 14.3111 42.7488 14.279C41.4468 14.2577 40.1448 14.2577 38.8429 14.279C35.5133 14.3111 32.5679 16.5841 31.6395 19.7857C31.1912 21.2263 31.3513 22.699 31.3193 24.1397C31.3193 24.1717 31.3513 24.1717 31.3834 24.2038H50.1763Z" fill="#16A34A"/>
<path fill-rule="evenodd" clip-rule="evenodd" d="M74.1557 12.6143C74.732 12.8704 75.3083 13.0625 75.8525 13.3506C79.2141 15.1435 80.9749 17.9608 81.135 21.7386C81.167 22.8911 81.135 24.0117 81.135 25.1322C81.135 25.7725 80.7189 26.1887 80.0465 26.1887C73.1526 26.1887 66.248 26.1887 59.3327 26.1887C58.6603 26.1887 58.2441 25.7725 58.2441 25.1322C58.2762 23.7235 58.1801 22.3469 58.3402 20.9702C58.7244 17.3525 60.6453 14.7273 63.9109 13.1585C64.1456 13.0518 64.3697 12.9558 64.5832 12.8704C64.8073 12.8063 65.0314 12.7423 65.2875 12.6463C64.9994 12.3581 64.7433 12.102 64.5192 11.8139C63.5587 10.6933 63.0464 9.38072 62.9504 7.90802C62.8223 6.05114 63.1105 4.25829 64.295 2.72156C66.1199 0.480491 68.489 -0.38392 71.3064 0.256384C73.9316 0.832658 75.9486 3.04171 76.3648 5.69897C76.6849 7.77996 76.4288 9.7649 75.1482 11.5257C74.828 11.9099 74.4759 12.2621 74.1557 12.6143ZM79.0861 24.2038C79.0861 23.1473 79.1821 22.0908 79.0861 21.0663C78.7339 17.2885 75.4683 14.3111 71.6585 14.279C70.3566 14.2577 69.0546 14.2577 67.7527 14.279C64.4551 14.3111 61.4777 16.5841 60.5493 19.7857C60.1331 21.2263 60.2611 22.699 60.2611 24.1397C60.2611 24.1717 60.2611 24.1717 60.2931 24.2038C66.5681 24.2038 72.8324 24.2038 79.0861 24.2038ZM74.4759 7.07562C74.4759 6.96891 74.4759 6.85152 74.4759 6.72346C74.4439 4.48239 72.8751 2.5935 70.7301 2.11327C68.521 1.63304 66.312 2.75357 65.3515 4.77053C64.9674 5.63494 64.9033 6.53137 64.9033 7.45981C64.9674 10.8214 68.489 13.0945 71.5625 11.7498C73.5795 10.8534 74.4759 9.22064 74.4759 7.07562Z" fill="#16A34A"/>
<path d="M74.4759 7.07562V6.72346C74.4439 4.48239 72.8751 2.5935 70.7301 2.11327C68.521 1.63304 66.312 2.75357 65.3515 4.77053C64.9674 5.63494 64.9033 6.53137 64.9033 7.45981C64.9674 10.8214 68.489 13.0945 71.5625 11.7498C73.5795 10.8534 74.4759 9.22064 74.4759 7.07562Z" fill="#16A34A"/>
<path d="M79.0861 24.2038C79.0861 23.1473 79.1821 22.0908 79.0861 21.0663C78.7339 17.2885 75.4683 14.3111 71.6585 14.279C70.3566 14.2577 69.0546 14.2577 67.7527 14.279C64.4551 14.3111 61.4777 16.5841 60.5493 19.7857C60.1331 21.2263 60.2611 22.699 60.2611 24.1397C60.2611 24.1717 60.2611 24.1717 60.2931 24.2038H79.0861Z" fill="#16A34A"/>
<path fill-rule="evenodd" clip-rule="evenodd" d="M103.097 12.6143C103.642 12.8704 104.25 13.0625 104.794 13.3506C108.124 15.1435 109.885 17.9608 110.045 21.7386C110.109 22.8911 110.077 24.0117 110.045 25.1322C110.045 25.7725 109.628 26.1887 108.988 26.1887C102.073 26.1887 95.1576 26.1887 88.2423 26.1887C87.57 26.1887 87.1538 25.7725 87.1858 25.1322C87.1858 23.7235 87.0898 22.3469 87.2498 20.9702C87.634 17.3525 89.5549 14.7273 92.8525 13.1585C93.0659 13.0518 93.2794 12.9558 93.4928 12.8704C93.7169 12.8063 93.941 12.7423 94.1971 12.6463C93.941 12.3581 93.6529 12.102 93.4288 11.8139C92.5003 10.6933 91.9881 9.38072 91.86 7.90802C91.7319 6.05114 92.0201 4.25829 93.2367 2.72156C95.0295 0.480491 97.3987 -0.38392 100.216 0.256384C102.873 0.832658 104.858 3.04171 105.274 5.69897C105.595 7.77996 105.37 9.7649 104.058 11.5257C103.77 11.9099 103.418 12.2621 103.097 12.6143ZM108.028 24.2038C108.028 23.1473 108.092 22.0908 107.996 21.0663C107.644 17.2885 104.378 14.3111 100.568 14.279C99.2876 14.2577 97.9963 14.2577 96.6943 14.279C93.3647 14.3111 90.3873 16.5841 89.4589 19.7857C89.0427 21.2263 89.1708 22.699 89.1708 24.1397C89.1708 24.1717 89.2028 24.1717 89.2028 24.2038C95.4777 24.2038 101.753 24.2038 108.028 24.2038ZM103.385 7.07562C103.385 6.96891 103.385 6.85152 103.385 6.72346C103.353 4.48239 101.785 2.5935 99.6397 2.11327C97.4627 1.63304 95.2216 2.75357 94.2932 4.77053C93.877 5.63494 93.813 6.53137 93.845 7.45981C93.909 10.8214 97.3986 13.0945 100.504 11.7498C102.489 10.8534 103.385 9.22064 103.385 7.07562Z" fill="#16A34A"/>
<path d="M103.385 7.07562V6.72346C103.353 4.48239 101.785 2.5935 99.6397 2.11327C97.4627 1.63304 95.2216 2.75357 94.2932 4.77053C93.877 5.63494 93.813 6.53137 93.845 7.45981C93.909 10.8214 97.3986 13.0945 100.504 11.7498C102.489 10.8534 103.385 9.22064 103.385 7.07562Z" fill="#16A34A"/>
<path d="M108.028 24.2038C108.028 23.1473 108.092 22.0908 107.996 21.0663C107.644 17.2885 104.378 14.3111 100.568 14.279C99.2876 14.2577 97.9963 14.2577 96.6943 14.279C93.3647 14.3111 90.3873 16.5841 89.4589 19.7857C89.0427 21.2263 89.1708 22.699 89.1708 24.1397C89.1708 24.1717 89.2028 24.1717 89.2028 24.2038H108.028Z" fill="#16A34A"/>
<path fill-rule="evenodd" clip-rule="evenodd" d="M132.007 12.6143C132.551 12.8704 133.16 13.0625 133.704 13.3506C137.034 15.1435 138.794 17.9608 138.986 21.7386C139.018 22.8911 138.986 24.0117 138.986 25.1322C138.986 25.7725 138.57 26.1887 137.898 26.1887C130.983 26.1887 124.067 26.1887 117.152 26.1887C116.512 26.1887 116.096 25.7725 116.096 25.1322C116.096 23.7235 116.032 22.3469 116.16 20.9702C116.544 17.3525 118.465 14.7273 121.762 13.1585C121.976 13.0518 122.2 12.9558 122.435 12.8704C122.659 12.8063 122.883 12.7423 123.107 12.6463C122.851 12.3581 122.595 12.102 122.339 11.8139C121.41 10.6933 120.898 9.38072 120.802 7.90802C120.674 6.05114 120.93 4.25829 122.146 2.72156C123.971 0.480491 126.308 -0.38392 129.126 0.256384C131.783 0.832658 133.8 3.04171 134.184 5.69897C134.504 7.77996 134.28 9.7649 132.968 11.5257C132.679 11.9099 132.327 12.2621 132.007 12.6143ZM136.938 24.2038C136.938 23.1473 137.034 22.0908 136.938 21.0663C136.553 17.2885 133.32 14.3111 129.51 14.279C128.208 14.2577 126.906 14.2577 125.604 14.279C122.275 14.3111 119.329 16.5841 118.401 19.7857C117.952 21.2263 118.113 22.699 118.081 24.1397C118.081 24.1717 118.113 24.1717 118.145 24.2038C124.398 24.2038 130.663 24.2038 136.938 24.2038ZM132.295 7.07562C132.295 6.96891 132.295 6.85152 132.295 6.72346C132.263 4.48239 130.695 2.5935 128.582 2.11327C126.372 1.63304 124.163 2.75357 123.203 4.77053C122.787 5.63494 122.755 6.53137 122.755 7.45981C122.819 10.8214 126.34 13.0945 129.414 11.7498C131.399 10.8534 132.295 9.22064 132.295 7.07562Z" fill="#16A34A"/>
<path d="M132.295 7.07562V6.72346C132.263 4.48239 130.695 2.5935 128.582 2.11327C126.372 1.63304 124.163 2.75357 123.203 4.77053C122.787 5.63494 122.755 6.53137 122.755 7.45981C122.819 10.8214 126.34 13.0945 129.414 11.7498C131.399 10.8534 132.295 9.22064 132.295 7.07562Z" fill="#16A34A"/>
<path d="M136.938 24.2038C136.938 23.1473 137.034 22.0908 136.938 21.0663C136.553 17.2885 133.32 14.3111 129.51 14.279C128.208 14.2577 126.906 14.2577 125.604 14.279C122.275 14.3111 119.329 16.5841 118.401 19.7857C117.952 21.2263 118.113 22.699 118.081 24.1397C118.081 24.1717 118.113 24.1717 118.145 24.2038H136.938Z" fill="#16A34A"/>
<path fill-rule="evenodd" clip-rule="evenodd" d="M160.917 12.6143C161.493 12.8704 162.069 13.0625 162.614 13.3506C165.975 15.1435 167.736 17.9608 167.896 21.7386C167.928 22.8911 167.896 24.0117 167.896 25.1322C167.896 25.7725 167.48 26.1887 166.808 26.1887C159.914 26.1887 153.009 26.1887 146.094 26.1887C145.422 26.1887 145.005 25.7725 145.005 25.1322C145.037 23.7235 144.941 22.3469 145.101 20.9702C145.486 17.3525 147.407 14.7273 150.672 13.1585C150.907 13.0518 151.131 12.9558 151.344 12.8704C151.569 12.8063 151.793 12.7423 152.049 12.6463C151.761 12.3581 151.504 12.102 151.28 11.8139C150.32 10.6933 149.808 9.38072 149.712 7.90802C149.584 6.05114 149.872 4.25829 151.056 2.72156C152.881 0.480491 155.25 -0.38392 158.068 0.256384C160.693 0.832658 162.71 3.04171 163.126 5.69897C163.446 7.77996 163.19 9.7649 161.909 11.5257C161.589 11.9099 161.237 12.2621 160.917 12.6143ZM165.847 24.2038C165.847 23.1473 165.943 22.0908 165.847 21.0663C165.495 17.2885 162.23 14.3111 158.42 14.279C157.118 14.2577 155.816 14.2577 154.514 14.279C151.216 14.3111 148.239 16.5841 147.31 19.7857C146.894 21.2263 147.022 22.699 147.022 24.1397C147.022 24.1717 147.054 24.1717 147.054 24.2038C153.329 24.2038 159.594 24.2038 165.847 24.2038ZM161.237 7.07562C161.237 6.96891 161.237 6.85152 161.237 6.72346C161.205 4.48239 159.636 2.5935 157.491 2.11327C155.282 1.63304 153.073 2.75357 152.113 4.77053C151.729 5.63494 151.665 6.53137 151.665 7.45981C151.729 10.8214 155.25 13.0945 158.324 11.7498C160.341 10.8534 161.237 9.22064 161.237 7.07562Z" fill="#16A34A"/>
<path d="M161.237 7.07562V6.72346C161.205 4.48239 159.636 2.5935 157.491 2.11327C155.282 1.63304 153.073 2.75357 152.113 4.77053C151.729 5.63494 151.665 6.53137 151.665 7.45981C151.729 10.8214 155.25 13.0945 158.324 11.7498C160.341 10.8534 161.237 9.22064 161.237 7.07562Z" fill="#16A34A"/>
<path d="M165.847 24.2038C165.847 23.1473 165.943 22.0908 165.847 21.0663C165.495 17.2885 162.23 14.3111 158.42 14.279C157.118 14.2577 155.816 14.2577 154.514 14.279C151.216 14.3111 148.239 16.5841 147.31 19.7857C146.894 21.2263 147.022 22.699 147.022 24.1397C147.022 24.1717 147.054 24.1717 147.054 24.2038H165.847Z" fill="#16A34A"/>
<path fill-rule="evenodd" clip-rule="evenodd" d="M189.859 12.6143C190.403 12.8704 191.011 13.0625 191.555 13.3506C194.885 15.1435 196.646 17.9608 196.806 21.7386C196.87 22.8911 196.838 24.0117 196.806 25.1322C196.806 25.7725 196.39 26.1887 195.749 26.1887C188.834 26.1887 181.919 26.1887 175.004 26.1887C174.331 26.1887 173.915 25.7725 173.947 25.1322C173.947 23.7235 173.851 22.3469 174.011 20.9702C174.395 17.3525 176.316 14.7273 179.614 13.1585C179.827 13.0518 180.041 12.9558 180.254 12.8704C180.478 12.8063 180.702 12.7423 180.958 12.6463C180.702 12.3581 180.414 12.102 180.19 11.8139C179.262 10.6933 178.749 9.38072 178.621 7.90802C178.493 6.05114 178.781 4.25829 179.998 2.72156C181.791 0.480491 184.16 -0.38392 186.977 0.256384C189.634 0.832658 191.619 3.04171 192.036 5.69897C192.356 7.77996 192.132 9.7649 190.819 11.5257C190.531 11.9099 190.179 12.2621 189.859 12.6143ZM194.789 24.2038C194.789 23.1473 194.853 22.0908 194.757 21.0663C194.405 17.2885 191.139 14.3111 187.329 14.279C186.049 14.2577 184.758 14.2577 183.456 14.279C180.126 14.3111 177.149 16.5841 176.22 19.7857C175.804 21.2263 175.932 22.699 175.932 24.1397C175.932 24.1717 175.964 24.1717 175.964 24.2038C182.239 24.2038 188.514 24.2038 194.789 24.2038ZM190.147 7.07562C190.147 6.96891 190.147 6.85152 190.147 6.72346C190.115 4.48239 188.546 2.5935 186.401 2.11327C184.224 1.63304 181.983 2.75357 181.054 4.77053C180.638 5.63494 180.574 6.53137 180.606 7.45981C180.67 10.8214 184.16 13.0945 187.265 11.7498C189.25 10.8534 190.147 9.22064 190.147 7.07562Z" fill="#16A34A"/>
<path d="M190.147 7.07562V6.72346C190.115 4.48239 188.546 2.5935 186.401 2.11327C184.224 1.63304 181.983 2.75357 181.054 4.77053C180.638 5.63494 180.574 6.53137 180.606 7.45981C180.67 10.8214 184.16 13.0945 187.265 11.7498C189.25 10.8534 190.147 9.22064 190.147 7.07562Z" fill="#16A34A"/>
<path d="M194.789 24.2038C194.789 23.1473 194.853 22.0908 194.757 21.0663C194.405 17.2885 191.139 14.3111 187.329 14.279C186.049 14.2577 184.758 14.2577 183.456 14.279C180.126 14.3111 177.149 16.5841 176.22 19.7857C175.804 21.2263 175.932 22.699 175.932 24.1397C175.932 24.1717 175.964 24.1717 175.964 24.2038H194.789Z" fill="#16A34A"/>
<path fill-rule="evenodd" clip-rule="evenodd" d="M218.768 12.6143C219.313 12.8704 219.921 13.0625 220.465 13.3506C223.795 15.1435 225.556 17.9608 225.748 21.7386C225.78 22.8911 225.748 24.0117 225.748 25.1322C225.748 25.7725 225.332 26.1887 224.659 26.1887C217.744 26.1887 210.829 26.1887 203.913 26.1887C203.273 26.1887 202.857 25.7725 202.857 25.1322C202.857 23.7235 202.793 22.3469 202.921 20.9702C203.305 17.3525 205.226 14.7273 208.524 13.1585C208.737 13.0518 208.961 12.9558 209.196 12.8704C209.42 12.8063 209.644 12.7423 209.868 12.6463C209.612 12.3581 209.356 12.102 209.1 11.8139C208.171 10.6933 207.659 9.38072 207.563 7.90802C207.435 6.05114 207.691 4.25829 208.908 2.72156C210.733 0.480491 213.07 -0.38392 215.887 0.256384C218.544 0.832658 220.561 3.04171 220.945 5.69897C221.266 7.77996 221.041 9.7649 219.729 11.5257C219.441 11.9099 219.089 12.2621 218.768 12.6143ZM223.699 24.2038C223.699 23.1473 223.795 22.0908 223.699 21.0663C223.315 17.2885 220.081 14.3111 216.271 14.279C214.969 14.2577 213.667 14.2577 212.365 14.279C209.036 14.3111 206.09 16.5841 205.162 19.7857C204.714 21.2263 204.874 22.699 204.842 24.1397C204.842 24.1717 204.874 24.1717 204.906 24.2038C211.159 24.2038 217.424 24.2038 223.699 24.2038ZM219.057 7.07562C219.057 6.96891 219.057 6.85152 219.057 6.72346C219.025 4.48239 217.456 2.5935 215.343 2.11327C213.134 1.63304 210.925 2.75357 209.964 4.77053C209.548 5.63494 209.516 6.53137 209.516 7.45981C209.58 10.8214 213.102 13.0945 216.175 11.7498C218.16 10.8534 219.057 9.22064 219.057 7.07562Z" fill="#16A34A"/>
<path d="M219.057 7.07562V6.72346C219.025 4.48239 217.456 2.5935 215.343 2.11327C213.134 1.63304 210.925 2.75357 209.964 4.77053C209.548 5.63494 209.516 6.53137 209.516 7.45981C209.58 10.8214 213.102 13.0945 216.175 11.7498C218.16 10.8534 219.057 9.22064 219.057 7.07562Z" fill="#16A34A"/>
<path d="M223.699 24.2038C223.699 23.1473 223.795 22.0908 223.699 21.0663C223.315 17.2885 220.081 14.3111 216.271 14.279C214.969 14.2577 213.667 14.2577 212.365 14.279C209.036 14.3111 206.09 16.5841 205.162 19.7857C204.714 21.2263 204.874 22.699 204.842 24.1397C204.842 24.1717 204.874 24.1717 204.906 24.2038H223.699Z" fill="#16A34A"/>
<path fill-rule="evenodd" clip-rule="evenodd" d="M247.678 12.6143C248.254 12.8704 248.831 13.0625 249.375 13.3506C252.737 15.1435 254.497 17.9608 254.657 21.7386C254.689 22.8911 254.657 24.0117 254.657 25.1322C254.657 25.7725 254.241 26.1887 253.569 26.1887C246.675 26.1887 239.77 26.1887 232.855 26.1887C232.183 26.1887 231.767 25.7725 231.767 25.1322C231.799 23.7235 231.703 22.3469 231.863 20.9702C232.247 17.3525 234.168 14.7273 237.433 13.1585C237.668 13.0518 237.892 12.9558 238.106 12.8704C238.33 12.8063 238.554 12.7423 238.81 12.6463C238.522 12.3581 238.266 12.102 238.042 11.8139C237.081 10.6933 236.569 9.38072 236.473 7.90802C236.345 6.05114 236.633 4.25829 237.817 2.72156C239.642 0.480491 242.011 -0.38392 244.829 0.256384C247.454 0.832658 249.471 3.04171 249.887 5.69897C250.207 7.77996 249.951 9.7649 248.671 11.5257C248.35 11.9099 247.998 12.2621 247.678 12.6143ZM252.609 24.2038C252.609 23.1473 252.705 22.0908 252.609 21.0663C252.256 17.2885 248.991 14.3111 245.181 14.279C243.879 14.2577 242.577 14.2577 241.275 14.279C237.978 14.3111 235 16.5841 234.072 19.7857C233.656 21.2263 233.784 22.699 233.784 24.1397C233.784 24.1717 233.816 24.1717 233.816 24.2038C240.091 24.2038 246.355 24.2038 252.609 24.2038ZM247.998 7.07562C247.998 6.96891 247.998 6.85152 247.998 6.72346C247.966 4.48239 246.398 2.5935 244.253 2.11327C242.043 1.63304 239.834 2.75357 238.874 4.77053C238.49 5.63494 238.426 6.53137 238.426 7.45981C238.49 10.8214 242.012 13.0945 245.085 11.7498C247.102 10.8534 247.998 9.22064 247.998 7.07562Z" fill="#16A34A"/>
<path d="M247.998 7.07562V6.72346C247.966 4.48239 246.398 2.5935 244.253 2.11327C242.043 1.63304 239.834 2.75357 238.874 4.77053C238.49 5.63494 238.426 6.53137 238.426 7.45981C238.49 10.8214 242.012 13.0945 245.085 11.7498C247.102 10.8534 247.998 9.22064 247.998 7.07562Z" fill="#16A34A"/>
<path d="M252.609 24.2038C252.609 23.1473 252.705 22.0908 252.609 21.0663C252.256 17.2885 248.991 14.3111 245.181 14.279C243.879 14.2577 242.577 14.2577 241.275 14.279C237.978 14.3111 235 16.5841 234.072 19.7857C233.656 21.2263 233.784 22.699 233.784 24.1397C233.784 24.1717 233.816 24.1717 233.816 24.2038H252.609Z" fill="#16A34A"/>
<path fill-rule="evenodd" clip-rule="evenodd" d="M276.62 12.6143C277.164 12.8704 277.772 13.0625 278.317 13.3506C281.646 15.1435 283.407 17.9608 283.567 21.7386C283.631 22.8911 283.599 24.0117 283.567 25.1322C283.567 25.7725 283.151 26.1887 282.511 26.1887C275.595 26.1887 268.68 26.1887 261.765 26.1887C261.092 26.1887 260.676 25.7725 260.708 25.1322C260.708 23.7235 260.612 22.3469 260.772 20.9702C261.156 17.3525 263.077 14.7273 266.375 13.1585C266.588 13.0518 266.802 12.9558 267.015 12.8704C267.239 12.8063 267.463 12.7423 267.72 12.6463C267.463 12.3581 267.175 12.102 266.951 11.8139C266.023 10.6933 265.511 9.38072 265.382 7.90802C265.254 6.05114 265.543 4.25829 266.759 2.72156C268.552 0.480491 270.921 -0.38392 273.738 0.256384C276.396 0.832658 278.381 3.04171 278.797 5.69897C279.117 7.77996 278.893 9.7649 277.58 11.5257C277.292 11.9099 276.94 12.2621 276.62 12.6143ZM281.55 24.2038C281.55 23.1473 281.614 22.0908 281.518 21.0663C281.166 17.2885 277.9 14.3111 274.091 14.279C272.81 14.2577 271.519 14.2577 270.217 14.279C266.887 14.3111 263.91 16.5841 262.981 19.7857C262.565 21.2263 262.693 22.699 262.693 24.1397C262.693 24.1717 262.725 24.1717 262.725 24.2038C269 24.2038 275.275 24.2038 281.55 24.2038ZM276.908 7.07562C276.908 6.96891 276.908 6.85152 276.908 6.72346C276.876 4.48239 275.307 2.5935 273.162 2.11327C270.985 1.63304 268.744 2.75357 267.816 4.77053C267.399 5.63494 267.335 6.53137 267.367 7.45981C267.431 10.8214 270.921 13.0945 274.027 11.7498C276.012 10.8534 276.908 9.22064 276.908 7.07562Z" fill="#808285"/>
<path d="M281.55 24.2034C275.275 24.2034 269 24.2034 262.725 24.2034C262.725 24.1714 262.693 24.1714 262.693 24.1394C262.693 22.6987 262.565 21.226 262.982 19.7853C263.91 16.5838 266.887 14.3107 270.217 14.2787C271.519 14.2574 272.81 14.2574 274.091 14.2787C277.901 14.3107 281.166 17.2881 281.518 21.0659C281.614 22.0904 281.55 23.1469 281.55 24.2034Z" fill="white"/>
<path d="M276.908 7.07584C276.908 9.22086 276.012 10.8536 274.027 11.7501C270.921 13.0947 267.431 10.8216 267.367 7.46002C267.335 6.53158 267.399 5.63516 267.816 4.77075C268.744 2.75379 270.985 1.63326 273.162 2.11348C275.307 2.59371 276.876 4.48261 276.908 6.72367C276.908 6.85173 276.908 6.96912 276.908 7.07584Z" fill="white"/>
</svg>
