<svg width="36" height="36" viewBox="0 0 36 36" fill="none" xmlns="http://www.w3.org/2000/svg">
<rect width="36" height="36" transform="translate(0 0.000213623)" fill="#0369A1" fill-opacity="0.1"/>
<path d="M25.7073 18.7085C25.8947 18.5206 26.0001 18.2658 26.0001 18.0002C26.0001 17.7346 25.8947 17.4798 25.7073 17.292L19.7073 11.2814C19.5187 11.0989 19.2661 10.998 19.0039 11.0003C18.7417 11.0025 18.4909 11.1079 18.3055 11.2936C18.12 11.4794 18.0149 11.7306 18.0126 11.9933C18.0103 12.2559 18.1111 12.509 18.2933 12.6979L22.5863 16.9985H11.0003C10.7351 16.9985 10.4807 17.104 10.2932 17.2919C10.1056 17.4797 10.0003 17.7345 10.0003 18.0002C10.0003 18.2659 10.1056 18.5207 10.2932 18.7086C10.4807 18.8964 10.7351 19.002 11.0003 19.002H22.5863L18.2933 23.3025C18.1111 23.4915 18.0103 23.7445 18.0126 24.0072C18.0149 24.2698 18.12 24.5211 18.3055 24.7068C18.4909 24.8925 18.7417 24.9979 19.0039 25.0002C19.2661 25.0025 19.5187 24.9015 19.7073 24.719L25.7073 18.7085Z" fill="#0369A1"/>
</svg>
