<svg width="24" height="25" viewBox="0 0 24 25" fill="none" xmlns="http://www.w3.org/2000/svg">
<path d="M19.7073 13.468C19.8947 13.2802 20.0001 13.0254 20.0001 12.7598C20.0001 12.4941 19.8947 12.2394 19.7073 12.0515L13.7073 6.04097C13.5187 5.85849 13.2661 5.75752 13.0039 5.7598C12.7417 5.76209 12.4909 5.86744 12.3055 6.05317C12.12 6.23891 12.0149 6.49016 12.0126 6.75282C12.0103 7.01548 12.1111 7.26852 12.2933 7.45746L16.5863 11.758L5.00027 11.758C4.73506 11.758 4.4807 11.8635 4.29317 12.0514C4.10563 12.2393 4.00027 12.4941 4.00027 12.7598C4.00027 13.0254 4.10563 13.2802 4.29317 13.4681C4.4807 13.656 4.73506 13.7615 5.00027 13.7615L16.5863 13.7615L12.2933 18.0621C12.1111 18.251 12.0103 18.5041 12.0126 18.7667C12.0149 19.0294 12.12 19.2806 12.3055 19.4664C12.4909 19.6521 12.7417 19.7574 13.0039 19.7597C13.2661 19.762 13.5187 19.661 13.7073 19.4786L19.7073 13.468Z" fill="#626F7B"/>
</svg>
