<svg width="32" height="32" viewBox="0 0 32 32" fill="none" xmlns="http://www.w3.org/2000/svg">
<path fill-rule="evenodd" clip-rule="evenodd" d="M19.8263 5.15964C19.8263 7.27273 18.1133 8.98573 16.0002 8.98573C13.8871 8.98573 12.1741 7.27273 12.1741 5.15964C12.1741 3.04655 13.8871 1.33356 16.0002 1.33356C18.1133 1.33356 19.8263 3.04655 19.8263 5.15964ZM16.9946 27.6417L19.1888 23.9712L17.7011 21.7394L21.1019 18.551L23.3599 23.2762C23.5608 23.5971 23.6621 23.9704 23.6507 24.3489C23.6394 24.7273 23.516 25.0939 23.2961 25.4022L20.1077 29.866C19.8128 30.2788 19.3659 30.5576 18.8654 30.6409C18.3649 30.7243 17.8519 30.6054 17.439 30.3104C17.0262 30.0155 16.7474 29.5686 16.6641 29.0681C16.5807 28.5677 16.6996 28.0546 16.9946 27.6417ZM12.8117 23.9712L14.2994 21.7394L10.8987 18.551L8.63873 23.2762C8.43777 23.5971 8.33656 23.9704 8.34791 24.3489C8.35926 24.7273 8.48267 25.0939 8.7025 25.4022L11.8909 29.866C12.037 30.0704 12.2218 30.244 12.435 30.377C12.6481 30.51 12.8854 30.5996 13.1332 30.6409C13.381 30.6822 13.6345 30.6742 13.8793 30.6175C14.124 30.5608 14.3552 30.4565 14.5596 30.3104C14.764 30.1644 14.9377 29.9795 15.0706 29.7664C15.2036 29.5532 15.2933 29.3159 15.3345 29.0681C15.3758 28.8203 15.3679 28.5668 15.3112 28.3221C15.2545 28.0773 15.1501 27.8461 15.0041 27.6417L12.8117 23.9712ZM26.8413 6.11658C26.8394 6.5198 26.6842 6.90722 26.4072 7.20021L21.1017 13.4495V16.6379H10.8988V13.4495L5.59328 7.20021C5.32049 6.90643 5.16892 6.52034 5.16901 6.11944C5.16909 5.71854 5.32082 5.33251 5.59374 5.03885C5.86666 4.74519 6.24055 4.56563 6.64037 4.53623C7.04019 4.50682 7.43633 4.62975 7.74928 4.88032L7.75438 4.87458L13.4495 10.2611H18.551L24.2461 4.87203L24.2512 4.87777C24.5639 4.62325 24.9618 4.49725 25.364 4.52534C25.7663 4.55343 26.1428 4.7335 26.4171 5.02902C26.6915 5.32453 26.8431 5.71335 26.8413 6.11658Z" fill="#6D28D9"/>
</svg>
