<svg width="702" height="393" viewBox="0 0 702 393" fill="none" xmlns="http://www.w3.org/2000/svg">
<path opacity="0.9" d="M559.314 175.097C559.314 175.097 571.642 201.407 653.618 196.035C771.059 188.286 618.273 393 618.273 393H122.471C122.471 393 -13.5986 261.28 70.3585 177.902C133.86 114.779 213.241 246.636 267.317 160.505C373.386 -8.45619 559.297 175.029 559.297 175.029" fill="#FFEDD7"/>
<path opacity="0.1" d="M627.331 33.7243C671.839 120.084 541.336 278.354 651.045 251.743C766.2 223.816 650.174 393 650.174 393H155.53C155.53 393 -90.3154 329.955 36.1754 276.68C123.246 239.974 205.501 176.98 264.299 120.46C408.221 -17.8936 600.63 -17.8936 627.246 33.7243" fill="#FFB860"/>
<g clip-path="url(#clip0_1911_7953)">
<path d="M496.132 384.561C495.509 376.889 495.093 370.855 495.182 369.542C495.479 365.323 499.281 362.638 501.851 363.08C504.42 363.523 507.688 368.539 507.48 371.696V384.06L496.132 384.561Z" fill="#C79C80"/>
<path d="M458.57 384.65C457.976 376.963 457.575 370.929 457.679 369.616C458.006 365.382 462.001 362.682 464.689 363.11C467.378 363.538 470.764 368.539 470.527 371.696V384.074L458.57 384.65Z" fill="#C79C80"/>
<path d="M437.168 391.923C437.155 392.02 437.164 392.119 437.192 392.213C437.22 392.307 437.267 392.394 437.331 392.469C437.393 392.547 437.471 392.611 437.562 392.654C437.652 392.698 437.751 392.72 437.851 392.72L472.487 392.852C472.584 392.851 472.68 392.829 472.768 392.789C472.856 392.749 472.935 392.691 472.999 392.619C473.063 392.546 473.112 392.462 473.141 392.37C473.171 392.278 473.181 392.181 473.17 392.085C472.977 389.297 472.235 379.56 471.477 377.981H470.571C470.571 377.981 469.65 383.558 466.041 383.543C462.432 383.528 459.729 381.669 457.946 377.007C457.946 377.007 455.719 377.701 452.926 378.704C451.857 379.102 450.684 379.545 449.525 380.002L448.708 380.327C447.535 380.814 446.406 381.301 445.396 381.802C444.404 382.271 443.455 382.824 442.559 383.455C439.722 385.481 437.789 388.522 437.168 391.938" fill="#0D0D0D"/>
<path d="M473.987 392.056C473.974 392.155 473.982 392.257 474.01 392.353C474.038 392.45 474.086 392.539 474.151 392.616C474.215 392.691 474.295 392.75 474.385 392.791C474.474 392.832 474.572 392.853 474.671 392.852L509.307 392.985C509.404 392.986 509.5 392.966 509.589 392.927C509.677 392.889 509.757 392.833 509.823 392.762C509.889 392.691 509.939 392.607 509.97 392.516C510.001 392.425 510.013 392.329 510.005 392.233C509.812 389.43 509.069 379.707 508.297 378.114H507.406C507.406 378.114 506.47 383.691 502.861 383.676C499.252 383.661 496.549 381.787 494.766 377.14C494.766 377.14 492.553 377.819 489.761 378.837C488.677 379.22 487.518 379.663 486.36 380.12L485.528 380.46C484.369 380.932 483.226 381.433 482.216 381.935C481.224 382.395 480.279 382.948 479.394 383.587C476.547 385.6 474.606 388.64 473.987 392.056Z" fill="#0D0D0D"/>
<path d="M494.974 53.9379L494.439 43.0352L478.146 41.3828L476.794 56.2542L476.928 62.0375L477.849 64.1473L484.726 65.1947L494.959 61.5212L494.974 53.9379Z" fill="#C79C80"/>
<path d="M446.629 193.977C477.062 196.603 517.535 189.772 517.535 189.772C517.535 189.994 515.411 244.95 511.178 295.407C509.04 321.546 509.04 347.814 511.178 373.953H489.954C489.954 373.953 482.527 294.285 481.532 286.997C480.537 279.709 481.532 234.446 481.532 232.41C481.532 230.374 482.022 228.412 478.369 228.736C475.324 228.957 474.136 275.504 474.136 279.709C474.136 283.914 476.794 374.042 476.794 374.042H455.555L446.644 274.457L446.629 193.977Z" fill="#002D74"/>
<path d="M441.52 116.758C440.622 117.502 439.566 118.033 438.431 118.309C437.295 118.585 436.111 118.6 434.97 118.352C423.979 116.021 382.555 108.511 383.713 102.447C384.946 95.9117 441.208 106.873 442.158 109.632C442.916 111.801 444.46 114.25 441.52 116.758Z" fill="#C79C80"/>
<path d="M370.211 97.741C370.508 94.7903 372.781 94.6575 377.46 94.6723C379.123 94.6723 384.158 94.6723 386.965 96.3837L387.44 96.664C389.98 98.4786 391.183 99.9835 391.064 103.082C390.871 108.024 382.331 106.283 379.435 105.59C376.931 104.868 374.642 103.552 372.766 101.754C371.117 100.279 370.107 98.6409 370.211 97.741Z" fill="#C79C80"/>
<path d="M462.595 98.1542C462.595 98.1542 456.431 105.811 450.565 112.598C447.706 116.109 444.578 119.394 441.208 122.424C436.871 125.669 400.749 113.483 396.769 112.096C396.714 112.103 396.659 112.103 396.605 112.096H396.397L399.472 98.9067L435.519 103.642L455.436 62.1855L462.595 98.1542Z" fill="#FF991C"/>
<path d="M498.613 57.9364L486.27 202.342H476.379L470.616 58.1282L476.794 56.2545C476.794 56.2545 475.725 64.1328 484.221 64.1328C492.716 64.1328 494.989 54.248 494.989 54.248L498.613 57.9364Z" fill="#F2FBFE"/>
<path d="M480.656 148.581C480.656 148.581 486.27 127.159 489.568 62.4361C492.199 60.2376 494.082 57.285 494.959 53.9824C500.9 58.7478 507.643 59.4559 509.47 61.3591C512.307 64.3098 514.282 79.3434 515.634 98.9064C515.634 99.2015 515.634 99.5113 515.708 99.8359C516.347 109.337 516.852 119.827 517.194 130.508C517.342 134.005 517.446 137.516 517.565 141.027C518.53 173.072 518.59 204.083 518.59 211.047V212.522C515.159 215.34 490.073 216.402 485.275 214.396C482.097 213.068 481.265 199.923 481.265 199.923C479.438 166.831 480.567 148.625 480.567 148.625" fill="#FF991C"/>
<path d="M548.473 121.287C542.384 126.761 524.605 140.895 512.827 149.319L509.158 143.712C521.04 130.036 542.74 109.957 544.908 110.458C547.389 111.019 550.627 111.049 551.117 114.884C551.242 116.078 551.071 117.283 550.621 118.396C550.171 119.51 549.454 120.497 548.532 121.273" fill="#C79C80"/>
<path d="M512.768 149.275C512.768 149.275 508.951 151.724 507.822 153.819C506.693 155.914 503.752 162.921 500.96 162.405C498.168 161.889 495.019 153.701 500.678 148.109C503.188 145.645 510.881 142.458 510.881 142.458" fill="#C79C80"/>
<path d="M485.112 48.804C496.192 49.6745 506.084 39.4799 507.213 26.0101C508.341 12.5403 500.291 0.929403 489.226 0.0442017C478.161 -0.841 468.239 9.36832 467.096 22.8381C465.952 36.308 474.017 47.9188 485.082 48.804" fill="#C79C80"/>
<path d="M554.667 112.303C555.098 120.476 547.047 127.233 538.136 134.683C529.224 142.134 522.823 146.766 522.823 146.766L521.887 145.734L518.1 141.573L517.624 141.057L513.689 136.719L512.53 135.48L513.525 134.447L517.253 130.538L517.922 129.83L524.665 122.792L532.893 114.619L528.259 110.399L525.378 107.788L515.649 98.936L515.055 98.3901L510.837 94.5395L508.817 92.6953L509.485 61.3887C509.485 61.3887 529.997 77.4551 543.364 92.8576C544.419 94.0526 545.429 95.2919 546.335 96.4722C547.82 98.2868 549.097 100.087 550.256 101.842C552.81 105.737 554.444 109.352 554.607 112.347" fill="#FF991C"/>
<path d="M480.537 148.493C480.537 148.493 479.186 209.926 475.131 214.632C471.076 219.338 445.574 211.991 445.574 211.991C444.431 123.958 455.436 62.097 455.436 62.097C458.767 59.7214 462.718 58.3534 466.814 58.1579C467.881 58.0698 468.954 58.0698 470.022 58.1579H470.527L476.794 56.2104C476.794 56.2104 476.943 60.6365 479.171 62.6282C479.171 62.6282 479.498 75.2718 478.087 93.4037C475.324 129.033 480.537 148.448 480.537 148.448" fill="#FF991C"/>
<path d="M477.077 53.5105C474.393 54.9639 472.14 57.0901 470.541 59.6774C468.744 62.6353 467.581 65.9303 467.125 69.3556C467.114 69.5102 467.072 69.661 467.001 69.7992C466.931 69.9374 466.833 70.0602 466.714 70.1605C466.595 70.2608 466.458 70.3365 466.309 70.3832C466.16 70.43 466.003 70.4467 465.848 70.4326C465.538 70.3991 465.253 70.2457 465.056 70.0055C464.859 69.7653 464.764 69.4577 464.794 69.1491C464.794 68.7507 465.774 59.3381 472.814 53.54C474.191 52.463 475.686 51.5425 477.27 50.7959L477.077 53.5105Z" fill="#0D0D0D"/>
<path d="M506.024 102.639C505.988 102.921 505.847 103.179 505.631 103.364C505.414 103.549 505.136 103.648 504.851 103.643H504.702C504.548 103.624 504.399 103.576 504.264 103.5C504.13 103.423 504.012 103.321 503.917 103.198C503.823 103.076 503.755 102.936 503.716 102.787C503.677 102.637 503.669 102.482 503.692 102.329C503.692 101.99 508.059 69.8721 497.751 56.8301C496.979 55.782 496.041 54.8652 494.974 54.1155V53.9384L494.825 51.2681C496.665 52.33 498.288 53.7263 499.608 55.3843C510.539 69.1344 506.232 101.282 506.024 102.595" fill="#0D0D0D"/>
<path d="M472.71 107.389C472.55 107.653 472.291 107.842 471.991 107.917C471.69 107.992 471.372 107.945 471.106 107.788L464.838 104.085L465.135 103.185C466.739 98.2424 469.814 87.1478 470.066 79.24C470.215 75.9795 469.858 73.3387 468.744 71.7453C468.487 71.3621 468.135 71.0519 467.721 70.845C467.307 70.638 466.846 70.5416 466.383 70.5651C465.874 70.558 465.372 70.6722 464.917 70.8981C464.462 71.124 464.068 71.455 463.769 71.8634C462.479 73.8873 461.775 76.2252 461.734 78.6204C460.976 86.5429 462.892 98.0948 464.006 103.17L464.17 103.893L458.838 107.862C458.642 108.013 458.402 108.095 458.154 108.098C457.969 108.104 457.785 108.064 457.619 107.981C457.453 107.899 457.31 107.777 457.204 107.625C457.107 107.504 457.035 107.365 456.995 107.215C456.954 107.065 456.944 106.909 456.967 106.756C456.989 106.602 457.042 106.455 457.124 106.323C457.206 106.191 457.314 106.077 457.442 105.988L461.556 102.904C460.887 99.7177 458.585 87.4281 459.372 78.4286C459.461 75.5656 460.345 72.7827 461.927 70.388C462.448 69.7065 463.122 69.1554 463.896 68.7789C464.67 68.4023 465.521 68.2107 466.383 68.2193C467.218 68.199 468.045 68.3836 468.791 68.7567C469.537 69.1299 470.179 69.68 470.66 70.3585C472.146 72.3502 472.576 75.655 472.428 79.4318C472.146 88.1511 468.804 99.4374 467.66 103.037L472.309 105.781C472.446 105.859 472.565 105.963 472.66 106.088C472.755 106.213 472.823 106.355 472.861 106.507C472.898 106.659 472.904 106.817 472.879 106.971C472.853 107.125 472.795 107.273 472.71 107.404" fill="white"/>
<path d="M460.62 106.667C460.62 106.951 460.563 107.232 460.453 107.495C460.343 107.757 460.182 107.995 459.979 108.195C459.777 108.395 459.536 108.554 459.271 108.661C459.006 108.768 458.722 108.823 458.436 108.821C458.15 108.823 457.867 108.768 457.602 108.661C457.337 108.554 457.096 108.395 456.894 108.195C456.691 107.995 456.53 107.757 456.42 107.495C456.31 107.232 456.253 106.951 456.253 106.667C456.253 106.092 456.483 105.54 456.893 105.133C457.302 104.727 457.857 104.498 458.436 104.498C459.016 104.498 459.571 104.727 459.98 105.133C460.39 105.54 460.62 106.092 460.62 106.667Z" fill="#0D0D0D"/>
<path d="M473.482 106.593C473.482 107.164 473.254 107.712 472.847 108.116C472.44 108.52 471.889 108.747 471.314 108.747C471.028 108.749 470.744 108.695 470.479 108.587C470.214 108.48 469.974 108.322 469.771 108.121C469.568 107.921 469.407 107.683 469.297 107.421C469.187 107.158 469.13 106.877 469.13 106.593C469.13 106.018 469.36 105.466 469.77 105.06C470.179 104.653 470.735 104.424 471.314 104.424C471.6 104.424 471.883 104.48 472.147 104.59C472.411 104.699 472.651 104.859 472.852 105.06C473.054 105.262 473.213 105.501 473.321 105.764C473.429 106.027 473.484 106.309 473.482 106.593Z" fill="#0D0D0D"/>
<path d="M509.292 106.932C509.288 108.448 508.679 109.9 507.599 110.97C506.519 112.041 505.055 112.642 503.529 112.642C502.005 112.642 500.543 112.04 499.465 110.97C498.387 109.899 497.781 108.447 497.781 106.932C497.781 105.417 498.386 103.963 499.464 102.89C500.541 101.817 502.003 101.212 503.529 101.208C505.058 101.208 506.523 101.811 507.604 102.885C508.685 103.958 509.292 105.414 509.292 106.932Z" fill="#0D0D0D"/>
<path d="M506.737 106.932C506.733 107.775 506.394 108.582 505.793 109.176C505.191 109.77 504.378 110.104 503.529 110.104C502.682 110.104 501.87 109.77 501.271 109.175C500.672 108.58 500.336 107.773 500.336 106.932C500.336 106.091 500.672 105.284 501.271 104.689C501.87 104.094 502.682 103.76 503.529 103.76C504.378 103.76 505.191 104.094 505.793 104.688C506.394 105.283 506.733 106.09 506.737 106.932Z" fill="white"/>
<path d="M470.066 79.24C470.215 75.9795 469.858 73.3387 468.744 71.7453C468.487 71.3621 468.135 71.0519 467.721 70.845C467.307 70.638 466.846 70.5416 466.383 70.5651C465.874 70.558 465.371 70.6722 464.917 70.8981C464.462 71.124 464.068 71.455 463.769 71.8634C462.479 73.8873 461.775 76.2252 461.734 78.6204L459.372 78.4286C459.461 75.5656 460.345 72.7827 461.927 70.388C462.448 69.7065 463.122 69.1554 463.896 68.7789C464.67 68.4023 465.521 68.2107 466.383 68.2193C467.218 68.199 468.045 68.3836 468.791 68.7567C469.537 69.1299 470.179 69.68 470.66 70.3585C472.146 72.3502 472.576 75.655 472.428 79.4318L470.066 79.24Z" fill="#241F21"/>
</g>
<g clip-path="url(#clip1_1911_7953)">
<path d="M382.302 164.291C382.302 164.291 381.474 127.884 380.588 122.005C379.703 116.125 376.334 111.013 372.225 110.419C368.116 109.826 365.038 113.692 364.458 117.95L369.394 169.519" fill="#B48552"/>
<path d="M360.305 237.191C357.852 237.061 357.648 234.903 357.576 230.429C357.576 228.821 357.46 223.999 358.882 221.218C358.969 221.059 359.042 220.885 359.129 220.755C360.581 218.22 361.902 216.99 364.545 216.932C368.77 216.83 367.449 225.099 366.868 227.909C366.314 230.316 365.233 232.571 363.703 234.512C362.41 236.178 361.075 237.235 360.305 237.191Z" fill="#C79C80"/>
<path d="M380.211 158.151C381.073 159.086 381.702 160.21 382.048 161.433C382.393 162.656 382.445 163.942 382.2 165.189C379.921 177.296 372.821 222.84 365.968 221.914C358.578 220.914 369.089 159.02 372.182 157.818C374.592 156.891 377.293 155.081 380.211 158.151Z" fill="#B48552"/>
<path d="M365.968 387.454C366.36 378.765 366.592 372.016 366.461 370.554C366.04 365.818 362.106 363.023 359.594 363.66C357.082 364.297 353.888 370.105 354.193 373.624L354.541 387.526L365.968 387.454Z" fill="#B48552"/>
<path d="M382.955 390.886C383.071 391.045 384.61 393 382.345 393H351.855C351.769 392.997 351.685 392.976 351.607 392.938C351.53 392.901 351.461 392.848 351.405 392.782C351.349 392.717 351.308 392.641 351.283 392.559C351.258 392.477 351.25 392.39 351.26 392.305C351.434 389.771 352.117 380.937 352.799 379.489H353.583C353.583 379.489 357.01 382.819 360.175 382.819C363.34 382.819 365.764 382.124 366.447 379.228C366.447 379.228 375.695 380.763 382.911 390.886" fill="#241F21"/>
<path d="M326.258 387.454C326.65 378.765 326.883 372.016 326.752 370.554C326.345 365.818 322.396 363.023 319.885 363.66C317.373 364.297 314.179 370.105 314.498 373.624L314.832 387.526L326.258 387.454Z" fill="#B48552"/>
<path d="M343.26 390.886C343.362 391.045 344.901 393 342.65 393H312.16C312.074 392.997 311.989 392.975 311.911 392.938C311.833 392.901 311.763 392.848 311.706 392.783C311.649 392.718 311.606 392.642 311.579 392.56C311.552 392.478 311.543 392.391 311.55 392.305C311.739 389.771 312.422 380.937 313.09 379.489H313.888C313.888 379.489 317.3 382.819 320.48 382.819C323.659 382.819 326.055 382.124 326.737 379.228C326.737 379.228 336 380.763 343.216 390.886" fill="#241F21"/>
<path d="M374.737 192.457C373.735 167.534 356.951 148.52 336.523 148.723C316.095 148.926 303.594 168.07 302.607 192.675H302.505V193.79C302.505 194.326 302.505 194.861 302.505 195.383H302.607L307.819 372.305H331.921L337.728 222.565L339.267 219.031L347.616 270.282L349.068 372.305H373.155L380.225 271.136L374.737 192.457Z" fill="#002D74"/>
<path d="M291.79 161.25C291.79 161.25 293.663 121.874 294.767 116.038C295.87 110.202 299.413 105.206 303.478 104.786C307.543 104.366 310.505 108.305 310.97 112.577L304.204 163.943" fill="#B48552"/>
<path d="M310.258 233.209C312.727 233.209 313.003 231.008 313.162 226.533C313.249 224.94 313.496 220.132 312.16 217.294C312.16 217.134 312.015 216.946 311.943 216.816C310.491 214.238 309.3 212.964 306.658 212.819C302.447 212.587 303.507 220.885 303.972 223.723C304.431 226.141 305.423 228.426 306.875 230.414C308.11 232.137 309.402 233.223 310.171 233.209" fill="#B48552"/>
<path d="M294.316 155.602C293.397 156.486 292.697 157.573 292.274 158.774C291.85 159.976 291.714 161.261 291.877 162.524C293.721 174.703 299.5 220.523 306.396 219.814C313.815 219.075 305.423 156.862 302.374 155.558C299.993 154.545 297.351 152.662 294.331 155.558" fill="#B48552"/>
<path d="M336.001 68.5238C346.295 68.2921 354.469 56.7647 354.28 42.7609C354.091 28.7571 345.569 17.6062 335.304 17.8234C325.039 18.0407 316.792 29.6115 316.981 43.5719C317.169 57.5322 325.678 68.7121 336.001 68.5238Z" fill="#B48552"/>
<path d="M343.26 83.8452C343.983 76.5788 343.983 69.2588 343.26 61.9924C343.057 56.1997 339.049 51.7538 335.405 51.8552C331.761 51.9566 326.897 58.2272 327.057 62.5717L327.507 88.0015L343.26 83.8452Z" fill="#B48552"/>
<path d="M308.763 168.158C301.852 154.038 301.387 119.977 301.387 119.977C300.937 98.2546 303.943 80.7173 323.427 74.9391C327.144 73.8385 330.178 84.9893 335.231 84.888C340.734 84.7721 343.71 73.5343 347.688 74.6349C366.563 79.8194 372.472 96.4733 372.908 117.805C372.908 117.805 374.026 153.444 367.623 168.418C363.064 179.062 314.164 179.178 308.763 168.158Z" fill="#D77600"/>
<path d="M320.857 131.63L324.748 98.5393C325.75 93.7604 321.046 85.2886 314.948 83.6956C308.85 82.1026 301.692 85.3465 300.342 91.7764C299.834 94.2093 292.473 126.894 292.473 126.894L320.857 131.63Z" fill="#D77600"/>
<path d="M383.115 126.938L375.855 96.5266C375.26 91.1394 368.131 84.1158 361.931 84.8398C358.627 85.336 355.638 87.0761 353.581 89.7023C351.523 92.3285 350.552 95.6413 350.868 98.9595C351.173 101.711 355.136 132.991 355.136 132.991L383.115 126.938Z" fill="#D77600"/>
</g>
<defs>
<clipPath id="clip0_1911_7953">
<rect width="184.469" height="393" fill="white" transform="translate(370.197)"/>
</clipPath>
<clipPath id="clip1_1911_7953">
<rect width="91.7891" height="375.177" fill="white" transform="matrix(-1 0 0 1 383.565 17.8232)"/>
</clipPath>
</defs>
</svg>
