<svg width="44" height="44" viewBox="0 0 44 44" fill="none" xmlns="http://www.w3.org/2000/svg">
<rect width="44" height="44" rx="22" fill="#00AEEF" fill-opacity="0.1"/>
<path d="M21.9999 8.66663C17.1501 8.66663 12.1338 12.3724 12.1338 18.5735C12.1338 25.0701 21.3063 34.3173 21.6966 34.7076C21.7768 34.7883 21.8862 34.8333 21.9999 34.8333C22.1136 34.8333 22.223 34.7883 22.3032 34.7076C22.6935 34.3173 31.866 25.0701 31.866 18.5735C31.866 12.3724 26.8497 8.66663 21.9999 8.66663ZM21.9999 21.9644C20.1048 21.9644 18.5682 20.4279 18.5682 18.5327C18.5682 16.6376 20.1048 15.1011 21.9999 15.1011C23.8951 15.1011 25.4316 16.6376 25.4316 18.5327C25.4316 20.4279 23.8951 21.9644 21.9999 21.9644Z" fill="#0369A1"/>
</svg>
