<svg width="1440" height="531" viewBox="0 0 1440 531" fill="none" xmlns="http://www.w3.org/2000/svg">
<rect width="1440" height="531" fill="#40AE49" fill-opacity="0.05"/>
<g opacity="0.1" clip-path="url(#clip0_2501_7863)">
<g style="mix-blend-mode:multiply" opacity="0.5">
<path d="M841.863 473.82C821.847 480.574 799.95 469.758 793.149 449.794L644.23 10.8305C637.472 -9.17681 648.25 -31.0651 668.266 -37.8625C688.281 -44.6598 710.221 -33.8439 716.979 -13.8366L865.898 425.127C872.699 445.091 861.878 467.022 841.863 473.82V473.82Z" fill="#46B348"/>
</g>
<g style="mix-blend-mode:multiply" opacity="0.5">
<path d="M990.953 349.843C980.603 368.268 957.081 374.938 938.647 364.635L533.973 138.356C515.54 128.053 508.91 104.54 519.218 86.0716C529.525 67.6461 553.047 61.0197 571.481 71.3226L976.155 297.602C994.588 307.905 1001.26 331.417 990.953 349.843V349.843Z" fill="#11326C"/>
</g>
<g style="mix-blend-mode:multiply" opacity="0.5">
<path d="M513.297 600.787C502.168 604.544 489.993 598.528 486.212 587.424L403.41 343.272C399.653 332.144 405.645 319.97 416.774 316.189C427.903 312.408 440.102 318.424 443.86 329.552L526.661 573.704C530.442 584.809 524.426 597.007 513.297 600.787V600.787Z" fill="#46B348"/>
</g>
<g style="mix-blend-mode:multiply" opacity="0.5">
<path d="M596.194 531.831C590.439 542.08 577.36 545.789 567.111 540.058L342.105 414.202C331.856 408.471 328.17 395.393 333.901 385.121C339.632 374.873 352.711 371.187 362.96 376.918L587.966 502.775C598.215 508.505 601.925 521.583 596.194 531.831V531.831Z" fill="#11326C"/>
</g>
<g style="mix-blend-mode:multiply" opacity="0.5">
<path d="M174.887 279.145C157.862 284.892 139.235 275.69 133.451 258.705L6.7764 -114.755C1.02839 -131.776 10.1961 -150.398 27.2218 -156.181C44.2476 -161.964 62.9104 -152.763 68.6584 -135.741L195.333 237.718C201.117 254.704 191.913 273.362 174.887 279.145V279.145Z" fill="#46B348"/>
</g>
<g style="mix-blend-mode:multiply" opacity="0.5">
<path d="M301.707 173.669C292.903 189.345 272.894 195.019 257.215 186.253L-87.0107 -6.25947C-102.69 -15.0249 -108.329 -35.0291 -99.5617 -50.7414C-90.7942 -66.4174 -70.7853 -72.0549 -55.1056 -63.2895L289.12 129.223C304.799 137.989 310.475 157.993 301.707 173.669V173.669Z" fill="#11326C"/>
</g>
<g style="mix-blend-mode:multiply" opacity="0.5">
<path d="M1341.28 670.348C1326.12 675.466 1309.54 667.27 1304.39 652.142L1191.62 319.517C1186.5 304.356 1194.66 287.77 1209.82 282.62C1224.98 277.469 1241.59 285.665 1246.71 300.825L1359.48 633.451C1364.63 648.579 1356.43 665.197 1341.28 670.348V670.348Z" fill="#46B348"/>
</g>
<g style="mix-blend-mode:multiply" opacity="0.5">
<path d="M1454.18 576.404C1446.34 590.366 1428.53 595.42 1414.57 587.613L1108.12 416.149C1094.17 408.342 1089.15 390.525 1096.95 376.531C1104.76 362.569 1122.57 357.548 1136.53 365.355L1442.97 536.818C1456.93 544.625 1461.98 562.442 1454.18 576.404V576.404Z" fill="#11326C"/>
</g>
<g style="mix-blend-mode:multiply" opacity="0.5">
<path d="M1244.28 193.348C1229.12 198.466 1212.54 190.27 1207.39 175.142L1094.62 -157.483C1089.5 -172.644 1097.66 -189.23 1112.82 -194.38C1127.98 -199.531 1144.59 -191.335 1149.71 -176.175L1262.48 156.451C1267.63 171.579 1259.43 188.197 1244.28 193.348V193.348Z" fill="#46B348"/>
</g>
<g style="mix-blend-mode:multiply" opacity="0.5">
<path d="M1357.18 99.4042C1349.34 113.366 1331.53 118.42 1317.57 110.613L1011.12 -60.8507C997.166 -68.6578 992.146 -86.4747 999.951 -100.469C1007.76 -114.431 1025.57 -119.452 1039.53 -111.645L1345.97 59.8183C1359.93 67.6254 1364.98 85.4423 1357.18 99.4042V99.4042Z" fill="#11326C"/>
</g>
</g>
<defs>
<clipPath id="clip0_2501_7863">
<rect width="1440" height="531" fill="white"/>
</clipPath>
</defs>
</svg>
