<svg width="1440" height="531" viewBox="0 0 1440 531" fill="none" xmlns="http://www.w3.org/2000/svg">
<g clip-path="url(#clip0_1874_6938)">
<g style="mix-blend-mode:hard-light" opacity="0.1">
<path d="M719.412 56.686C688.974 56.686 664 31.6721 664 1.18616C664 -29.2998 688.974 -54.314 719.412 -54.314C751.02 -54.314 771.702 -33.99 774.824 0.404419C775.994 14.084 771.312 27.3728 761.556 37.5347C751.02 50.0418 735.411 56.686 719.412 56.686ZM719.412 -42.9796C694.828 -42.9796 674.926 -23.0464 674.926 1.5769C674.926 26.2002 694.828 46.1334 719.412 46.1334C732.289 46.1334 745.167 40.6614 753.751 31.2811C761.166 23.0733 765.068 12.9115 763.897 2.35865C761.556 -26.9548 745.557 -42.9796 719.412 -42.9796Z" fill="#00AEEF"/>
</g>
<g style="mix-blend-mode:hard-light" opacity="0.1">
<path d="M959.811 423C894.549 423 841 369.367 841 304C841 238.634 894.549 185 959.811 185C1027.58 185 1071.93 228.578 1078.62 302.324C1081.13 331.655 1071.09 360.148 1050.17 381.937C1027.58 408.754 994.115 423 959.811 423ZM959.811 209.303C907.099 209.303 864.428 252.042 864.428 304.838C864.428 357.634 907.099 400.374 959.811 400.374C987.422 400.374 1015.03 388.641 1033.44 368.528C1049.34 350.929 1057.7 329.141 1055.19 306.514C1050.17 243.662 1015.87 209.303 959.811 209.303Z" fill="#00AEEF"/>
</g>
<g style="mix-blend-mode:hard-light" opacity="0.1">
<path d="M398.31 670C332.774 670 279 616.367 279 551C279 485.634 332.774 432 398.31 432C466.367 432 510.899 475.578 517.62 549.324C520.141 578.655 510.058 607.148 489.053 628.937C466.367 655.754 432.759 670 398.31 670ZM398.31 456.303C345.377 456.303 302.526 499.042 302.526 551.838C302.526 604.634 345.377 647.374 398.31 647.374C426.037 647.374 453.764 635.641 472.249 615.528C488.213 597.929 496.615 576.141 494.094 553.514C489.053 490.662 454.604 456.303 398.31 456.303Z" fill="#00AEEF"/>
</g>
<g style="mix-blend-mode:hard-light" opacity="0.1">
<path d="M139.854 217C89.3989 217 48 175.761 48 125.5C48 75.2396 89.3989 34 139.854 34C192.249 34 226.533 67.5071 231.708 124.211C233.648 146.764 225.886 168.673 209.714 185.426C192.249 206.046 166.375 217 139.854 217ZM139.854 52.6864C99.1018 52.6864 66.1123 85.5493 66.1123 126.144C66.1123 166.74 99.1018 199.602 139.854 199.602C161.2 199.602 182.546 190.581 196.777 175.116C209.067 161.584 215.536 144.831 213.596 127.433C209.715 79.1057 183.193 52.6864 139.854 52.6864Z" fill="#00AEEF"/>
</g>
<g style="mix-blend-mode:hard-light" opacity="0.1">
<path d="M660.448 492C642.625 492 628 477.578 628 460C628 442.423 642.625 428 660.448 428C678.958 428 691.069 439.718 692.897 459.549C693.582 467.437 690.84 475.099 685.127 480.958C678.958 488.169 669.817 492 660.448 492ZM660.448 434.535C646.052 434.535 634.398 446.028 634.398 460.225C634.398 474.423 646.052 485.916 660.448 485.916C667.989 485.916 675.53 482.761 680.557 477.352C684.899 472.62 687.184 466.761 686.498 460.676C685.127 443.775 675.758 434.535 660.448 434.535Z" fill="#00AEEF"/>
</g>
<g style="mix-blend-mode:hard-light" opacity="0.1">
<path d="M1393.83 605C1334.05 605 1285 556.099 1285 496.5C1285 436.902 1334.05 388 1393.83 388C1455.9 388 1496.52 427.732 1502.65 494.972C1504.95 521.715 1495.76 547.694 1476.6 567.56C1455.9 592.011 1425.25 605 1393.83 605ZM1393.83 410.158C1345.54 410.158 1306.46 449.127 1306.46 497.264C1306.46 545.402 1345.54 584.37 1393.83 584.37C1419.12 584.37 1444.41 573.673 1461.27 555.334C1475.83 539.289 1483.49 519.423 1481.19 498.792C1476.6 441.486 1445.17 410.158 1393.83 410.158Z" fill="#00AEEF"/>
</g>
<g style="mix-blend-mode:hard-light" opacity="0.1">
<path d="M1317.86 150C1269.6 150 1230 110.338 1230 62.0002C1230 13.6621 1269.6 -26 1317.86 -26C1367.98 -26 1400.77 6.2254 1405.72 60.7607C1407.58 82.4509 1400.15 103.521 1384.68 119.634C1367.98 139.465 1343.23 150 1317.86 150ZM1317.86 -8.02837C1278.88 -8.02837 1247.32 23.5774 1247.32 62.6198C1247.32 101.662 1278.88 133.268 1317.86 133.268C1338.28 133.268 1358.7 124.592 1372.31 109.718C1384.06 96.7042 1390.25 80.5917 1388.4 63.8593C1384.68 17.3803 1359.32 -8.02837 1317.86 -8.02837Z" fill="#00AEEF"/>
</g>
</g>
<defs>
<clipPath id="clip0_1874_6938">
<rect width="1440" height="531" fill="white"/>
</clipPath>
</defs>
</svg>
