<svg width="32" height="32" viewBox="0 0 32 32" fill="none" xmlns="http://www.w3.org/2000/svg">
<path fill-rule="evenodd" clip-rule="evenodd" d="M26.2758 7.60947C26.7965 7.08877 26.7965 6.24455 26.2758 5.72385C25.7551 5.20315 24.9109 5.20315 24.3902 5.72385L15.9997 14.1144L7.60915 5.72385C7.08845 5.20315 6.24423 5.20315 5.72353 5.72385C5.20283 6.24455 5.20283 7.08877 5.72353 7.60947L14.1141 16L5.72353 24.3905C5.20283 24.9112 5.20283 25.7554 5.72353 26.2761C6.24423 26.7968 7.08845 26.7968 7.60915 26.2761L15.9997 17.8856L24.3902 26.2761C24.9109 26.7968 25.7551 26.7968 26.2758 26.2761C26.7965 25.7554 26.7965 24.9112 26.2758 24.3905L17.8853 16L26.2758 7.60947Z" fill="#626F7B"/>
</svg>
