<svg width="44" height="44" viewBox="0 0 44 44" fill="none" xmlns="http://www.w3.org/2000/svg">
<rect width="44" height="44" rx="22" fill="#40AE49" fill-opacity="0.1"/>
<path d="M33.4783 17.3043H26.6957V10.5217C26.6957 10.2087 26.487 10 26.1739 10H17.8261C17.513 10 17.3043 10.2087 17.3043 10.5217V17.3043H10.5217C10.2087 17.3043 10 17.513 10 17.8261V26.1739C10 26.487 10.2087 26.6957 10.5217 26.6957H17.3043V33.4783C17.3043 33.7913 17.513 34 17.8261 34H26.1739C26.487 34 26.6957 33.7913 26.6957 33.4783V26.6957H33.4783C33.7913 26.6957 34 26.487 34 26.1739V17.8261C34 17.513 33.7913 17.3043 33.4783 17.3043Z" fill="#15803D"/>
</svg>
