<svg width="956" height="311" viewBox="0 0 956 311" fill="none" xmlns="http://www.w3.org/2000/svg">
<path fill-rule="evenodd" clip-rule="evenodd" d="M-242 110.575L-182 124.922C-122 139.269 -2 167.962 118 201.438C238 234.914 358 273.172 478 249.261C598 225.35 733.68 171.588 838 101.011C930.5 38.4302 1124 -35.0698 1198 81.8816V311.43H1138C1078 311.43 958 311.43 838 311.43C718 311.43 598 311.43 478 311.43C358 311.43 238 311.43 118 311.43C-2 311.43 -122 311.43 -182 311.43H-242V110.575Z" fill="#FFB860" fill-opacity="0.07"/>
<path fill-rule="evenodd" clip-rule="evenodd" d="M1198 176.408C1089.5 208.388 957.999 -30.822 837.999 3.35093C717.999 37.5239 598 122.956 478 122.956C358 122.956 238 37.5239 118 46.0671C-2 54.6104 -122 157.129 -182 208.389L-242 259.648L-242 310.907L-182 310.907C-122 310.907 -1.99997 310.907 118 310.907C238 310.907 358 310.907 478 310.907C598 310.907 717.999 310.907 837.999 310.907C957.999 310.907 1078 310.907 1138 310.907L1198 310.907L1198 176.408Z" fill="#FFB860" fill-opacity="0.07"/>
</svg>
