<svg width="1440" height="491" viewBox="0 0 1440 491" fill="none" xmlns="http://www.w3.org/2000/svg">
<g clip-path="url(#clip0_2501_8149)">
<rect width="1440" height="491" transform="translate(0 0.000244141)" fill="#2998C6" fill-opacity="0.05"/>
<g clip-path="url(#clip1_2501_8149)">
<path opacity="0.07" d="M719.412 56.6863C688.974 56.6863 664 31.6724 664 1.1864C664 -29.2996 688.974 -54.3137 719.412 -54.3137C751.02 -54.3137 771.702 -33.9897 774.824 0.404663C775.994 14.0843 771.311 27.373 761.556 37.535C751.02 50.042 735.411 56.6863 719.412 56.6863ZM719.412 -42.9793C694.828 -42.9793 674.926 -23.0461 674.926 1.57715C674.926 26.2004 694.828 46.1336 719.412 46.1336C732.289 46.1336 745.167 40.6616 753.751 31.2813C761.166 23.0736 765.068 12.9117 763.897 2.35889C761.556 -26.9545 745.557 -42.9793 719.412 -42.9793Z" fill="#2998C6"/>
<path opacity="0.07" d="M959.811 423C894.549 423 841 369.367 841 304.001C841 238.634 894.549 185 959.811 185C1027.58 185 1071.93 228.578 1078.62 302.324C1081.13 331.655 1071.09 360.148 1050.17 381.937C1027.58 408.754 994.115 423 959.811 423ZM959.811 209.303C907.099 209.303 864.428 252.042 864.428 304.838C864.428 357.634 907.099 400.374 959.811 400.374C987.422 400.374 1015.03 388.641 1033.44 368.528C1049.34 350.93 1057.7 329.141 1055.19 306.514C1050.17 243.662 1015.87 209.303 959.811 209.303Z" fill="#2998C6"/>
<path opacity="0.07" d="M398.31 670C332.774 670 279 616.367 279 551.001C279 485.634 332.774 432 398.31 432C466.367 432 510.899 475.578 517.62 549.324C520.141 578.655 510.058 607.148 489.053 628.937C466.367 655.754 432.759 670 398.31 670ZM398.31 456.303C345.377 456.303 302.526 499.042 302.526 551.838C302.526 604.634 345.377 647.374 398.31 647.374C426.037 647.374 453.764 635.641 472.249 615.528C488.213 597.93 496.615 576.141 494.094 553.514C489.053 490.662 454.604 456.303 398.31 456.303Z" fill="#2998C6"/>
<path opacity="0.07" d="M139.854 217C89.3989 217 48 175.761 48 125.5C48 75.2398 89.3989 34.0002 139.854 34.0002C192.249 34.0002 226.533 67.5073 231.708 124.212C233.648 146.764 225.886 168.673 209.714 185.426C192.249 206.046 166.375 217 139.854 217ZM139.854 52.6867C99.1018 52.6867 66.1123 85.5495 66.1123 126.145C66.1123 166.74 99.1018 199.603 139.854 199.603C161.2 199.603 182.546 190.581 196.777 175.116C209.067 161.585 215.536 144.831 213.596 127.433C209.715 79.1059 183.193 52.6867 139.854 52.6867Z" fill="#2998C6"/>
<path opacity="0.07" d="M660.448 492C642.625 492 628 477.578 628 460C628 442.423 642.625 428 660.448 428C678.958 428 691.069 439.719 692.897 459.55C693.582 467.437 690.84 475.099 685.127 480.958C678.958 488.169 669.817 492 660.448 492ZM660.448 434.535C646.052 434.535 634.398 446.028 634.398 460.226C634.398 474.423 646.052 485.916 660.448 485.916C667.989 485.916 675.53 482.761 680.557 477.352C684.899 472.62 687.184 466.761 686.498 460.676C685.127 443.775 675.758 434.535 660.448 434.535Z" fill="#2998C6"/>
<path opacity="0.07" d="M1393.83 605C1334.05 605 1285 556.099 1285 496.5C1285 436.902 1334.05 388 1393.83 388C1455.9 388 1496.52 427.733 1502.65 494.972C1504.95 521.715 1495.76 547.694 1476.6 567.56C1455.9 592.011 1425.25 605 1393.83 605ZM1393.83 410.158C1345.54 410.158 1306.46 449.127 1306.46 497.264C1306.46 545.402 1345.54 584.37 1393.83 584.37C1419.12 584.37 1444.41 573.673 1461.27 555.335C1475.83 539.289 1483.49 519.423 1481.19 498.793C1476.6 441.486 1445.17 410.158 1393.83 410.158Z" fill="#2998C6"/>
<path opacity="0.07" d="M1317.86 150C1269.6 150 1230 110.339 1230 62.0004C1230 13.6623 1269.6 -25.9998 1317.86 -25.9998C1367.98 -25.9998 1400.77 6.22564 1405.72 60.7609C1407.58 82.4511 1400.15 103.522 1384.68 119.634C1367.98 139.465 1343.23 150 1317.86 150ZM1317.86 -8.02813C1278.88 -8.02813 1247.32 23.5777 1247.32 62.62C1247.32 101.662 1278.88 133.268 1317.86 133.268C1338.28 133.268 1358.7 124.592 1372.31 109.719C1384.06 96.7044 1390.25 80.5919 1388.4 63.8595C1384.68 17.3806 1359.32 -8.02813 1317.86 -8.02813Z" fill="#2998C6"/>
</g>
</g>
<defs>
<clipPath id="clip0_2501_8149">
<rect width="1440" height="491" fill="white" transform="translate(0 0.000244141)"/>
</clipPath>
<clipPath id="clip1_2501_8149">
<rect width="1440" height="492" fill="white" transform="translate(0 0.000244141)"/>
</clipPath>
</defs>
</svg>
