<svg width="44" height="44" viewBox="0 0 44 44" fill="none" xmlns="http://www.w3.org/2000/svg">
<rect width="44" height="44" rx="22" fill="#40AE49" fill-opacity="0.1"/>
<path fill-rule="evenodd" clip-rule="evenodd" d="M8.66669 22.0003C8.66669 14.6487 14.6484 8.66699 22 8.66699C29.3517 8.66699 35.3334 14.6487 35.3334 22.0003C35.3334 29.352 29.3517 35.3337 22 35.3337C14.6484 35.3337 8.66669 29.352 8.66669 22.0003ZM25.2042 27.7253C26.1159 27.0728 26.5975 26.082 26.5975 24.8612C26.5975 22.6937 24.61 21.9062 22.8334 21.337V17.0437C24.0259 17.1395 25.1809 17.4278 25.7825 17.7403L26.5225 18.1245L27.2909 16.6453L26.5509 16.2612C25.795 15.8678 24.3542 15.4795 22.8334 15.3728V12.8337H21.1667V15.3828C20.295 15.4637 19.4692 15.6737 18.8109 16.0728C17.8584 16.6512 17.355 17.5453 17.355 18.6587C17.355 21.0412 19.3142 21.9378 21.1667 22.5528V26.9253C20.0092 26.8495 18.7642 26.5803 17.7 26.2178L16.9109 25.9487L16.3725 27.5262L17.1609 27.7953C18.3434 28.1987 19.7759 28.5053 21.1667 28.5803V31.167H22.8334V28.547C23.7334 28.4395 24.5584 28.187 25.2042 27.7253ZM19.6757 17.4987C19.2232 17.7737 19.0215 18.132 19.0215 18.6603C19.0215 19.7412 19.8148 20.282 21.1665 20.7828V17.0578C20.589 17.1237 20.0673 17.2612 19.6757 17.4987ZM24.2342 26.3686C24.7092 26.0286 24.9309 25.5494 24.9309 24.8603C24.9309 24.0186 24.2475 23.5894 22.8334 23.0969V26.8703C23.385 26.7853 23.8709 26.6286 24.2342 26.3686Z" fill="#15803D"/>
</svg>
