<svg width="44" height="44" viewBox="0 0 44 44" fill="none" xmlns="http://www.w3.org/2000/svg">
<rect width="44" height="44" rx="22" fill="#00AEEF" fill-opacity="0.1"/>
<path fill-rule="evenodd" clip-rule="evenodd" d="M8.66663 22.0003C8.66663 14.6487 14.6483 8.66699 22 8.66699C29.3516 8.66699 35.3333 14.6487 35.3333 22.0003C35.3333 29.352 29.3516 35.3337 22 35.3337C14.6483 35.3337 8.66663 29.352 8.66663 22.0003ZM25.2041 27.7253C26.1158 27.0728 26.5975 26.082 26.5975 24.8612C26.5975 22.6937 24.61 21.9062 22.8333 21.337V17.0437C24.0258 17.1395 25.1808 17.4278 25.7825 17.7403L26.5225 18.1245L27.2908 16.6453L26.5508 16.2612C25.795 15.8678 24.3541 15.4795 22.8333 15.3728V12.8337H21.1666V15.3828C20.295 15.4637 19.4691 15.6737 18.8108 16.0728C17.8583 16.6512 17.355 17.5453 17.355 18.6587C17.355 21.0412 19.3141 21.9378 21.1666 22.5528V26.9253C20.0091 26.8495 18.7641 26.5803 17.7 26.2178L16.9108 25.9487L16.3725 27.5262L17.1608 27.7953C18.3433 28.1987 19.7758 28.5053 21.1666 28.5803V31.167H22.8333V28.547C23.7333 28.4395 24.5583 28.187 25.2041 27.7253ZM19.6756 17.4987C19.2231 17.7737 19.0214 18.132 19.0214 18.6603C19.0214 19.7412 19.8148 20.282 21.1664 20.7828V17.0578C20.5889 17.1237 20.0673 17.2612 19.6756 17.4987ZM24.2341 26.3686C24.7091 26.0286 24.9308 25.5494 24.9308 24.8603C24.9308 24.0186 24.2475 23.5894 22.8333 23.0969V26.8703C23.385 26.7853 23.8708 26.6286 24.2341 26.3686Z" fill="#0369A1"/>
</svg>
