<svg width="24" height="24" viewBox="0 0 24 24" fill="none" xmlns="http://www.w3.org/2000/svg">
<path fill-rule="evenodd" clip-rule="evenodd" d="M4.50001 3.66667H19.5C20.1631 3.66667 20.7989 3.93006 21.2678 4.39891C21.7366 4.86775 22 5.50363 22 6.16667V7.00001C22.0008 7.15028 21.9629 7.29822 21.8899 7.42958C21.8169 7.56094 21.7114 7.67129 21.5834 7.75001L12.4167 12.75C12.2887 12.8174 12.144 12.8463 12 12.8333C11.856 12.8463 11.7113 12.8174 11.5833 12.75L2.41668 7.75001C2.28867 7.67129 2.18309 7.56094 2.11011 7.42958C2.03713 7.29822 1.99922 7.15028 2.00001 7.00001V6.16667C2.00001 5.50363 2.2634 4.86775 2.73225 4.39891C3.20109 3.93006 3.83697 3.66667 4.50001 3.66667ZM12 14.5C12.4147 14.5182 12.8241 14.4012 13.1667 14.1667L22 9.41666V17.8333C22 18.4964 21.7366 19.1323 21.2678 19.6011C20.7989 20.0699 20.163 20.3333 19.5 20.3333H4.5C3.83696 20.3333 3.20107 20.0699 2.73223 19.6011C2.26339 19.1323 2 18.4964 2 17.8333V9.41666L10.8333 14.1667C11.1759 14.4012 11.5853 14.5182 12 14.5Z" fill="#00538B"/>
</svg>
