<svg width="33" height="32" viewBox="0 0 33 32" fill="none" xmlns="http://www.w3.org/2000/svg">
<g clip-path="url(#clip0_1825_5928)">
<path fill-rule="evenodd" clip-rule="evenodd" d="M16.2 6.4C15.5671 6.4 14.9485 6.21232 14.4222 5.8607C13.896 5.50908 13.4858 5.00931 13.2436 4.42459C13.0014 3.83986 12.9381 3.19645 13.0615 2.57571C13.185 1.95497 13.4898 1.38479 13.9373 0.93726C14.3848 0.489732 14.955 0.184961 15.5758 0.0614885C16.1965 -0.0619842 16.8399 0.00138651 17.4246 0.243587C18.0094 0.485787 18.5091 0.895939 18.8607 1.42218C19.2124 1.94841 19.4 2.5671 19.4 3.2C19.399 4.04838 19.0616 4.86172 18.4617 5.46162C17.8618 6.06152 17.0484 6.39898 16.2 6.4ZM13 27.2V30.6286C13 30.9923 13.1724 31.3411 13.4793 31.5983C13.7862 31.8555 14.2023 32 14.6363 32H15.5633C15.9567 31.9986 16.3364 31.879 16.6336 31.663C16.9309 31.447 17.1258 31.1488 17.1832 30.8226L17.8 27.2H13ZM24.0755 18.2293C23.8861 19.0589 23.4863 19.8319 22.9109 20.481L24.1746 24.7721C24.2032 24.869 24.2078 24.9709 24.1881 25.0698C24.1683 25.1686 24.1248 25.2618 24.0608 25.342C23.9968 25.4222 23.9142 25.4872 23.8194 25.532C23.7246 25.5767 23.6202 25.6 23.5143 25.6H10.486C10.3843 25.6 10.2838 25.5785 10.192 25.5371C10.1001 25.4957 10.019 25.4353 9.95471 25.3605C9.89039 25.2856 9.84439 25.1981 9.82005 25.1042C9.7957 25.0103 9.79363 24.9125 9.81396 24.8178L11.4672 16.9753L15.2639 18.8879C15.421 18.9808 15.5964 19.042 15.7794 19.0677C15.9623 19.0933 16.1489 19.083 16.3275 19.0372C16.5899 18.9716 16.8259 18.8333 17.0053 18.6398C17.1847 18.4463 17.2994 18.2063 17.3348 17.9506C17.3702 17.6948 17.3246 17.4349 17.204 17.2038C17.0833 16.9728 16.893 16.7811 16.6573 16.6533L12.5554 14.3758C12.1229 14.1354 11.7975 13.7533 11.6403 13.301C11.4831 12.8488 11.505 12.3576 11.7017 11.9196L12.9284 9.18767C13.0867 8.83529 13.3504 8.53487 13.6867 8.32372C14.023 8.11257 14.4172 8.00001 14.8203 8H17.6742C18.1231 7.99998 18.5597 8.13955 18.9173 8.39741C19.275 8.65528 19.5341 9.01728 19.6552 9.42821L20.4691 12.1895C21.3154 12.4602 22.0793 12.9235 22.6942 13.5391C23.3092 14.1546 23.7565 14.9038 23.9972 15.7212C24.2379 16.5387 24.2648 17.3997 24.0755 18.2293Z" fill="#0369A1"/>
</g>
<defs>
<clipPath id="clip0_1825_5928">
<rect width="32" height="32" fill="white" transform="translate(0.333374)"/>
</clipPath>
</defs>
</svg>
