<svg width="32" height="32" viewBox="0 0 32 32" fill="none" xmlns="http://www.w3.org/2000/svg">
<g clip-path="url(#clip0_2501_8127)">
<path fill-rule="evenodd" clip-rule="evenodd" d="M15.8667 6.40024C15.2338 6.40024 14.6151 6.21257 14.0888 5.86095C13.5626 5.50933 13.1525 5.00956 12.9103 4.42483C12.6681 3.84011 12.6047 3.1967 12.7282 2.57596C12.8516 1.95522 13.1564 1.38503 13.6039 0.937504C14.0515 0.489976 14.6216 0.185205 15.2424 0.0617327C15.8631 -0.06174 16.5065 0.00163065 17.0913 0.243831C17.676 0.486031 18.1757 0.896183 18.5274 1.42242C18.879 1.94866 19.0667 2.56734 19.0667 3.20024C19.0657 4.04863 18.7282 4.86197 18.1283 5.46186C17.5284 6.06176 16.715 6.39923 15.8667 6.40024ZM12.6667 27.2002V30.6288C12.6667 30.9925 12.8391 31.3414 13.1459 31.5986C13.4528 31.8558 13.869 32.0002 14.3029 32.0002H15.2299C15.6233 31.9988 16.003 31.8793 16.3003 31.6633C16.5975 31.4472 16.7924 31.1491 16.8498 30.8229L17.4667 27.2002H12.6667ZM23.7421 18.2295C23.5528 19.0591 23.153 19.8321 22.5775 20.4813L23.8413 24.7724C23.8698 24.8693 23.8744 24.9712 23.8547 25.07C23.8349 25.1689 23.7914 25.2621 23.7274 25.3422C23.6635 25.4224 23.5808 25.4875 23.486 25.5322C23.3912 25.577 23.2868 25.6003 23.1809 25.6002H10.1526C10.0509 25.6003 9.95046 25.5788 9.85858 25.5374C9.7667 25.4959 9.68566 25.4356 9.62134 25.3607C9.55702 25.2858 9.51102 25.1983 9.48667 25.1044C9.46233 25.0106 9.46025 24.9127 9.48059 24.818L11.1338 16.9756L14.9306 18.8881C15.0876 18.981 15.263 19.0422 15.446 19.0679C15.629 19.0936 15.8155 19.0832 15.9941 19.0374C16.2565 18.9719 16.4925 18.8335 16.6719 18.64C16.8513 18.4465 16.966 18.2066 17.0014 17.9508C17.0368 17.6951 16.9913 17.4351 16.8706 17.2041C16.7499 16.973 16.5596 16.7814 16.3239 16.6536L12.222 14.376C11.7895 14.1356 11.4641 13.7535 11.3069 13.3013C11.1498 12.8491 11.1716 12.3578 11.3683 11.9198L12.5951 9.18792C12.7533 8.83553 13.017 8.53511 13.3533 8.32396C13.6897 8.11282 14.0838 8.00025 14.4869 8.00024H17.3408C17.7897 8.00022 18.2263 8.13979 18.584 8.39766C18.9416 8.65552 19.2007 9.01753 19.3218 9.42845L20.1357 12.1897C20.9821 12.4604 21.746 12.9238 22.3609 13.5393C22.9758 14.1549 23.4231 14.904 23.6638 15.7215C23.9045 16.5389 23.9314 17.3999 23.7421 18.2295Z" fill="#ED7D31"/>
</g>
<defs>
<clipPath id="clip0_2501_8127">
<rect width="32" height="32" fill="white" transform="translate(0 0.000244141)"/>
</clipPath>
</defs>
</svg>
