<svg width="1440" height="311" viewBox="0 0 1440 311" fill="none" xmlns="http://www.w3.org/2000/svg">
<path fill-rule="evenodd" clip-rule="evenodd" d="M1440 134.5C1331.5 102.519 1200 341.729 1080 307.557C959.999 273.384 840 187.951 720 187.951C600 187.951 480 273.384 360 264.84C240 256.297 120 153.778 60 102.519L2.26991e-05 51.2594L2.71804e-05 5.72167e-05L60 6.2462e-05C120 6.77074e-05 240 7.81981e-05 360 8.86889e-05C480 9.91796e-05 600 0.00010967 720 0.000120161C840 0.000130652 959.999 0.000141142 1080 0.000151633C1200 0.000162124 1320 0.000172615 1380 0.00017786L1440 0.000183105L1440 134.5Z" fill="#FFB860" fill-opacity="0.07"/>
<path fill-rule="evenodd" clip-rule="evenodd" d="M0 200.855L60 186.508C120 172.162 240 143.468 360 109.992C480 76.5163 600 38.2582 720 62.1695C840 86.0809 975.68 139.843 1080 210.42C1172.5 273 1366 346.5 1440 229.549V0H1380C1320 0 1200 0 1080 0C960 0 840 0 720 0C600 0 480 0 360 0C240 0 120 0 60 0H0V200.855Z" fill="#FFB860" fill-opacity="0.07"/>
</svg>
