<svg width="32" height="32" viewBox="0 0 32 32" fill="none" xmlns="http://www.w3.org/2000/svg">
<path d="M16 2.66688C11.1502 2.66688 6.13388 6.37268 6.13388 12.5737C6.13388 19.0704 15.3064 28.3175 15.6967 28.7079C15.7769 28.7885 15.8863 28.8335 16 28.8335C16.1137 28.8335 16.2231 28.7885 16.3033 28.7079C16.6936 28.3175 25.8661 19.0704 25.8661 12.5737C25.8661 6.37268 20.8498 2.66688 16 2.66688ZM16 15.9647C14.1048 15.9647 12.5683 14.4282 12.5683 12.533C12.5683 10.6378 14.1048 9.1013 16 9.1013C17.8952 9.1013 19.4317 10.6378 19.4317 12.533C19.4317 14.4282 17.8952 15.9647 16 15.9647Z" fill="#808285"/>
</svg>
