<svg width="44" height="44" viewBox="0 0 44 44" fill="none" xmlns="http://www.w3.org/2000/svg">
<rect width="44" height="44" rx="22" fill="#40AE49" fill-opacity="0.1"/>
<path d="M22 8.66699C17.1501 8.66699 12.1339 12.3728 12.1339 18.5739C12.1339 25.0705 21.3063 34.3176 21.6967 34.708C21.7769 34.7886 21.8863 34.8337 22 34.8337C22.1136 34.8337 22.223 34.7886 22.3032 34.708C22.6936 34.3176 31.8661 25.0705 31.8661 18.5739C31.8661 12.3728 26.8498 8.66699 22 8.66699ZM22 21.9648C20.1048 21.9648 18.5683 20.4283 18.5683 18.5331C18.5683 16.638 20.1048 15.1014 22 15.1014C23.8951 15.1014 25.4317 16.638 25.4317 18.5331C25.4317 20.4283 23.8951 21.9648 22 21.9648Z" fill="#15803D"/>
</svg>
