<svg width="182" height="51" viewBox="0 0 182 51" fill="none" xmlns="http://www.w3.org/2000/svg">
<g clip-path="url(#clip0_2009_6146)">
<path d="M57.6296 36.4573C57.3638 33.938 56.512 31.4158 55.1513 29.2588C53.7992 27.0876 52.027 25.3072 50.2233 23.7465C49.7631 23.35 49.3028 22.9648 48.8398 22.5882C49.3257 21.8549 49.7802 21.0903 50.189 20.2885C50.3319 19.9947 50.4777 19.7008 50.6206 19.3698C50.7006 19.1958 50.7407 19.0874 50.7978 18.9476L50.9865 18.4711C51.2152 17.8434 51.4124 17.2014 51.5553 16.5395C51.8526 15.2242 51.9784 13.8575 51.9155 12.5051C51.8812 11.829 51.804 11.1585 51.6868 10.4994C51.5668 9.81463 51.4095 9.21832 51.2409 8.60204C50.8979 7.37233 50.4548 6.13692 49.8174 4.93575C49.1771 3.74313 48.3052 2.56478 47.1161 1.64892C45.9155 0.733062 44.4977 0.15102 42.9627 0.0197755C42.5768 -0.0116091 42.1881 -0.0116091 41.7965 0.0226286C41.4191 0.0540132 40.9675 0.133901 40.6273 0.230908C39.8584 0.442041 39.1238 0.810097 38.4978 1.29799C37.2343 2.27661 36.4797 3.64327 36.0766 4.95001C35.9737 5.28383 35.8908 5.60053 35.8193 5.96003L35.7793 6.17401L35.7336 6.44792C35.705 6.62196 35.6879 6.79315 35.6707 6.96719C35.6078 7.6548 35.6221 8.32529 35.685 8.97866C35.7536 9.62917 35.8422 10.2654 35.9423 10.896C36.048 11.5237 36.2052 12.1456 36.3996 12.7391C36.7912 13.9346 37.2972 15.0787 37.906 16.1771C38.2119 16.725 38.5435 17.2613 38.9151 17.7835C39.2924 18.3199 39.6955 18.8106 40.1128 19.2757C40.9446 20.2058 41.8336 21.0418 42.734 21.8264C42.8112 21.8949 42.8913 21.9576 42.9684 22.0232C42.6797 22.3599 42.3824 22.6909 42.0737 23.0161C41.9279 23.1731 41.745 23.3471 41.542 23.544L40.9303 24.126L39.6783 25.3044C36.3167 28.4628 32.9351 31.6212 29.6221 34.9252C29.4135 35.1363 29.2048 35.3503 28.9961 35.5614C27.747 34.5371 26.4892 33.6184 25.2629 32.7054C23.4021 31.3359 21.5926 30.0035 19.929 28.5826C19.0972 27.8722 18.3054 27.1418 17.5679 26.3829C17.1248 25.9206 16.676 25.4328 16.2358 24.9363C16.5217 24.7337 16.8104 24.5283 17.0962 24.3143C17.5936 23.9406 18.0881 23.5468 18.5769 23.1217C18.8085 22.922 19.0858 22.6652 19.3144 22.4455L19.6546 22.1088C19.7775 21.9833 19.9004 21.8549 20.0148 21.7265C20.9466 20.6937 21.6841 19.5838 22.3044 18.4112C22.919 17.2357 23.4164 15.9917 23.7394 14.6621C24.0624 13.3326 24.2282 11.9117 24.0481 10.3938L24.0024 10.0743L23.9766 9.91734L23.9566 9.81178L23.9166 9.60064L23.8451 9.28109C23.7594 8.93015 23.6565 8.57922 23.5364 8.22828C23.2934 7.5264 22.9619 6.83024 22.5331 6.17116C21.687 4.8473 20.3721 3.69748 18.8285 3.08406C17.2792 2.45636 15.5784 2.35365 14.0234 2.69603C13.8233 2.73882 13.6489 2.78162 13.4202 2.8501L13.1601 2.92999L13.0572 2.96422L12.8771 3.02985C12.4969 3.16965 12.1225 3.33799 11.7623 3.532C11.0448 3.92573 10.3931 4.42789 9.83854 4.9871C8.72659 6.11695 8.00339 7.42369 7.49458 8.69905C7.24018 9.34101 7.03722 9.98296 6.86857 10.6192C6.79139 10.9188 6.69992 11.3125 6.64561 11.5636C6.57415 11.9088 6.51412 12.2427 6.46553 12.585C6.06534 15.3241 6.54556 18.1658 7.55175 20.6024C8.0577 21.8235 8.66942 22.9477 9.34688 24.0033C9.1182 24.1574 8.88952 24.3143 8.66084 24.4741C6.6942 25.8465 4.66182 27.4499 3.0382 29.5983C2.2321 30.6683 1.54607 31.8666 1.05155 33.1362C0.551312 34.403 0.242595 35.7326 0.0939533 37.0479C-0.0546881 38.3632 -0.0289617 39.67 0.142548 40.9282C0.311199 42.1864 0.617057 43.4019 1.07156 44.5517C1.34597 45.245 2.04058 45.7243 2.82953 45.6901C3.82142 45.6444 4.59036 44.8056 4.54462 43.8127V43.787C4.44457 41.5901 4.31594 39.5159 4.55605 37.5672C4.78759 35.6156 5.48221 33.8552 6.6599 32.3231C7.83188 30.7853 9.45836 29.47 11.2735 28.2231C11.5451 28.0348 11.8223 27.8494 12.0996 27.6639C12.7142 28.3915 13.3402 29.0876 14.0148 29.7895C14.8809 30.6854 15.7871 31.5214 16.7075 32.3088C18.5512 33.8895 20.4607 35.2932 22.3101 36.6627C23.4478 37.5073 24.5741 38.3404 25.6203 39.1878C25.5059 39.3276 25.3916 39.4731 25.2744 39.63C25.0629 39.9296 24.8084 40.2349 24.5197 40.8911C23.9623 42.2292 23.545 43.8726 23.908 45.7272C24.0995 46.6088 24.3997 47.3563 24.8542 48.1124C25.3058 48.8571 25.9404 49.6018 26.8408 50.1695C27.7327 50.743 28.8847 51.0283 29.8908 50.9827L29.9852 50.9798C29.9423 50.9827 30.1538 50.9684 30.1481 50.9684L30.2567 50.957L30.3854 50.9456L30.6255 50.9114C30.7941 50.8857 30.9228 50.8543 31.0542 50.8229C31.1857 50.7944 31.3201 50.7516 31.4544 50.7059C31.9861 50.5319 32.5149 50.2494 32.9637 49.8899C33.8784 49.1681 34.4244 48.2208 34.7274 47.3506C35.0304 46.4576 35.1505 45.6273 35.0962 44.6601C35.0876 44.5346 35.0761 44.4119 35.0561 44.2749L35.0418 44.1751L35.0218 44.0609L35.0018 43.9554C34.9847 43.8498 34.9275 43.5845 34.876 43.3762C34.776 42.9967 34.6588 42.6258 34.5187 42.2663C34.2386 41.5502 33.8899 40.8883 33.5011 40.2891C33.2067 39.8354 32.8923 39.4217 32.5692 39.0251C32.7636 38.8283 32.9551 38.6343 33.1524 38.4374C36.3796 35.2305 39.7412 32.0949 43.1085 28.945L44.3777 27.7552L45.018 27.1475C45.2295 26.9449 45.4639 26.7224 45.7126 26.457C46.0956 26.0547 46.4701 25.6382 46.836 25.2131C47.2419 25.5526 47.6421 25.8921 48.0308 26.2345C49.6945 27.701 51.1837 29.2617 52.2528 31.0278C53.3305 32.7882 53.9679 34.7483 54.1708 36.814C54.3767 38.8825 54.1794 41.0166 53.7335 43.1622C53.7335 43.1651 53.7306 43.1793 53.7306 43.1822C53.542 44.1437 54.1708 45.0767 55.137 45.2621C56.1003 45.4504 57.0351 44.8227 57.2209 43.8584L57.2237 43.8413C57.6839 41.4874 57.9098 38.9795 57.6296 36.4573ZM12.0567 18.7535C11.3049 16.9389 11.0019 15.0758 11.2506 13.2413C11.2821 13.013 11.3221 12.7819 11.365 12.5622C11.4279 12.2512 11.4679 12.0829 11.5336 11.8232C11.6565 11.3468 11.7995 10.8874 11.9681 10.4566C12.3026 9.59494 12.7399 8.85597 13.2487 8.3367C13.7661 7.81457 14.3149 7.50643 15.041 7.34095C15.7385 7.18117 16.4445 7.23538 17.0477 7.47505C17.6508 7.71471 18.1682 8.13983 18.5741 8.75041C18.777 9.05569 18.9485 9.40378 19.0858 9.7918C19.1544 9.98582 19.2144 10.1884 19.2658 10.3967L19.2858 10.4766L19.2944 10.5165C19.2944 10.5108 19.3001 10.5336 19.3001 10.5422L19.3344 10.7134L19.3545 10.8189L19.3602 10.876L19.3773 10.9844C19.4745 11.7576 19.403 12.6649 19.1829 13.5722C18.9686 14.4824 18.6112 15.4011 18.1653 16.2684C17.7165 17.1329 17.1677 17.9575 16.556 18.6423C16.4817 18.7279 16.4016 18.8077 16.3245 18.8905L16.05 19.1644C15.8614 19.3441 15.7185 19.4782 15.5155 19.658C15.1353 19.9947 14.7294 20.3199 14.3064 20.6423C14.0177 20.862 13.7175 21.0789 13.4117 21.2928C12.8771 20.454 12.414 19.6095 12.0567 18.7535ZM29.8823 46.8627C28.3787 47.0938 27.9757 45.0824 27.9699 45.0624C27.8184 44.0695 28.1958 42.8027 29.0419 41.3904C30.271 42.486 31.0114 43.5816 31.1657 44.5745C31.1657 44.5945 31.3858 46.6316 29.8823 46.8627ZM42.4911 17.1215C42.1338 16.7307 41.7993 16.3312 41.5106 15.9289C41.2076 15.5124 40.9275 15.073 40.6673 14.6165C40.1471 13.7063 39.7069 12.7363 39.3696 11.7462C39.1981 11.2469 39.0437 10.7533 38.9094 10.2569C38.7722 9.76042 38.6864 9.25541 38.6664 8.75611C38.6464 8.25966 38.6664 7.77178 38.7322 7.31527C38.7522 7.204 38.7665 7.08702 38.7922 6.9786L38.8265 6.82738L38.8779 6.61625C38.9322 6.41368 39.0066 6.17401 39.0866 5.96288C39.4068 5.09838 39.9013 4.3965 40.5044 3.99421C41.1018 3.58621 41.8136 3.43785 42.5768 3.56053C43.3372 3.68036 44.1233 4.05983 44.7121 4.59337C45.927 5.67757 46.6988 7.5635 47.0561 9.58352C47.1504 10.0885 47.219 10.6221 47.2447 11.0814C47.2762 11.5665 47.2762 12.0486 47.2447 12.5223C47.1904 13.4752 47.0189 14.411 46.7502 15.3269C46.6101 15.7834 46.4529 16.2399 46.2728 16.6879L46.1385 17.016C46.0842 17.1415 46.0213 17.3013 45.9784 17.3869C45.8898 17.5837 45.784 17.8063 45.6726 18.0288C45.4382 18.4939 45.1752 18.9504 44.8951 19.4012C44.8779 19.3869 44.8608 19.3755 44.8465 19.3613C44.0061 18.6451 43.2057 17.9062 42.4911 17.1215Z" fill="url(#paint0_linear_2009_6146)"/>
<path d="M82.2186 7.74636C82.6703 6.53947 83.2391 6.01164 84.2196 6.01164C85.2772 6.01164 86.1891 6.84476 86.1891 7.86048C86.1891 8.19715 86.0776 8.61657 85.9232 9.07022L77.0391 33.4418C76.3959 35.1765 75.5612 35.8984 74.1691 35.8984C72.8056 35.8984 71.9338 35.1765 71.2906 33.4789L62.2178 9.40689C62.0291 8.87906 61.9177 8.4254 61.9177 8.04594C61.9177 6.95318 62.9353 6.00879 64.0701 6.00879C65.1277 6.00879 65.8109 6.57371 66.3054 7.89757L74.2806 29.5187L82.2186 7.74636Z" fill="#0056A0"/>
<path d="M101.468 9.90054C96.1024 9.90054 92.5121 14.3144 92.5121 20.9565C92.5121 27.5587 96.0995 32.0096 101.468 32.0096C104.418 32.0096 104.909 31.7813 107.668 29.2934C108.311 28.7285 108.691 28.5401 109.294 28.5401C110.503 28.5401 111.49 29.4817 111.49 30.7257C111.49 31.2164 111.224 31.7471 110.732 32.3092C108.803 34.6145 105.435 35.9355 101.659 35.9355C93.3411 35.9355 87.9357 30.0124 87.9357 20.9565C87.9357 11.9006 93.3411 5.97461 101.579 5.97461C104.263 5.97461 106.985 6.6936 108.8 7.86054C110.352 8.84202 111.521 10.3884 111.521 11.407C111.521 12.6538 110.844 13.3329 109.669 13.3329C108.948 13.3329 108.308 13.0704 107.439 12.3913L106.119 11.3728C104.984 10.4997 103.203 9.90054 101.468 9.90054Z" fill="#0056A0"/>
<path d="M133.331 23.587H128.792C127.391 23.587 126.56 22.9479 126.56 21.7753C126.56 20.6426 127.391 19.9664 128.792 19.9664H135.029C136.919 19.9664 137.716 20.7224 137.716 22.6455V30.3119C137.716 31.2563 137.639 31.5188 137.376 31.9696C135.973 34.1608 131.779 35.9326 127.96 35.9326C119.679 35.9326 114.274 30.0094 114.274 20.9536C114.274 15.4413 116.501 10.5767 120.131 8.19713C122.097 6.91892 125.573 5.97168 128.409 5.97168C130.793 5.97168 132.871 6.53946 134.755 7.70639C136.65 8.91327 137.822 10.3855 137.822 11.6694C137.822 12.7279 137.104 13.367 135.895 13.367C135.138 13.367 134.686 13.1416 133.626 12.2343C131.585 10.5396 130.035 9.89761 127.992 9.89761C122.435 9.89761 118.844 14.2372 118.844 20.9536C118.844 27.5928 122.435 32.0066 127.803 32.0066C129.804 32.0066 131.247 31.4788 133.326 29.9296V23.587H133.331Z" fill="#0056A0"/>
<path d="M151.597 9.90054C148.496 9.90054 146.457 11.3328 146.457 13.524C146.457 14.6539 146.949 15.487 148.161 16.2773C149.182 16.9564 149.822 17.2588 153.298 18.8794C156.514 20.3545 157.76 21.1077 158.932 22.2775C160.104 23.4444 160.75 25.1848 160.75 27.0651C160.75 32.4261 156.891 35.9355 151.068 35.9355C148.007 35.9355 144.719 35.2565 142.827 34.2379C142.073 33.8213 141.615 33.1451 141.615 32.3519C141.615 31.2164 142.564 30.2378 143.622 30.2378C143.925 30.2378 144.302 30.2749 144.754 30.4632L146.38 31.1051C147.892 31.7071 149.516 32.0096 151.105 32.0096C154.167 32.0096 156.285 30.1236 156.285 27.4816C156.285 26.3518 155.908 25.4074 155.076 24.8025C154.127 24.0835 152.429 23.1448 150.845 22.4259L147.669 20.9936C146.835 20.617 146.04 20.1633 145.285 19.5984C142.867 17.8237 142.033 16.3515 142.033 13.8236C142.033 9.14446 145.929 5.97461 151.751 5.97461C154.244 5.97461 157.197 6.61657 159.158 7.6009C160.178 8.09164 160.596 8.69081 160.596 9.6352C160.596 10.6909 159.687 11.5611 158.635 11.5611C158.292 11.5611 157.874 11.4869 157.423 11.2986L155.419 10.5454C154.241 10.0888 152.958 9.90054 151.597 9.90054Z" fill="#0056A0"/>
<path d="M72.8857 46.0613C73.2316 46.0613 73.4374 46.2211 73.4374 46.5092C73.4374 46.7889 73.2316 46.9572 72.8857 46.9572H69.647C69.1782 46.9572 68.9924 46.7689 68.9924 46.2924V40.3293C68.9924 39.9099 69.1897 39.6646 69.527 39.6646C69.8728 39.6646 70.0701 39.9071 70.0701 40.3293V46.0585H72.8857V46.0613Z" fill="#808285"/>
<path d="M76.2502 46.1842C76.6332 46.1842 77.0191 46.0529 77.1877 45.8675L77.4679 45.5508C77.5994 45.4024 77.7023 45.3453 77.8624 45.3453C78.1253 45.3453 78.3483 45.5593 78.3483 45.8218C78.3483 45.9331 78.3026 46.0472 78.2168 46.167C77.748 46.8119 77.1106 47.12 76.2502 47.12C75.4555 47.12 74.921 46.886 74.4979 46.3525C74.0777 45.8304 73.8605 45.1085 73.8605 44.2783C73.8605 42.5407 74.8066 41.4365 76.3131 41.4365C77.708 41.4365 78.5312 42.418 78.5312 44.09C78.5312 44.5208 78.3254 44.7062 77.8766 44.7062H74.9095C74.9953 45.6792 75.4526 46.1842 76.2502 46.1842ZM77.4479 43.8389C77.3907 42.8003 77.0362 42.3724 76.2216 42.3724C75.3983 42.3724 74.9667 42.8574 74.9095 43.8389H77.4479Z" fill="#808285"/>
<path d="M83.2277 41.9586C83.2735 41.6305 83.4335 41.4736 83.7051 41.4736C83.9967 41.4736 84.1653 41.679 84.1653 42.0357V46.5208C84.1653 46.8775 83.9967 47.0829 83.7051 47.0829C83.4335 47.0829 83.2849 46.9231 83.2277 46.5979L83.1706 46.2412C82.7103 46.8404 82.2044 47.12 81.587 47.12C80.3235 47.12 79.3859 45.9046 79.3859 44.2697C79.3859 42.6719 80.3407 41.4365 81.6041 41.4365C82.2044 41.4365 82.7103 41.7275 83.1677 42.3239L83.2277 41.9586ZM81.7556 42.3695C80.9324 42.3695 80.4064 43.0799 80.4064 44.2212C80.4064 45.3995 80.9495 46.1927 81.7642 46.1927C82.6074 46.2013 83.142 45.4452 83.142 44.2868C83.142 43.117 82.5989 42.3695 81.7556 42.3695Z" fill="#808285"/>
<path d="M87.2268 47.1202C85.9433 47.1202 85.0829 45.9619 85.0829 44.2414C85.0829 42.5695 85.9433 41.4368 87.2353 41.4368C87.8899 41.4368 88.3587 41.7078 88.8361 42.3612V40.033C88.8361 39.6507 89.0247 39.4253 89.3335 39.4253C89.6508 39.4253 89.8308 39.6507 89.8308 40.033V46.5211C89.8308 46.8777 89.6622 47.0917 89.3706 47.0917C89.1076 47.0917 88.939 46.9234 88.8933 46.5953L88.8361 46.2129C88.5102 46.7721 87.8928 47.1202 87.2268 47.1202ZM87.4526 42.3697C86.6293 42.3697 86.1148 43.0802 86.1148 44.2214C86.1148 45.3998 86.6493 46.193 87.4726 46.193C88.3073 46.193 88.8504 45.4454 88.8504 44.2871C88.8475 43.1173 88.3044 42.3697 87.4526 42.3697Z" fill="#808285"/>
<path d="M93.1467 46.1842C93.5297 46.1842 93.9156 46.0529 94.0842 45.8675L94.3644 45.5508C94.4959 45.4024 94.5988 45.3453 94.7588 45.3453C95.0218 45.3453 95.2448 45.5593 95.2448 45.8218C95.2448 45.9331 95.199 46.0472 95.1133 46.167C94.6445 46.8119 94.0071 47.12 93.1467 47.12C92.352 47.12 91.8175 46.886 91.3944 46.3525C90.9742 45.8304 90.757 45.1085 90.757 44.2783C90.757 42.5407 91.7031 41.4365 93.2095 41.4365C94.6045 41.4365 95.4277 42.418 95.4277 44.09C95.4277 44.5208 95.2219 44.7062 94.7731 44.7062H91.806C91.8918 45.6792 92.3491 46.1842 93.1467 46.1842ZM94.3444 43.8389C94.2872 42.8003 93.9327 42.3724 93.1181 42.3724C92.2948 42.3724 91.8632 42.8574 91.806 43.8389H94.3444Z" fill="#808285"/>
<path d="M98.7665 41.4365C99.3096 41.4365 99.807 41.7818 99.807 42.1641C99.807 42.4722 99.564 42.7147 99.2553 42.7147C99.1438 42.7147 99.0866 42.7062 98.9837 42.6491C98.7579 42.5264 98.6836 42.5008 98.5149 42.5008C98.1576 42.5008 97.8689 42.6976 97.6631 43.0628C97.4373 43.4651 97.3544 43.9501 97.3544 44.8204V46.4837C97.3544 46.8661 97.1772 47.0915 96.857 47.0915C96.5397 47.0915 96.3596 46.8661 96.3596 46.4837V41.9415C96.3596 41.642 96.4997 41.4736 96.7427 41.4736C96.9771 41.4736 97.1085 41.622 97.1371 41.9044L97.2315 42.7461C97.5488 41.9216 98.1205 41.4365 98.7665 41.4365Z" fill="#808285"/>
<path d="M101.754 46.1926C102.342 46.1926 102.737 45.8645 102.737 45.408C102.737 45.0913 102.568 44.923 102.045 44.7432C101.502 44.5549 101.288 44.4808 101.062 44.378C100.519 44.127 100.19 43.622 100.19 43.0513C100.19 42.1355 101.013 41.4336 102.091 41.4336C102.511 41.4336 103.054 41.5363 103.392 41.6847C103.569 41.7589 103.683 41.9472 103.683 42.1326C103.683 42.4037 103.469 42.6291 103.206 42.6291C103.14 42.6291 103.066 42.6091 103 42.5834L102.625 42.4436C102.485 42.3865 102.317 42.3694 102.111 42.3694C101.568 42.3694 101.222 42.6034 101.222 42.9857C101.222 43.1341 101.288 43.2853 101.399 43.388C101.502 43.4822 101.671 43.5649 101.988 43.6876L102.691 43.9501C103.42 44.2211 103.769 44.6691 103.769 45.3253C103.769 46.3809 102.934 47.1285 101.756 47.1285C101.233 47.1285 100.559 46.9972 100.21 46.8375C100.033 46.7547 99.9185 46.5949 99.9185 46.4066C99.9185 46.1356 100.133 45.9302 100.404 45.9302C100.47 45.9302 100.527 45.9387 100.573 45.9672C100.799 46.0814 101.379 46.1926 101.754 46.1926Z" fill="#808285"/>
<path d="M108.037 39.3994C108.365 39.3994 108.625 39.6619 108.625 39.9872C108.625 40.3124 108.362 40.5863 108.037 40.5863C107.708 40.5863 107.436 40.3153 107.436 39.9872C107.436 39.659 107.699 39.3994 108.037 39.3994ZM108.037 47.0915C107.719 47.0915 107.531 46.8661 107.531 46.4838V42.0814C107.531 41.6876 107.716 41.4737 108.037 41.4737C108.345 41.4737 108.534 41.6876 108.534 42.0814V46.4838C108.534 46.8661 108.348 47.0915 108.037 47.0915Z" fill="#808285"/>
<path d="M112.747 41.4365C113.328 41.4365 113.776 41.699 113.965 42.1555C114.088 42.4637 114.105 42.5949 114.105 43.3624V46.4837C114.105 46.8661 113.928 47.0915 113.608 47.0915C113.29 47.0915 113.11 46.8661 113.11 46.4837V43.408C113.11 42.6976 112.933 42.418 112.481 42.418C112.05 42.418 111.518 42.652 110.926 43.0999V46.4837C110.926 46.8661 110.738 47.0915 110.42 47.0915C110.112 47.0915 109.923 46.8661 109.923 46.4837V42.0442C109.923 41.679 110.1 41.4736 110.4 41.4736C110.635 41.4736 110.775 41.6049 110.841 41.8559L110.924 42.1841C111.587 41.6705 112.138 41.4365 112.747 41.4365Z" fill="#808285"/>
<path d="M122.675 44.3981H121.551C121.206 44.3981 121 44.2383 121 43.9501C121 43.6705 121.206 43.5022 121.551 43.5022H123.098C123.567 43.5022 123.764 43.6905 123.764 44.167V45.6991C123.764 45.9331 123.744 45.9987 123.681 46.11C123.335 46.6521 122.295 47.0915 121.349 47.0915C119.299 47.0915 117.958 45.6249 117.958 43.3795C117.958 42.0157 118.51 40.8088 119.41 40.2211C119.896 39.9044 120.76 39.6704 121.46 39.6704C122.049 39.6704 122.566 39.8102 123.032 40.1012C123.501 40.4008 123.79 40.766 123.79 41.0827C123.79 41.3452 123.612 41.5021 123.312 41.5021C123.124 41.5021 123.012 41.4451 122.749 41.2225C122.243 40.8031 121.86 40.6433 121.354 40.6433C119.976 40.6433 119.087 41.719 119.087 43.3824C119.087 45.0286 119.976 46.1214 121.306 46.1214C121.803 46.1214 122.157 45.9901 122.672 45.6078V44.3981H122.675Z" fill="#808285"/>
<path d="M126.965 46.1842C127.348 46.1842 127.734 46.0529 127.903 45.8675L128.183 45.5508C128.315 45.4024 128.418 45.3453 128.578 45.3453C128.841 45.3453 129.064 45.5593 129.064 45.8218C129.064 45.9331 129.018 46.0472 128.932 46.167C128.463 46.8119 127.826 47.12 126.965 47.12C126.171 47.12 125.636 46.886 125.213 46.3525C124.793 45.8304 124.576 45.1085 124.576 44.2783C124.576 42.5407 125.522 41.4365 127.028 41.4365C128.423 41.4365 129.247 42.418 129.247 44.09C129.247 44.5208 129.041 44.7062 128.592 44.7062H125.625C125.711 45.6792 126.171 46.1842 126.965 46.1842ZM128.166 43.8389C128.109 42.8003 127.754 42.3724 126.94 42.3724C126.116 42.3724 125.685 42.8574 125.628 43.8389H128.166Z" fill="#808285"/>
<path d="M132.997 41.4365C133.577 41.4365 134.026 41.699 134.215 42.1555C134.337 42.4637 134.355 42.5949 134.355 43.3624V46.4837C134.355 46.8661 134.177 47.0915 133.857 47.0915C133.54 47.0915 133.36 46.8661 133.36 46.4837V43.408C133.36 42.6976 133.183 42.418 132.731 42.418C132.299 42.418 131.768 42.652 131.176 43.0999V46.4837C131.176 46.8661 130.99 47.0915 130.67 47.0915C130.361 47.0915 130.173 46.8661 130.173 46.4837V42.0442C130.173 41.679 130.35 41.4736 130.65 41.4736C130.884 41.4736 131.024 41.6049 131.09 41.8559L131.173 42.1841C131.836 41.6705 132.388 41.4365 132.997 41.4365Z" fill="#808285"/>
<path d="M137.642 46.1842C138.025 46.1842 138.411 46.0529 138.579 45.8675L138.86 45.5508C138.991 45.4024 139.094 45.3453 139.254 45.3453C139.517 45.3453 139.74 45.5593 139.74 45.8218C139.74 45.9331 139.694 46.0472 139.609 46.167C139.14 46.8119 138.502 47.12 137.642 47.12C136.847 47.12 136.313 46.886 135.89 46.3525C135.469 45.8304 135.252 45.1085 135.252 44.2783C135.252 42.5407 136.198 41.4365 137.705 41.4365C139.1 41.4365 139.923 42.418 139.923 44.09C139.923 44.5208 139.717 44.7062 139.268 44.7062H136.301C136.39 45.6792 136.847 46.1842 137.642 46.1842ZM138.842 43.8389C138.785 42.8003 138.431 42.3724 137.616 42.3724C136.793 42.3724 136.361 42.8574 136.304 43.8389H138.842Z" fill="#808285"/>
<path d="M141.278 40.977C141.278 40.6603 141.286 40.6033 141.352 40.4635C141.427 40.3151 141.587 40.2295 141.801 40.2295C142.167 40.2295 142.27 40.4064 142.27 41.0055V41.5933H142.944C143.29 41.5933 143.468 41.7417 143.468 42.0327C143.468 42.3123 143.279 42.4635 142.944 42.4635H142.27V45.3623C142.27 45.8388 142.278 45.8759 142.298 45.9786C142.344 46.1469 142.458 46.2125 142.701 46.2125C142.73 46.2125 142.759 46.2125 142.787 46.204L143.002 46.1384C143.067 46.1184 143.133 46.1098 143.199 46.1098C143.45 46.1098 143.61 46.2867 143.61 46.5407C143.61 46.9059 143.199 47.1198 142.504 47.1198C142.093 47.1198 141.812 47.0371 141.595 46.8488C141.332 46.6234 141.278 46.3923 141.278 45.485V42.4664H140.969C140.623 42.4664 140.446 42.318 140.446 42.027C140.446 41.7474 140.635 41.5961 140.969 41.5961H141.278V40.977Z" fill="#808285"/>
<path d="M144.78 39.3994C145.108 39.3994 145.368 39.6619 145.368 39.9872C145.368 40.3124 145.105 40.5863 144.78 40.5863C144.451 40.5863 144.179 40.3153 144.179 39.9872C144.179 39.659 144.442 39.3994 144.78 39.3994ZM144.78 47.0915C144.462 47.0915 144.274 46.8661 144.274 46.4838V42.0814C144.274 41.6876 144.459 41.4737 144.78 41.4737C145.088 41.4737 145.277 41.6876 145.277 42.0814V46.4838C145.277 46.8661 145.088 47.0915 144.78 47.0915Z" fill="#808285"/>
<path d="M148.556 42.3694C147.741 42.3694 147.255 43.0799 147.255 44.2753C147.255 45.4708 147.741 46.1812 148.556 46.1812C148.902 46.1812 149.21 46.0585 149.379 45.8645L149.642 45.5478C149.782 45.3795 149.885 45.3224 150.045 45.3224C150.308 45.3224 150.531 45.5364 150.531 45.7903C150.531 45.9016 150.494 46.0243 150.391 46.1727C149.979 46.789 149.342 47.1171 148.547 47.1171C147.778 47.1171 147.235 46.866 146.815 46.2954C146.42 45.7618 146.226 45.0799 146.226 44.2753C146.226 43.4822 146.423 42.7974 146.815 42.2553C147.226 41.6932 147.778 41.4336 148.547 41.4336C149.353 41.4336 149.951 41.7417 150.391 42.3865C150.494 42.5263 150.531 42.6376 150.531 42.7517C150.531 43.0142 150.316 43.2282 150.045 43.2282C149.885 43.2282 149.782 43.1712 149.642 43.0028L149.379 42.6947C149.21 42.4921 148.902 42.3694 148.556 42.3694Z" fill="#808285"/>
<path d="M158.492 42.7346V40.3323C158.492 39.9129 158.698 39.6675 159.035 39.6675C159.381 39.6675 159.578 39.91 159.578 40.3323V46.4266C159.578 46.846 159.381 47.0914 159.035 47.0914C158.698 47.0914 158.492 46.8489 158.492 46.4266V43.6419H155.345V46.4266C155.345 46.846 155.147 47.0914 154.81 47.0914C154.464 47.0914 154.267 46.8489 154.267 46.4266V40.3323C154.267 39.9129 154.464 39.6675 154.81 39.6675C155.147 39.6675 155.345 39.91 155.345 40.3323V42.7346H158.492Z" fill="#808285"/>
<path d="M162.914 46.1842C163.297 46.1842 163.683 46.0529 163.851 45.8675L164.132 45.5508C164.263 45.4024 164.366 45.3453 164.526 45.3453C164.789 45.3453 165.012 45.5593 165.012 45.8218C165.012 45.9331 164.966 46.0472 164.88 46.167C164.412 46.8119 163.774 47.12 162.914 47.12C162.119 47.12 161.585 46.886 161.162 46.3525C160.741 45.8304 160.524 45.1085 160.524 44.2783C160.524 42.5407 161.47 41.4365 162.977 41.4365C164.372 41.4365 165.195 42.418 165.195 44.09C165.195 44.5208 164.989 44.7062 164.54 44.7062H161.573C161.659 45.6792 162.116 46.1842 162.914 46.1842ZM164.112 43.8389C164.054 42.8003 163.7 42.3724 162.885 42.3724C162.062 42.3724 161.63 42.8574 161.573 43.8389H164.112Z" fill="#808285"/>
<path d="M169.891 41.9586C169.937 41.6305 170.097 41.4736 170.369 41.4736C170.66 41.4736 170.829 41.679 170.829 42.0357V46.5208C170.829 46.8775 170.66 47.0829 170.369 47.0829C170.097 47.0829 169.949 46.9231 169.891 46.5979L169.834 46.2412C169.374 46.8404 168.868 47.12 168.251 47.12C166.987 47.12 166.05 45.9046 166.05 44.2697C166.05 42.6719 167.004 41.4365 168.268 41.4365C168.868 41.4365 169.374 41.7275 169.831 42.3239L169.891 41.9586ZM168.419 42.3695C167.596 42.3695 167.07 43.0799 167.07 44.2212C167.07 45.3995 167.613 46.1927 168.428 46.1927C169.271 46.2013 169.806 45.4452 169.806 44.2868C169.806 43.117 169.263 42.3695 168.419 42.3695Z" fill="#808285"/>
<path d="M172.73 47.0913C172.413 47.0913 172.224 46.8659 172.224 46.4836V40.0355C172.224 39.6531 172.41 39.4277 172.73 39.4277C173.039 39.4277 173.227 39.6531 173.227 40.0355V46.4836C173.224 46.8659 173.039 47.0913 172.73 47.0913Z" fill="#808285"/>
<path d="M174.854 40.977C174.854 40.6603 174.862 40.6033 174.928 40.4635C175.002 40.3151 175.162 40.2295 175.377 40.2295C175.743 40.2295 175.846 40.4064 175.846 41.0055V41.5933H176.52C176.866 41.5933 177.043 41.7417 177.043 42.0327C177.043 42.3123 176.855 42.4635 176.52 42.4635H175.846V45.3623C175.846 45.8388 175.854 45.8759 175.874 45.9786C175.92 46.1469 176.034 46.2125 176.277 46.2125C176.306 46.2125 176.334 46.2125 176.36 46.204L176.575 46.1384C176.64 46.1184 176.706 46.1098 176.772 46.1098C177.023 46.1098 177.183 46.2867 177.183 46.5407C177.183 46.9059 176.772 47.1198 176.077 47.1198C175.666 47.1198 175.385 47.0371 175.168 46.8488C174.905 46.6234 174.851 46.3923 174.851 45.485V42.4664H174.542C174.196 42.4664 174.019 42.318 174.019 42.027C174.019 41.7474 174.208 41.5961 174.542 41.5961H174.851V40.977H174.854Z" fill="#808285"/>
<path d="M180.568 41.4368C181.102 41.4368 181.588 41.6878 181.794 42.0616C181.943 42.3412 182 42.6494 182 43.3056V46.484C182 46.8663 181.811 47.0917 181.503 47.0917C181.185 47.0917 181.005 46.8663 181.005 46.484V43.6793C181.005 42.9889 180.997 42.8576 180.902 42.6693C180.819 42.4924 180.602 42.3697 180.368 42.3697C179.973 42.3697 179.59 42.5666 178.898 43.0231L178.816 43.0802V46.4811C178.816 46.8634 178.638 47.0888 178.318 47.0888C178.001 47.0888 177.821 46.8634 177.821 46.4811V40.033C177.821 39.6507 177.998 39.4253 178.318 39.4253C178.636 39.4253 178.816 39.6507 178.816 40.033V42.21C179.527 41.6593 180.025 41.4368 180.568 41.4368Z" fill="#808285"/>
</g>
<defs>
<linearGradient id="paint0_linear_2009_6146" x1="-0.000376798" y1="25.4999" x2="57.752" y2="25.4999" gradientUnits="userSpaceOnUse">
<stop stop-color="#00ACD4"/>
<stop offset="0.5092" stop-color="#0071B7"/>
<stop offset="1" stop-color="#003375"/>
</linearGradient>
<clipPath id="clip0_2009_6146">
<rect width="182" height="51" fill="white"/>
</clipPath>
</defs>
</svg>
