<svg width="33" height="32" viewBox="0 0 33 32" fill="none" xmlns="http://www.w3.org/2000/svg">
<path fill-rule="evenodd" clip-rule="evenodd" d="M20.493 5.15958C20.493 7.27267 18.78 8.98567 16.6669 8.98567C14.5538 8.98567 12.8408 7.27267 12.8408 5.15958C12.8408 3.04649 14.5538 1.3335 16.6669 1.3335C18.78 1.3335 20.493 3.04649 20.493 5.15958ZM17.6611 27.6417L19.8554 23.9712L18.3677 21.7393L21.7684 18.5509L24.0264 23.2761C24.2274 23.597 24.3286 23.9703 24.3173 24.3488C24.3059 24.7273 24.1825 25.0939 23.9627 25.4021L20.7743 29.8659C20.4793 30.2787 20.0324 30.5575 19.532 30.6408C19.0315 30.7242 18.5184 30.6053 18.1056 30.3104C17.6927 30.0154 17.414 29.5685 17.3306 29.0681C17.2473 28.5676 17.3662 28.0545 17.6611 27.6417ZM13.4784 23.9712L14.9661 21.7393L11.5654 18.5509L9.30544 23.2761C9.10448 23.597 9.00326 23.9703 9.01462 24.3488C9.02597 24.7273 9.14937 25.0939 9.3692 25.4021L12.5576 29.8659C12.7037 30.0703 12.8885 30.244 13.1017 30.3769C13.3148 30.5099 13.5521 30.5996 13.7999 30.6408C14.0477 30.6821 14.3012 30.6742 14.546 30.6175C14.7907 30.5608 15.0219 30.4564 15.2263 30.3104C15.4307 30.1643 15.6044 29.9794 15.7373 29.7663C15.8703 29.5531 15.96 29.3159 16.0012 29.0681C16.0425 28.8203 16.0346 28.5667 15.9779 28.322C15.9212 28.0773 15.8168 27.8461 15.6708 27.6417L13.4784 23.9712ZM27.508 6.11652C27.5061 6.51974 27.3509 6.90715 27.0739 7.20015L21.7684 13.4494V16.6378H11.5655V13.4494L6.25998 7.20015C5.98719 6.90637 5.83562 6.52028 5.83571 6.11938C5.83579 5.71848 5.98753 5.33245 6.26044 5.03879C6.53336 4.74513 6.90726 4.56557 7.30707 4.53617C7.70689 4.50676 8.10304 4.62969 8.41598 4.88026L8.42108 4.87452L14.1162 10.261H19.2177L24.9128 4.87197L24.9179 4.87771C25.2306 4.62319 25.6285 4.49719 26.0308 4.52528C26.433 4.55337 26.8095 4.73344 27.0838 5.02896C27.3582 5.32447 27.5098 5.71329 27.508 6.11652Z" fill="#6D28D9"/>
</svg>
