<svg width="100" height="100" viewBox="0 0 100 100" fill="none" xmlns="http://www.w3.org/2000/svg">
<path d="M74.9091 26.3259C70.7343 26.3259 68.8614 28.6597 68.1243 30.0307C68.0318 30.2028 67.7805 30.2027 67.6883 30.0304C66.9538 28.6595 65.0911 26.3259 60.9168 26.3259C56.1615 26.3259 51.9785 29.5637 51.9785 35.4761C51.9785 37.8686 52.4673 39.9182 53.824 42.2056C56.5887 46.867 65.6967 50.7097 67.5676 51.9004C67.7745 52.032 68.0365 52.0324 68.2436 51.9012C70.116 50.7162 79.2257 46.9034 82.012 42.2056C83.3688 39.9182 83.8542 37.8686 83.8542 35.4761C83.8541 29.5638 79.6643 26.3259 74.9091 26.3259Z" fill="#00538B"/>
<path d="M80.4522 62.5163H66.6584C66.4659 61.4317 65.9542 60.3964 65.1314 59.5633C65.1196 59.5514 65.1076 59.5397 65.0954 59.5282L56.1256 51.072C54.1176 49.1789 51.4965 48.1363 48.7453 48.1363H28.5444V48.1321C28.5444 47.3555 27.9148 46.7258 27.1382 46.7258H15.4062C14.6296 46.7258 14 47.3555 14 48.1321V61.7974C14 62.574 14.6296 63.2037 15.4062 63.2037H27.1382C27.9148 63.2037 28.5444 62.574 28.5444 61.7974V61.7932H38.0078C38.3288 62.9129 38.7583 64.159 39.3278 65.4107C41.7881 70.817 45.6517 73.6748 50.5013 73.6748H80.4522C83.5112 73.6748 86 71.1719 86 68.0956C86 65.0193 83.5112 62.5163 80.4522 62.5163ZM25.7319 60.3912H16.8125V49.5383H25.7319V60.3912ZM80.4522 70.8621H50.5012C41.4856 70.8621 39.9366 57.3756 39.9221 57.2408C39.8408 56.4683 39.1481 55.9085 38.3765 55.9894C37.604 56.0706 37.0438 56.7627 37.1251 57.535C37.1313 57.5933 37.19 58.1325 37.3463 58.9807H28.5444V50.9489H48.7455C50.7765 50.9489 52.7124 51.7194 54.1965 53.1186L60.4649 59.0281L59.3554 60.1461C58.8082 60.6973 58.8117 61.5876 59.363 62.1348C59.6372 62.4071 59.9953 62.5429 60.3535 62.5429C60.7151 62.5429 61.0767 62.4042 61.3517 62.1272L62.5121 60.9581L63.1462 61.5559C64.0984 62.5361 64.1857 64.1335 63.3483 65.2169C63.2945 65.2781 63.1664 65.4237 63.1144 65.4822C62.724 65.8713 62.2372 66.1218 61.7048 66.2072C60.8831 66.3386 60.071 66.0688 59.4757 65.4661C59.4476 65.4377 59.4182 65.4104 59.3878 65.3844L49.9094 57.2989C49.3185 56.7947 48.4309 56.865 47.9269 57.4559C47.4229 58.0468 47.4932 58.9345 48.0841 59.4385L57.5205 67.4881C58.5389 68.495 59.9084 69.0509 61.3119 69.0507C61.5907 69.0507 61.8711 69.0288 62.15 68.9841C63.2888 68.8014 64.3227 68.2653 65.1428 67.431C65.1557 67.4178 65.4347 67.1081 65.5334 66.9873L65.5337 66.9878C65.9379 66.4774 66.2399 65.9158 66.4415 65.329H80.4526C81.961 65.329 83.1879 66.57 83.1879 68.0956C83.1879 69.6213 81.9604 70.8621 80.4522 70.8621Z" fill="#1D376C"/>
</svg>
