<svg width="32" height="32" viewBox="0 0 32 32" fill="none" xmlns="http://www.w3.org/2000/svg">
<path fill-rule="evenodd" clip-rule="evenodd" d="M15.6641 3.68708C16.6596 3.02191 17.83 2.66688 19.0273 2.66688C20.6322 2.66864 22.1709 3.30698 23.3058 4.44185C24.4407 5.57672 25.079 7.11542 25.0808 8.72037C25.0808 9.91764 24.7257 11.088 24.0606 12.0835C23.3954 13.079 22.45 13.8549 21.3438 14.3131C20.2377 14.7712 19.0206 14.8911 17.8463 14.6575C16.672 14.424 15.5934 13.8474 14.7468 13.0008C13.9002 12.1542 13.3237 11.0756 13.0901 9.90135C12.8565 8.72708 12.9764 7.50993 13.4346 6.4038C13.8927 5.29767 14.6686 4.35224 15.6641 3.68708ZM19.4553 10.9644L21.2713 9.14835C21.3848 9.03483 21.4485 8.88089 21.4485 8.72037C21.4485 8.55985 21.3848 8.40591 21.2713 8.29239L19.4553 6.47634C19.3417 6.36285 19.1878 6.2991 19.0273 6.2991C18.8668 6.2991 18.7128 6.36285 18.5993 6.47634L16.7832 8.29239C16.6698 8.40591 16.606 8.55985 16.606 8.72037C16.606 8.88089 16.6698 9.03483 16.7832 9.14835L18.5993 10.9644C18.7128 11.0779 18.8668 11.1416 19.0273 11.1416C19.1878 11.1416 19.3417 11.0779 19.4553 10.9644ZM28.294 19.0075C28.7131 19.0738 29.0998 19.2732 29.397 19.5761C29.5836 19.7739 29.7263 20.0089 29.8159 20.2656C29.9054 20.5224 29.9398 20.7951 29.9167 21.0661C29.8936 21.337 29.8136 21.6 29.6819 21.8379C29.5502 22.0759 29.3698 22.2833 29.1524 22.4467L24.1425 26.2077C23.5768 26.6323 22.9249 26.9277 22.2327 27.0733L13.601 28.8894C12.426 29.1367 11.201 28.9386 10.1638 28.3337L5.64245 25.6901C4.90183 25.258 4.05975 25.0303 3.20229 25.0303H2.69501C2.53446 25.0303 2.38049 24.9665 2.26696 24.853C2.15344 24.7395 2.08966 24.5855 2.08966 24.4249V17.1002C2.08965 16.9512 2.14461 16.8074 2.24402 16.6964C2.34343 16.5853 2.4803 16.5149 2.62842 16.4985L6.38703 16.0808C7.1438 15.9968 7.9097 16.0924 8.62259 16.3599L11.9738 17.6166C12.2447 17.718 12.524 17.7949 12.8086 17.8466L19.0437 18.9798C19.5352 19.0156 19.9949 19.2361 20.3304 19.5969C20.666 19.9578 20.8525 20.4323 20.8525 20.9251C20.8525 21.4179 20.666 21.8924 20.3304 22.2533C19.9949 22.6142 19.5352 22.8346 19.0437 22.8704L12.38 23.2173L12.337 23.2203C12.1765 23.2259 12.0247 23.2951 11.9152 23.4126C11.8056 23.5301 11.7472 23.6863 11.7529 23.8468C11.7585 24.0074 11.8276 24.1591 11.9451 24.2687C12.0626 24.3782 12.2188 24.4366 12.3794 24.431H12.4236L19.143 23.951C19.7658 23.9033 20.3605 23.6724 20.8523 23.2873C21.3441 22.9022 21.7109 22.3801 21.9064 21.7868L27.0694 19.208C27.4455 19.0116 27.8748 18.9413 28.294 19.0075Z" fill="#808285"/>
</svg>
