<svg width="227" height="413" viewBox="0 0 227 413" fill="none" xmlns="http://www.w3.org/2000/svg">
<g clip-path="url(#clip0_1872_6809)">
<path d="M131.335 171.598C131.335 171.598 132.21 133.17 133.145 126.964C134.081 120.758 137.641 115.362 141.983 114.736C146.325 114.109 149.578 118.19 150.192 122.684L144.975 177.116" fill="#B48552"/>
<path d="M154.58 248.544C157.173 248.406 157.388 246.128 157.464 241.405C157.464 239.709 157.587 234.618 156.084 231.684C155.992 231.516 155.915 231.332 155.823 231.195C154.288 228.52 152.892 227.22 150.1 227.159C145.635 227.052 147.031 235.78 147.645 238.746C148.23 241.286 149.372 243.667 150.99 245.716C152.355 247.474 153.767 248.589 154.58 248.544Z" fill="#C79C80"/>
<path d="M133.544 165.116C132.633 166.104 131.968 167.29 131.603 168.581C131.238 169.871 131.183 171.229 131.442 172.545C133.851 185.324 141.354 233.396 148.596 232.418C156.406 231.364 145.297 166.034 142.029 164.765C139.482 163.787 136.628 161.876 133.544 165.116Z" fill="#B48552"/>
<path d="M148.596 407.145C148.182 397.974 147.936 390.851 148.074 389.307C148.519 384.309 152.677 381.359 155.332 382.031C157.986 382.704 161.362 388.833 161.039 392.548L160.671 407.222L148.596 407.145Z" fill="#B48552"/>
<path d="M130.644 410.769C130.522 410.937 128.895 413 131.289 413H163.51C163.601 412.997 163.69 412.974 163.771 412.935C163.853 412.895 163.926 412.839 163.985 412.77C164.044 412.701 164.088 412.621 164.115 412.535C164.141 412.448 164.149 412.357 164.139 412.267C163.955 409.592 163.233 400.268 162.512 398.739H161.684C161.684 398.739 158.063 402.255 154.718 402.255C151.373 402.255 148.811 401.521 148.09 398.464C148.09 398.464 138.316 400.084 130.69 410.769" fill="#241F21"/>
<path d="M190.56 407.145C190.145 397.974 189.9 390.851 190.038 389.307C190.468 384.309 194.641 381.359 197.295 382.031C199.95 382.704 203.325 388.833 202.988 392.548L202.635 407.222L190.56 407.145Z" fill="#B48552"/>
<path d="M172.593 410.769C172.486 410.937 170.859 413 173.237 413H205.458C205.55 412.997 205.639 412.974 205.722 412.935C205.804 412.895 205.878 412.84 205.938 412.771C205.999 412.703 206.044 412.622 206.073 412.536C206.101 412.449 206.111 412.357 206.103 412.267C205.903 409.592 205.182 400.268 204.476 398.739H203.632C203.632 398.739 200.027 402.255 196.666 402.255C193.306 402.255 190.775 401.521 190.054 398.464C190.054 398.464 180.265 400.084 172.639 410.769" fill="#241F21"/>
<path d="M139.329 201.327C140.387 175.021 158.124 154.951 179.712 155.165C201.3 155.379 214.511 175.586 215.554 201.556H215.661V202.733C215.661 203.299 215.661 203.864 215.661 204.414H215.554L210.046 391.157H184.576L178.439 233.105L176.812 229.376L167.99 283.471L166.456 391.157H141.001L133.529 284.373L139.329 201.327Z" fill="#002D74"/>
<path d="M226.985 168.387C226.985 168.387 225.005 126.826 223.839 120.666C222.673 114.506 218.929 109.233 214.633 108.789C210.337 108.346 207.207 112.504 206.716 117.013L213.866 171.23" fill="#B48552"/>
<path d="M207.468 244.34C204.86 244.34 204.568 242.017 204.399 237.294C204.307 235.612 204.046 230.538 205.458 227.542C205.458 227.374 205.611 227.175 205.688 227.037C207.223 224.316 208.481 222.971 211.273 222.818C215.723 222.574 214.603 231.332 214.112 234.328C213.626 236.88 212.578 239.292 211.043 241.39C209.739 243.209 208.373 244.356 207.56 244.34" fill="#B48552"/>
<path d="M224.315 162.426C225.287 163.359 226.026 164.506 226.474 165.774C226.921 167.043 227.065 168.398 226.893 169.732C224.944 182.587 218.837 230.95 211.549 230.201C203.709 229.422 212.577 163.756 215.799 162.38C218.316 161.31 221.108 159.323 224.3 162.38" fill="#B48552"/>
<path d="M180.264 70.5147C169.386 70.2701 160.748 58.1029 160.947 43.3219C161.147 28.5409 170.153 16.7711 181.001 17.0004C191.849 17.2296 200.564 29.4427 200.364 44.1779C200.165 58.913 191.173 70.7134 180.264 70.5147Z" fill="#B48552"/>
<path d="M172.593 86.6863C171.829 79.0166 171.829 71.2903 172.593 63.6205C172.808 57.5064 177.043 52.8137 180.894 52.9207C184.745 53.0277 189.885 59.6463 189.716 64.232L189.24 91.0732L172.593 86.6863Z" fill="#B48552"/>
<path d="M209.048 175.678C216.352 160.775 216.843 124.824 216.843 124.824C217.318 101.895 214.142 83.3847 193.552 77.2858C189.624 76.1241 186.417 87.8939 181.077 87.7869C175.262 87.6646 172.117 75.8031 167.913 76.9648C147.967 82.437 141.722 100.015 141.262 122.531C141.262 122.531 140.08 160.148 146.847 175.953C151.664 187.188 203.341 187.31 209.048 175.678Z" fill="#FF991C"/>
<path d="M196.267 137.124L192.155 102.196C191.097 97.1523 196.068 88.2103 202.512 86.5289C208.956 84.8475 216.521 88.2715 217.947 95.0582C218.484 97.6262 226.263 132.125 226.263 132.125L196.267 137.124Z" fill="#FF991C"/>
<path d="M130.476 132.171L138.147 100.072C138.776 94.3854 146.31 86.972 152.861 87.7363C156.353 88.26 159.511 90.0966 161.686 92.8686C163.861 95.6406 164.887 99.1372 164.553 102.64C164.231 105.544 160.042 138.56 160.042 138.56L130.476 132.171Z" fill="#FF991C"/>
</g>
<g clip-path="url(#clip1_1872_6809)">
<path d="M104.447 127.331C104.447 127.331 96.8386 93.7402 94.6737 87.7658C92.5089 81.7913 87.8968 77.1082 83.4416 77.3571C78.9863 77.6061 76.5862 82.2581 76.8215 86.8478L92.7285 139.933" fill="#DC9F67"/>
<path d="M97.7327 213.991C95.0972 214.147 94.5952 211.875 94.0148 207.13C93.7952 205.434 93.1363 200.331 94.3129 197.188C94.3913 197.017 94.4384 196.814 94.5168 196.659C95.8189 193.812 97.0268 192.349 99.8505 191.991C104.353 191.385 103.898 200.331 103.631 203.38C103.335 206.004 102.451 208.529 101.043 210.77C99.8662 212.7 98.5642 213.882 97.7327 214.007" fill="#DC9F67"/>
<path d="M101.31 117.156C103.631 118.712 105.545 133.663 105.577 136.324C105.749 149.486 107.914 198.744 100.494 199.196C92.4933 199.693 90.4382 132.621 93.4502 130.738C95.8033 129.26 97.576 114.573 101.294 117.187" fill="#DC9F67"/>
<path d="M37.8223 404.132C38.4655 395.948 38.8734 389.522 38.7636 388.106C38.4028 383.595 34.0573 380.701 31.1395 381.167C28.2216 381.634 24.5507 386.94 24.8645 390.3L24.9586 403.494L37.8223 404.132Z" fill="#DC9F67"/>
<path d="M76.8841 404.038C77.5116 395.854 77.9352 389.429 77.8254 388.013C77.4803 383.516 73.2133 380.623 70.3582 381.089C67.503 381.556 63.8636 386.877 64.0832 390.238V403.431L76.8841 404.038Z" fill="#DC9F67"/>
<path d="M99.7406 411.818C99.7664 412.035 99.7044 412.253 99.5681 412.425C99.5001 412.503 99.4158 412.566 99.3211 412.609C99.2263 412.652 99.1232 412.674 99.019 412.673L62.028 412.813C61.925 412.812 61.8234 412.789 61.7295 412.747C61.6357 412.704 61.5516 412.643 61.4825 412.568C61.4133 412.492 61.3607 412.403 61.3277 412.306C61.2947 412.209 61.2821 412.106 61.2907 412.004C61.5103 409.017 62.2947 398.655 63.1105 396.959H64.0674C64.0674 396.959 65.0557 402.903 68.9148 402.887C72.7739 402.872 75.6604 400.88 77.5586 395.917C77.5586 395.917 79.9274 396.648 82.908 397.737C84.0532 398.142 85.3082 398.609 86.5318 399.106L87.4103 399.464C88.6653 399.962 89.8732 400.491 90.9557 401.02C92.0154 401.507 93.0243 402.096 93.9677 402.778C97.003 404.926 99.0741 408.164 99.7406 411.802" fill="#0D0D0D"/>
<path d="M60.4909 412.004C60.5062 412.111 60.4972 412.219 60.4646 412.321C60.4321 412.424 60.3767 412.517 60.3026 412.596C60.2404 412.681 60.1576 412.75 60.0617 412.796C59.9659 412.843 59.86 412.865 59.7536 412.86L22.7783 413C22.6752 412.998 22.5736 412.976 22.4798 412.933C22.3859 412.891 22.3018 412.83 22.2327 412.754C22.1636 412.678 22.1109 412.589 22.0779 412.492C22.0449 412.395 22.0324 412.293 22.041 412.191C22.2449 409.204 23.045 398.842 23.8607 397.146H24.8176C24.8176 397.146 25.8059 403.074 29.665 403.058C33.5241 403.043 36.395 401.051 38.3088 396.104C38.3088 396.104 40.6776 396.835 43.6582 397.908L47.282 399.277L48.1605 399.635C49.4155 400.149 50.6235 400.678 51.7059 401.191C52.7607 401.687 53.7686 402.275 54.7179 402.949C57.7493 405.108 59.8187 408.348 60.4909 411.989" fill="#0D0D0D"/>
<path d="M44.3954 50.7051C44.9601 49.0248 44.066 39.9697 44.066 39.9697L60.2083 43.4237L61.3378 51.203L64.7263 57.9242L50.0429 64.1476L39.8774 58.5466L42.7012 52.9455C43.5278 52.4343 44.1321 51.6353 44.3954 50.7051Z" fill="#DC9F67"/>
<path d="M54.4668 48.8847C43.3601 49.9116 33.2888 39.8141 31.971 26.3404C30.6533 12.8668 38.5597 1.10457 49.6664 0.062153C60.7731 -0.980266 70.8445 9.13275 72.1623 22.6064C73.48 36.08 65.5578 47.8578 54.4668 48.8847Z" fill="#DC9F67"/>
<path d="M100.87 107.323L90.5009 68.8153C89.5283 61.9229 82.5003 55.1861 71.7858 53.5058C64.1303 52.3078 65.8873 61.6273 67.1894 70.869C67.6914 74.3853 78.9392 113.997 78.9392 113.997L100.87 107.323Z" fill="#D77600"/>
<path d="M94.0619 200.222C61.5889 203.023 18.9505 198.542 18.9505 198.542C18.9505 198.542 20.7702 280.473 21.7742 307.778C23.4684 354.282 21.7742 391.514 21.7742 391.514L41.5718 391.249C41.5718 391.249 52.302 306.658 53.4315 298.816C54.561 290.975 56.2552 240.565 56.2552 238.325L57.9495 236.645C63.0322 242.246 60.2084 391.529 60.2084 391.529L81.1669 391.81C81.1669 391.81 87.8811 336.919 92.3991 284.814C96.917 232.708 94.0933 200.222 94.0933 200.222" fill="#002D74"/>
<path d="M84.4141 59.6672C83.9905 57.2868 76.1782 54.5329 73.9662 53.7861C69.7927 52.731 65.5672 51.8898 61.3064 51.2656C61.0711 51.2656 64.2557 60.7252 52.3019 60.6007C43.1404 60.4762 42.6384 52.8215 42.6384 52.8215C42.6384 52.8215 35.2653 53.615 30.6375 54.2684C19.8603 55.8243 14.4324 60.2118 14.4324 60.2118L17.3816 201.934C42.7959 206.505 68.8806 205.923 94.0618 200.223C94.0618 200.223 94.705 117.996 84.4141 59.6205" fill="#D77600"/>
<path d="M0.0314941 136.868C0.0314941 136.868 5.72602 94.7821 7.46732 88.6365C9.20863 82.4909 13.4599 77.5433 17.9152 77.4811C22.3704 77.4189 25.1157 81.8842 25.2098 86.4895L13.0207 140.571" fill="#DC9F67"/>
<path d="M12.393 214.458C15.0285 214.645 15.5305 212.389 16.2521 207.659C16.4874 205.963 17.2405 200.86 16.111 197.717C16.111 197.546 15.9855 197.344 15.9227 197.188C14.652 194.31 13.4755 192.832 10.6674 192.396C6.1808 191.727 6.47885 200.673 6.68279 203.738C6.94754 206.361 7.78822 208.894 9.14573 211.159C10.2909 213.104 11.5616 214.396 12.393 214.458Z" fill="#DC9F67"/>
<path d="M3.09034 130.675C2.03215 131.543 1.19611 132.646 0.650763 133.896C0.105416 135.145 -0.133725 136.505 -0.0471475 137.863C0.705849 151.01 2.02359 200.284 9.45943 200.237C17.4757 200.237 14.7774 133.118 11.64 131.422C9.19272 130.115 6.57294 127.813 3.02758 130.675" fill="#DC9F67"/>
<path d="M34.9829 113.561L37.8694 77.1857C39.1558 71.0712 33.5868 60.9738 26.7941 57.7687C21.6329 55.326 11.3106 59.3246 9.53792 67.6172C8.87905 70.7289 1.96091 106.513 1.96091 106.513L34.9829 113.561Z" fill="#D77600"/>
</g>
<defs>
<clipPath id="clip0_1872_6809">
<rect width="97" height="396" fill="white" transform="translate(130 17)"/>
</clipPath>
<clipPath id="clip1_1872_6809">
<rect width="106" height="413" fill="white"/>
</clipPath>
</defs>
</svg>
