<svg width="108" height="423" viewBox="0 0 108 423" fill="none" xmlns="http://www.w3.org/2000/svg">
<g clip-path="url(#clip0_1874_7008)">
<path d="M1.58222 130.413C1.58222 130.413 9.3342 96.0092 11.5399 89.8901C13.7456 83.771 18.4447 78.9745 22.984 79.2294C27.5233 79.4844 29.9688 84.249 29.729 88.9499L13.5218 143.321" fill="#C79C80"/>
<path d="M8.42305 219.173C11.1083 219.332 11.6197 217.006 12.2111 212.145C12.4349 210.408 13.1062 205.182 11.9074 201.963C11.8275 201.788 11.7795 201.58 11.6996 201.421C10.373 198.505 9.14229 197.007 6.26527 196.64C1.67803 196.019 2.14155 205.182 2.41326 208.305C2.71472 210.993 3.61588 213.579 5.05057 215.874C6.24932 217.85 7.57592 219.061 8.42305 219.189" fill="#C79C80"/>
<path d="M4.77912 119.992C2.41358 121.585 0.463598 136.899 0.431631 139.624C0.255814 153.105 -1.94991 203.556 5.61024 204.018C13.7618 204.528 15.8556 135.831 12.7868 133.903C10.3893 132.389 8.58319 117.346 4.79512 120.023" fill="#C79C80"/>
<path d="M69.464 413.916C68.8087 405.535 68.3931 398.953 68.505 397.503C68.8726 392.882 73.3001 389.918 76.273 390.396C79.2459 390.874 82.986 396.308 82.6664 399.75L82.5705 413.263L69.464 413.916Z" fill="#C79C80"/>
<path d="M29.6651 413.821C29.0258 405.44 28.5942 398.858 28.7061 397.408C29.0578 392.803 33.4053 389.839 36.3143 390.317C39.2232 390.795 42.9314 396.245 42.7076 399.687V413.2L29.6651 413.821Z" fill="#C79C80"/>
<path d="M6.37711 421.789C6.35083 422.011 6.41404 422.234 6.5529 422.41C6.62215 422.49 6.70802 422.555 6.80459 422.599C6.90116 422.643 7.00615 422.665 7.11233 422.665L44.8013 422.809C44.9063 422.807 45.0098 422.783 45.1054 422.74C45.201 422.697 45.2867 422.634 45.3571 422.557C45.4276 422.479 45.4812 422.388 45.5148 422.288C45.5484 422.189 45.5613 422.084 45.5525 421.98C45.3287 418.92 44.5296 408.308 43.6984 406.571H42.7234C42.7234 406.571 41.7165 412.658 37.7845 412.642C33.8526 412.626 30.9116 410.586 28.9776 405.503C28.9776 405.503 26.5642 406.252 23.5273 407.367C22.3605 407.782 21.0819 408.26 19.8352 408.77L18.9401 409.136C17.6614 409.646 16.4307 410.188 15.3278 410.73C14.248 411.228 13.2201 411.831 12.259 412.53C9.16637 414.73 7.05624 418.046 6.37711 421.773" fill="#0D0D0D"/>
<path d="M46.3678 421.98C46.3522 422.089 46.3614 422.2 46.3946 422.305C46.4278 422.41 46.4842 422.506 46.5596 422.586C46.6231 422.674 46.7074 422.744 46.8051 422.792C46.9027 422.839 47.0106 422.861 47.119 422.857L84.792 423C84.897 422.998 85.0005 422.975 85.0961 422.932C85.1917 422.888 85.2774 422.826 85.3479 422.748C85.4183 422.67 85.472 422.579 85.5056 422.48C85.5392 422.381 85.552 422.276 85.5432 422.171C85.3354 419.112 84.5203 408.499 83.6891 406.762H82.7142C82.7142 406.762 81.7072 412.833 77.7753 412.817C73.8434 412.801 70.9184 410.762 68.9684 405.694C68.9684 405.694 66.5549 406.443 63.5181 407.543L59.8259 408.945L58.9308 409.312C57.6522 409.838 56.4214 410.379 55.3186 410.905C54.2439 411.413 53.2169 412.016 52.2498 412.706C49.1611 414.917 47.0527 418.235 46.3678 421.964" fill="#0D0D0D"/>
<path d="M62.7669 51.9328C62.1915 50.2118 63.1025 40.9375 63.1025 40.9375L46.6556 44.4751L45.5048 52.4427L42.0524 59.3267L57.0128 65.7008L67.3701 59.9641L64.4931 54.2275C63.6508 53.7039 63.0352 52.8855 62.7669 51.9328Z" fill="#C79C80"/>
<path d="M52.5053 50.0686C63.8216 51.1203 74.083 40.7784 75.4256 26.9785C76.7682 13.1786 68.7126 1.1316 57.3963 0.0639416C46.08 -1.00372 35.8186 9.35416 34.476 23.1541C33.1334 36.9539 41.2051 49.0169 52.5053 50.0686Z" fill="#C79C80"/>
<path d="M5.22674 109.921L15.7918 70.4815C16.7827 63.4222 23.9433 56.5223 34.86 54.8013C42.6599 53.5742 40.8698 63.1194 39.5432 72.585C39.0317 76.1863 27.5716 116.757 27.5716 116.757L5.22674 109.921Z" fill="#36AEFF"/>
<path d="M12.1633 205.07C45.2489 207.938 88.6919 203.349 88.6919 203.349C88.6919 203.349 86.8378 287.263 85.8149 315.23C84.0887 362.86 85.8149 400.993 85.8149 400.993L65.6438 400.722C65.6438 400.722 54.7111 314.082 53.5603 306.051C52.4095 298.02 50.6833 246.39 50.6833 244.095L48.9571 242.374C43.7784 248.111 46.6555 401.009 46.6555 401.009L25.3016 401.296C25.3016 401.296 18.4607 345.076 13.8575 291.709C9.25426 238.342 12.1313 205.07 12.1313 205.07" fill="#002D74"/>
<path d="M21.9933 61.1118C22.4249 58.6738 30.3846 55.8532 32.6383 55.0883C36.8906 54.0077 41.1958 53.1461 45.5369 52.5068C45.7767 52.5068 42.532 62.1954 54.7114 62.068C64.0457 61.9405 64.5572 54.1004 64.5572 54.1004C64.5572 54.1004 72.0694 54.9131 76.7845 55.5823C87.7651 57.1759 93.2954 61.6696 93.2954 61.6696L90.2905 206.823C64.3967 211.505 37.8199 210.909 12.1635 205.07C12.1635 205.07 11.5082 120.853 21.9933 61.064" fill="#36AEFF"/>
<path d="M107.968 140.182C107.968 140.182 102.166 97.077 100.392 90.7826C98.618 84.4882 94.2865 79.4208 89.7472 79.3571C85.2079 79.2934 82.4108 83.8668 82.3149 88.5836L94.734 143.974" fill="#C79C80"/>
<path d="M95.3734 219.651C92.6881 219.842 92.1767 217.532 91.4415 212.687C91.2017 210.951 90.4345 205.724 91.5853 202.505C91.5853 202.33 91.7132 202.122 91.7771 201.963C93.0717 199.015 94.2705 197.501 97.1315 197.055C101.703 196.37 101.399 205.533 101.191 208.672C100.922 211.358 100.065 213.952 98.6819 216.273C97.5152 218.265 96.2205 219.587 95.3734 219.651Z" fill="#C79C80"/>
<path d="M104.851 133.84C105.929 134.728 106.781 135.858 107.337 137.138C107.892 138.417 108.136 139.81 108.048 141.202C107.281 154.667 105.938 205.134 98.3618 205.086C90.1943 205.086 92.9435 136.341 96.1402 134.604C98.6336 133.266 101.303 130.907 104.915 133.84" fill="#C79C80"/>
<path d="M72.3569 116.31L69.4159 79.0539C68.1053 72.7914 73.7794 62.4494 80.7002 59.1668C85.9588 56.6649 96.4759 60.7603 98.282 69.2537C98.9533 72.4408 106.002 109.092 106.002 109.092L72.3569 116.31Z" fill="#36AEFF"/>
</g>
<defs>
<clipPath id="clip0_1874_7008">
<rect width="108" height="423" fill="white" transform="matrix(-1 0 0 1 108 0)"/>
</clipPath>
</defs>
</svg>
