<svg width="24" height="24" viewBox="0 0 24 24" fill="none" xmlns="http://www.w3.org/2000/svg">
<path d="M3.83047 9.59612C6.05381 14.4378 10.0044 18.2753 14.9087 20.357L15.6962 20.7079C16.5682 21.0962 17.5494 21.1643 18.4667 20.9001C19.3841 20.6359 20.1787 20.0565 20.7107 19.2638L21.7402 17.7305C21.9013 17.49 21.9665 17.1979 21.923 16.9118C21.8795 16.6256 21.7304 16.3662 21.5051 16.1844L18.017 13.3703C17.8955 13.2724 17.7555 13.2 17.6053 13.1575C17.4552 13.115 17.298 13.1034 17.1432 13.1231C16.9884 13.1429 16.8392 13.1938 16.7046 13.2727C16.57 13.3516 16.4527 13.4569 16.3598 13.5822L15.2804 15.0379C12.5098 13.6696 10.2672 11.4266 8.89939 8.65576L10.3539 7.57643C10.4793 7.4835 10.5846 7.3662 10.6635 7.23157C10.7424 7.09694 10.7932 6.94776 10.813 6.79298C10.8328 6.6382 10.8211 6.48101 10.7787 6.33086C10.7362 6.18071 10.6638 6.04069 10.5659 5.91921L7.75173 2.43107C7.57003 2.20577 7.31054 2.05668 7.02438 2.01316C6.73823 1.96965 6.44616 2.03487 6.20569 2.19598L4.66197 3.2313C3.86452 3.76608 3.2828 4.56659 3.02045 5.49022C2.7581 6.41385 2.83216 7.40062 3.22942 8.27475L3.83047 9.59612Z" fill="#00538B"/>
</svg>
