<svg width="20" height="20" viewBox="0 0 20 20" fill="none" xmlns="http://www.w3.org/2000/svg">
<path d="M10 0C4.47826 0 0 4.47826 0 10C0 15.5217 4.47826 20 10 20C15.5217 20 20 15.5217 20 10C20 4.47826 15.5217 0 10 0ZM15.6522 11.7391C15.6522 12 15.4783 12.1739 15.2174 12.1739H12.1739V15.2174C12.1739 15.4783 12 15.6522 11.7391 15.6522H8.26087C8 15.6522 7.82609 15.4783 7.82609 15.2174V12.1739H4.78261C4.52174 12.1739 4.34783 12 4.34783 11.7391V8.26087C4.34783 8 4.52174 7.82609 4.78261 7.82609H7.82609V4.78261C7.82609 4.52174 8 4.34783 8.26087 4.34783H11.7391C12 4.34783 12.1739 4.52174 12.1739 4.78261V7.82609H15.2174C15.4783 7.82609 15.6522 8 15.6522 8.26087V11.7391Z" fill="#626F7B"/>
</svg>
