<svg width="32" height="32" viewBox="0 0 32 32" fill="none" xmlns="http://www.w3.org/2000/svg">
<path fill-rule="evenodd" clip-rule="evenodd" d="M10.2765 5.83724C10.2765 7.58838 8.8569 9.00797 7.10575 9.00797C5.3546 9.00797 3.93502 7.58838 3.93502 5.83724C3.93502 4.08609 5.3546 2.6665 7.10575 2.6665C8.8569 2.6665 10.2765 4.08609 10.2765 5.83724ZM4.56917 10.9105H9.64234C11.3907 10.9105 12.8131 12.3329 12.8131 14.0812V21.0568C12.8131 21.3479 12.6152 21.6009 12.333 21.6719L10.2289 22.1983L9.63917 28.0958C9.60683 28.4193 9.33415 28.6666 9.00819 28.6666H5.20332C4.87736 28.6666 4.60468 28.4193 4.57234 28.0958L3.98258 22.1983L1.87849 21.6719C1.59629 21.6009 1.39844 21.3479 1.39844 21.0568V14.0812C1.39844 12.3329 2.82083 10.9105 4.56917 10.9105ZM22.9594 9.00797C24.7106 9.00797 26.1301 7.58838 26.1301 5.83724C26.1301 4.08609 24.7106 2.6665 22.9594 2.6665C21.2083 2.6665 19.7887 4.08609 19.7887 5.83724C19.7887 7.58838 21.2083 9.00797 22.9594 9.00797ZM26.9989 12.3037L29.9115 22.7893C29.9648 22.9802 29.9255 23.185 29.8056 23.3429C29.6858 23.5008 29.4987 23.5934 29.3009 23.5934H26.0559L25.4909 28.1111C25.4516 28.4281 25.1814 28.6666 24.8618 28.6666H21.057C20.7373 28.6666 20.4672 28.4281 20.4279 28.1111L19.8629 23.5934H16.6179C16.4201 23.5934 16.233 23.5008 16.1132 23.3429C15.9933 23.185 15.954 22.9802 16.0072 22.7893L18.9199 12.3037C19.1475 11.4838 19.9009 10.9105 20.7526 10.9105H25.1662C26.0179 10.9105 26.7712 11.4838 26.9989 12.3037Z" fill="#16A34A"/>
</svg>
