<svg width="666" height="389" viewBox="0 0 666 389" fill="none" xmlns="http://www.w3.org/2000/svg">
<path opacity="0.9" d="M530.513 182.566C530.513 182.566 542.201 207.491 619.922 202.402C731.267 195.06 586.412 389 586.412 389H116.346C116.346 389 -12.6606 264.212 66.9383 185.223C127.143 125.422 202.404 250.34 253.673 168.742C354.236 8.67307 530.497 182.501 530.497 182.501" fill="#E0F2FF"/>
<path opacity="0.1" d="M595.16 48.1016C637.386 130.044 513.576 280.219 617.658 254.968C726.907 228.469 616.832 389 616.832 389H147.554C147.554 389 -85.6839 329.18 34.3203 278.63C116.925 243.801 194.963 184.03 250.746 130.401C387.287 -0.876003 569.828 -0.875998 595.079 48.1016" fill="#36AEFF"/>
<g clip-path="url(#clip0_1917_8099)">
<path d="M306.258 380.647C306.876 373.054 307.287 367.081 307.199 365.781C306.905 361.605 303.141 358.947 300.598 359.385C298.055 359.823 294.82 364.788 295.026 367.913V380.151L306.258 380.647Z" fill="#C79C80"/>
<path d="M343.438 380.735C344.026 373.126 344.423 367.154 344.32 365.854C343.997 361.663 340.042 358.991 337.381 359.414C334.72 359.838 331.368 364.788 331.603 367.913V380.165L343.438 380.735Z" fill="#C79C80"/>
<path d="M364.623 387.934C364.635 388.03 364.627 388.128 364.599 388.221C364.571 388.314 364.524 388.4 364.461 388.474C364.4 388.552 364.322 388.615 364.233 388.658C364.144 388.701 364.046 388.723 363.947 388.722L329.663 388.854C329.567 388.852 329.472 388.831 329.385 388.791C329.298 388.751 329.22 388.694 329.156 388.622C329.093 388.551 329.045 388.467 329.015 388.376C328.986 388.285 328.976 388.189 328.987 388.094C329.178 385.334 329.913 375.696 330.663 374.134H331.559C331.559 374.134 332.471 379.654 336.043 379.639C339.616 379.625 342.291 377.785 344.056 373.17C344.056 373.17 346.261 373.856 349.025 374.849C350.083 375.244 351.245 375.682 352.391 376.134L353.2 376.456C354.361 376.938 355.479 377.419 356.478 377.916C357.46 378.38 358.399 378.927 359.286 379.552C362.094 381.557 364.008 384.568 364.623 387.948" fill="#0D0D0D"/>
<path d="M328.178 388.065C328.191 388.164 328.184 388.264 328.156 388.36C328.128 388.455 328.08 388.544 328.016 388.62C327.952 388.694 327.873 388.753 327.784 388.793C327.696 388.833 327.599 388.854 327.501 388.854L293.218 388.985C293.122 388.985 293.027 388.966 292.939 388.928C292.851 388.89 292.772 388.834 292.707 388.764C292.642 388.694 292.592 388.611 292.561 388.521C292.53 388.431 292.519 388.335 292.527 388.24C292.718 385.466 293.453 375.842 294.217 374.265H295.099C295.099 374.265 296.026 379.785 299.598 379.77C303.171 379.756 305.846 377.901 307.61 373.301C307.61 373.301 309.801 373.973 312.565 374.981C313.638 375.36 314.785 375.798 315.931 376.251L316.755 376.587C317.901 377.054 319.033 377.551 320.033 378.047C321.015 378.502 321.95 379.05 322.826 379.683C325.645 381.675 327.565 384.684 328.178 388.065Z" fill="#0D0D0D"/>
<path d="M307.405 53.3892L307.934 42.5975L324.062 40.9619L325.399 55.6819L325.267 61.4064L324.356 63.4947L317.549 64.5315L307.42 60.8953L307.405 53.3892Z" fill="#C79C80"/>
<path d="M355.258 192.003C325.135 194.602 285.073 187.841 285.073 187.841C285.073 188.06 287.175 242.457 291.365 292.4C293.482 318.273 293.482 344.274 291.365 370.147H312.374C312.374 370.147 319.724 291.29 320.709 284.076C321.694 276.862 320.709 232.059 320.709 230.044C320.709 228.029 320.224 226.087 323.841 226.408C326.855 226.627 328.031 272.7 328.031 276.862C328.031 281.024 325.399 370.235 325.399 370.235H346.422L355.243 271.663L355.258 192.003Z" fill="#002D74"/>
<path d="M360.315 115.57C361.203 116.306 362.249 116.831 363.373 117.105C364.496 117.378 365.668 117.392 366.798 117.147C377.677 114.84 418.68 107.407 417.533 101.405C416.313 94.9354 360.624 105.786 359.683 108.516C358.933 110.663 357.404 113.087 360.315 115.57Z" fill="#C79C80"/>
<path d="M430.898 96.7464C430.604 93.8257 428.354 93.6943 423.723 93.7089C422.077 93.7089 417.093 93.7089 414.314 95.4029L413.844 95.6803C411.33 97.4765 410.139 98.966 410.257 102.033C410.448 106.925 418.901 105.202 421.768 104.515C424.246 103.801 426.512 102.498 428.369 100.718C430.001 99.2581 431 97.6372 430.898 96.7464Z" fill="#C79C80"/>
<path d="M339.454 97.1548C339.454 97.1548 345.555 104.734 351.362 111.451C354.192 114.926 357.288 118.178 360.624 121.177C364.917 124.39 400.671 112.328 404.611 110.955C404.665 110.961 404.719 110.961 404.773 110.955H404.979L401.935 97.8996L366.255 102.587L346.54 61.5522L339.454 97.1548Z" fill="#DEF6FF"/>
<path d="M303.803 57.3466L316.02 200.283H325.811L331.515 57.5364L325.399 55.6818C325.399 55.6818 326.458 63.4799 318.049 63.4799C309.639 63.4799 307.39 53.6958 307.39 53.6958L303.803 57.3466Z" fill="#F2FBFE"/>
<path d="M321.577 147.069C321.577 147.069 316.02 125.865 312.756 61.8007C310.152 59.6246 308.288 56.702 307.42 53.4331C301.539 58.1499 294.865 58.8509 293.057 60.7347C290.249 63.6553 288.293 78.536 286.955 97.8998C286.955 98.1919 286.955 98.4986 286.882 98.8198C286.25 108.224 285.75 118.607 285.412 129.18C285.265 132.641 285.162 136.116 285.044 139.592C284.089 171.31 284.03 202.006 284.03 208.899V210.359C287.426 213.148 312.257 214.2 317.005 212.214C320.151 210.899 320.975 197.888 320.975 197.888C322.783 165.133 321.665 147.113 321.665 147.113" fill="#DEF6FF"/>
<path d="M254.45 120.053C260.478 125.471 278.075 139.461 289.733 147.799L293.365 142.25C281.604 128.713 260.125 108.838 257.978 109.334C255.523 109.889 252.318 109.918 251.833 113.715C251.71 114.896 251.878 116.09 252.324 117.191C252.77 118.293 253.479 119.271 254.391 120.038" fill="#C79C80"/>
<path d="M289.792 147.755C289.792 147.755 293.57 150.179 294.688 152.253C295.805 154.326 298.716 161.263 301.48 160.752C304.244 160.241 307.36 152.136 301.759 146.601C299.275 144.163 291.659 141.008 291.659 141.008" fill="#C79C80"/>
<path d="M317.167 48.3072C306.199 49.1688 296.408 39.078 295.291 25.7453C294.174 12.4126 302.142 0.919849 313.094 0.0436574C324.047 -0.832535 333.867 9.27287 334.999 22.6056C336.131 35.9383 328.149 47.431 317.196 48.3072" fill="#C79C80"/>
<path d="M248.319 111.159C247.893 119.249 255.861 125.938 264.682 133.312C273.503 140.687 279.839 145.272 279.839 145.272L280.765 144.25L284.514 140.132L284.985 139.621L288.881 135.328L290.027 134.101L289.042 133.079L285.352 129.209L284.691 128.508L278.016 121.542L269.872 113.452L274.458 109.276L277.311 106.691L286.94 97.9288L287.528 97.3885L291.703 93.5771L293.703 91.7517L293.041 60.7637C293.041 60.7637 272.738 76.6666 259.507 91.9123C258.463 93.0952 257.464 94.3218 256.567 95.4901C255.097 97.2863 253.832 99.0679 252.686 100.806C250.157 104.661 248.54 108.239 248.378 111.203" fill="#DEF6FF"/>
<path d="M321.695 146.981C321.695 146.981 323.032 207.789 327.046 212.447C331.059 217.106 356.302 209.833 356.302 209.833C357.434 122.696 346.54 61.4649 346.54 61.4649C343.243 59.1134 339.333 57.7593 335.279 57.5658C334.222 57.4786 333.16 57.4786 332.103 57.5658H331.603L325.399 55.6382C325.399 55.6382 325.252 60.0191 323.047 61.9906C323.047 61.9906 322.724 74.5055 324.12 92.4528C326.855 127.72 321.695 146.937 321.695 146.937" fill="#DEF6FF"/>
<path d="M325.12 52.9658C327.776 54.4044 330.006 56.509 331.589 59.0699C333.368 61.9977 334.519 65.2591 334.97 68.6496C334.981 68.8026 335.023 68.9519 335.093 69.0887C335.162 69.2255 335.259 69.3471 335.377 69.4463C335.495 69.5456 335.631 69.6205 335.778 69.6668C335.925 69.713 336.08 69.7297 336.234 69.7157C336.541 69.6825 336.823 69.5306 337.018 69.2929C337.214 69.0552 337.307 68.7507 337.278 68.4452C337.278 68.0509 336.308 58.7341 329.339 52.995C327.976 51.9289 326.496 51.0178 324.929 50.2788L325.12 52.9658Z" fill="#0D0D0D"/>
<path d="M296.467 101.594C296.503 101.873 296.642 102.129 296.856 102.312C297.07 102.495 297.345 102.593 297.628 102.587H297.775C297.928 102.57 298.075 102.521 298.209 102.446C298.342 102.37 298.459 102.269 298.552 102.148C298.645 102.027 298.713 101.888 298.751 101.74C298.79 101.593 298.798 101.439 298.775 101.288C298.775 100.952 294.453 69.1607 304.656 56.2515C305.42 55.2141 306.348 54.3066 307.405 53.5645V53.3893L307.552 50.7461C305.73 51.7972 304.125 53.1793 302.818 54.8204C291.998 68.4306 296.261 100.251 296.467 101.551" fill="#0D0D0D"/>
<path d="M329.442 106.296C329.601 106.557 329.857 106.745 330.154 106.819C330.452 106.892 330.767 106.846 331.03 106.691L337.234 103.025L336.94 102.135C335.352 97.2424 332.309 86.2608 332.059 78.4335C331.912 75.2062 332.265 72.5922 333.368 71.0151C333.622 70.6358 333.971 70.3287 334.381 70.1239C334.791 69.9191 335.247 69.8236 335.705 69.8468C336.208 69.8398 336.706 69.9528 337.156 70.1765C337.607 70.4001 337.996 70.7277 338.293 71.1319C339.57 73.1353 340.266 75.4493 340.307 77.8202C341.056 85.6621 339.16 97.0964 338.057 102.12L337.896 102.835L343.173 106.764C343.367 106.913 343.605 106.995 343.85 106.997C344.033 107.003 344.216 106.964 344.38 106.882C344.544 106.801 344.685 106.68 344.791 106.53C344.887 106.41 344.957 106.272 344.998 106.124C345.038 105.976 345.048 105.821 345.026 105.669C345.003 105.517 344.95 105.372 344.87 105.241C344.789 105.11 344.682 104.997 344.555 104.909L340.483 101.857C341.145 98.7028 343.423 86.5383 342.644 77.6303C342.557 74.7965 341.682 72.0419 340.116 69.6716C339.6 68.997 338.932 68.4515 338.167 68.0788C337.401 67.7061 336.558 67.5164 335.705 67.5249C334.878 67.5048 334.06 67.6876 333.321 68.0569C332.583 68.4263 331.947 68.9708 331.471 69.6424C330.001 71.6138 329.575 74.8849 329.722 78.6234C330.001 87.2538 333.309 98.4253 334.441 101.988L329.839 104.705C329.704 104.781 329.586 104.884 329.492 105.008C329.398 105.131 329.33 105.273 329.293 105.423C329.256 105.573 329.25 105.73 329.275 105.882C329.301 106.035 329.358 106.181 329.442 106.311" fill="white"/>
<path d="M341.41 105.581C341.41 105.862 341.466 106.141 341.575 106.401C341.683 106.66 341.843 106.896 342.044 107.094C342.244 107.292 342.483 107.449 342.745 107.555C343.007 107.662 343.288 107.715 343.571 107.713C343.854 107.715 344.135 107.662 344.397 107.555C344.659 107.449 344.897 107.292 345.098 107.094C345.299 106.896 345.458 106.66 345.567 106.401C345.676 106.141 345.732 105.862 345.732 105.581C345.732 105.012 345.504 104.466 345.099 104.063C344.694 103.661 344.144 103.435 343.571 103.435C342.998 103.435 342.448 103.661 342.043 104.063C341.637 104.466 341.41 105.012 341.41 105.581Z" fill="#0D0D0D"/>
<path d="M328.678 105.508C328.678 106.073 328.904 106.616 329.307 107.016C329.709 107.415 330.255 107.64 330.824 107.64C331.107 107.642 331.388 107.588 331.65 107.482C331.912 107.376 332.151 107.219 332.351 107.021C332.552 106.823 332.712 106.587 332.821 106.327C332.929 106.068 332.985 105.789 332.985 105.508C332.985 104.939 332.758 104.393 332.352 103.99C331.947 103.588 331.397 103.361 330.824 103.361C330.541 103.361 330.261 103.417 329.999 103.525C329.738 103.633 329.501 103.791 329.301 103.991C329.102 104.19 328.944 104.427 328.837 104.688C328.73 104.948 328.676 105.227 328.678 105.508Z" fill="#0D0D0D"/>
<path d="M293.233 105.844C293.237 107.344 293.839 108.782 294.909 109.841C295.978 110.901 297.427 111.496 298.937 111.496C300.446 111.496 301.893 110.9 302.96 109.84C304.027 108.781 304.626 107.343 304.626 105.844C304.626 104.344 304.028 102.905 302.961 101.843C301.894 100.781 300.447 100.182 298.937 100.178C297.424 100.178 295.973 100.775 294.904 101.838C293.834 102.9 293.233 104.342 293.233 105.844Z" fill="#0D0D0D"/>
<path d="M295.761 105.844C295.765 106.678 296.101 107.477 296.697 108.065C297.292 108.654 298.097 108.984 298.937 108.984C299.775 108.984 300.579 108.653 301.172 108.064C301.765 107.476 302.098 106.677 302.098 105.844C302.098 105.012 301.765 104.213 301.172 103.624C300.579 103.035 299.775 102.705 298.937 102.705C298.097 102.705 297.292 103.035 296.697 103.623C296.101 104.212 295.765 105.01 295.761 105.844Z" fill="white"/>
<path d="M332.059 78.4335C331.912 75.2062 332.265 72.5922 333.367 71.0151C333.622 70.6358 333.971 70.3287 334.381 70.1239C334.79 69.9191 335.247 69.8236 335.705 69.8468C336.208 69.8398 336.706 69.9528 337.156 70.1764C337.606 70.4001 337.996 70.7277 338.292 71.1319C339.569 73.1353 340.266 75.4493 340.307 77.8202L342.644 77.6303C342.557 74.7965 341.681 72.0419 340.115 69.6716C339.6 68.997 338.932 68.4515 338.166 68.0788C337.401 67.7061 336.558 67.5164 335.705 67.5249C334.878 67.5048 334.06 67.6876 333.321 68.0569C332.582 68.4263 331.947 68.9708 331.471 69.6424C330.001 71.6138 329.574 74.8849 329.721 78.6233L332.059 78.4335Z" fill="#241F21"/>
</g>
<g clip-path="url(#clip1_1917_8099)">
<path d="M418.931 162.619C418.931 162.619 419.75 126.582 420.626 120.763C421.503 114.943 424.837 109.883 428.904 109.295C432.971 108.708 436.018 112.535 436.593 116.749L431.707 167.793" fill="#B48552"/>
<path d="M440.703 234.777C443.132 234.648 443.333 232.512 443.405 228.083C443.405 226.492 443.52 221.719 442.111 218.967C442.025 218.809 441.953 218.637 441.867 218.508C440.43 215.999 439.122 214.781 436.507 214.724C432.325 214.623 433.632 222.808 434.207 225.589C434.755 227.972 435.825 230.204 437.34 232.125C438.619 233.774 439.941 234.82 440.703 234.777Z" fill="#C79C80"/>
<path d="M421 156.541C420.147 157.467 419.524 158.58 419.182 159.79C418.84 161 418.788 162.274 419.031 163.507C421.287 175.491 428.315 220.572 435.098 219.655C442.413 218.666 432.008 157.401 428.947 156.211C426.561 155.294 423.888 153.502 421 156.541Z" fill="#B48552"/>
<path d="M435.098 383.51C434.71 374.909 434.48 368.23 434.609 366.782C435.026 362.094 438.921 359.328 441.407 359.959C443.893 360.589 447.055 366.337 446.753 369.821L446.408 383.582L435.098 383.51Z" fill="#B48552"/>
<path d="M418.283 386.907C418.168 387.065 416.645 389 418.887 389H449.067C449.152 388.997 449.235 388.976 449.312 388.939C449.388 388.902 449.457 388.849 449.512 388.784C449.567 388.72 449.609 388.645 449.633 388.563C449.658 388.482 449.666 388.396 449.656 388.312C449.483 385.804 448.808 377.06 448.132 375.626H447.356C447.356 375.626 443.965 378.923 440.832 378.923C437.699 378.923 435.299 378.235 434.623 375.368C434.623 375.368 425.469 376.888 418.326 386.907" fill="#241F21"/>
<path d="M474.404 383.51C474.016 374.909 473.786 368.23 473.915 366.782C474.317 362.094 478.226 359.328 480.713 359.959C483.199 360.589 486.361 366.337 486.044 369.821L485.714 383.582L474.404 383.51Z" fill="#B48552"/>
<path d="M457.575 386.907C457.474 387.065 455.951 389 458.178 389H488.358C488.443 388.997 488.528 388.976 488.605 388.939C488.682 388.902 488.751 388.85 488.808 388.785C488.864 388.721 488.907 388.646 488.933 388.564C488.96 388.483 488.969 388.397 488.961 388.312C488.775 385.804 488.099 377.06 487.438 375.626H486.648C486.648 375.626 483.27 378.923 480.123 378.923C476.976 378.923 474.605 378.235 473.929 375.368C473.929 375.368 464.76 376.888 457.618 386.907" fill="#241F21"/>
<path d="M426.418 190.499C427.409 165.829 444.022 147.008 464.243 147.209C484.463 147.41 496.837 166.36 497.814 190.714H497.915V191.817C497.915 192.348 497.915 192.878 497.915 193.394H497.814L492.655 368.516H468.798L463.05 220.3L461.527 216.802L453.263 267.531L451.826 368.516H427.984L420.985 268.377L426.418 190.499Z" fill="#002D74"/>
<path d="M508.521 159.608C508.521 159.608 506.667 120.633 505.574 114.857C504.482 109.08 500.976 104.135 496.952 103.719C492.928 103.303 489.996 107.202 489.536 111.431L496.233 162.275" fill="#B48552"/>
<path d="M490.241 230.835C487.798 230.835 487.525 228.657 487.367 224.227C487.28 222.65 487.036 217.891 488.358 215.082C488.358 214.924 488.502 214.738 488.574 214.609C490.011 212.057 491.189 210.796 493.805 210.653C497.973 210.423 496.923 218.637 496.464 221.446C496.009 223.839 495.027 226.101 493.589 228.069C492.368 229.775 491.089 230.85 490.327 230.835" fill="#B48552"/>
<path d="M506.02 154.018C506.931 154.893 507.623 155.968 508.042 157.158C508.462 158.348 508.596 159.619 508.435 160.87C506.61 172.925 500.89 218.278 494.063 217.576C486.72 216.845 495.026 155.265 498.044 153.975C500.401 152.971 503.017 151.108 506.006 153.975" fill="#B48552"/>
<path d="M464.76 67.8261C454.571 67.5967 446.48 56.1866 446.667 42.3254C446.854 28.4641 455.289 17.4267 465.45 17.6418C475.61 17.8568 483.773 29.3099 483.586 43.1281C483.4 56.9464 474.978 68.0124 464.76 67.8261Z" fill="#B48552"/>
<path d="M457.575 82.9918C456.859 75.7993 456.859 68.5538 457.575 61.3614C457.776 55.6277 461.742 51.227 465.349 51.3274C468.957 51.4277 473.771 57.6345 473.613 61.9347L473.167 87.1057L457.575 82.9918Z" fill="#B48552"/>
<path d="M491.72 166.446C498.561 152.47 499.021 118.756 499.021 118.756C499.467 97.2541 496.492 79.8953 477.206 74.1759C473.527 73.0865 470.523 84.1239 465.522 84.0236C460.075 83.9089 457.129 72.7855 453.191 73.8749C434.509 79.0066 428.66 95.491 428.228 116.605C428.228 116.605 427.122 151.882 433.46 166.704C437.972 177.239 486.374 177.354 491.72 166.446Z" fill="#BCEDFF"/>
<path d="M479.749 125.88L475.898 93.1259C474.906 88.3956 479.562 80.01 485.598 78.4332C491.634 76.8565 498.719 80.0673 500.056 86.4318C500.559 88.8399 507.845 121.192 507.845 121.192L479.749 125.88Z" fill="#BCEDFF"/>
<path d="M418.125 121.235L425.311 91.1332C425.9 85.8008 432.957 78.8487 439.093 79.5654C442.364 80.0565 445.322 81.7789 447.359 84.3784C449.396 86.9778 450.356 90.2569 450.044 93.5413C449.742 96.2648 445.819 127.227 445.819 127.227L418.125 121.235Z" fill="#BCEDFF"/>
</g>
<defs>
<clipPath id="clip0_1917_8099">
<rect width="182.592" height="389" fill="white" transform="matrix(-1 0 0 1 430.912 0)"/>
</clipPath>
<clipPath id="clip1_1917_8099">
<rect width="90.8549" height="371.358" fill="white" transform="translate(417.68 17.6416)"/>
</clipPath>
</defs>
</svg>
