<svg width="41" height="31" viewBox="0 0 41 31" fill="none" xmlns="http://www.w3.org/2000/svg">
<path d="M9.9998 12.0504C9.5538 12.0504 9.1258 12.1184 8.6998 12.1804C8.8378 11.7164 8.9798 11.2444 9.2078 10.8204C9.4358 10.2044 9.7918 9.67035 10.1458 9.13235C10.4418 8.55035 10.9638 8.15635 11.3478 7.65835C11.7498 7.17435 12.2978 6.85235 12.7318 6.45035C13.1578 6.03035 13.7158 5.82035 14.1598 5.52435C14.6238 5.25835 15.0278 4.96435 15.4598 4.82435L16.5378 4.38035L17.4858 3.98635L16.5158 0.110352L15.3218 0.398351C14.9398 0.494351 14.4738 0.606351 13.9438 0.740351C13.4018 0.840351 12.8238 1.11435 12.1798 1.36435C11.5438 1.64835 10.8078 1.84035 10.1238 2.29635C9.4358 2.73235 8.6418 3.09635 7.9418 3.68035C7.2638 4.28235 6.4458 4.80435 5.8418 5.57035C5.1818 6.28635 4.5298 7.03835 4.0238 7.89435C3.4378 8.71035 3.0398 9.60635 2.6198 10.4924C2.2398 11.3784 1.9338 12.2844 1.6838 13.1644C1.2098 14.9284 0.997802 16.6044 0.915802 18.0384C0.847802 19.4744 0.887802 20.6684 0.971802 21.5324C1.0018 21.9404 1.0578 22.3364 1.0978 22.6104L1.1478 22.9464L1.1998 22.9344C1.55552 24.596 2.37441 26.123 3.56173 27.3387C4.74905 28.5544 6.25628 29.4091 7.90908 29.804C9.56188 30.1989 11.2927 30.1177 12.9013 29.57C14.5099 29.0223 15.9306 28.0303 16.999 26.7089C18.0674 25.3875 18.7399 23.7906 18.9386 22.1029C19.1374 20.4153 18.8543 18.7059 18.1221 17.1724C17.3899 15.6389 16.2385 14.3441 14.8011 13.4376C13.3637 12.5312 11.6991 12.0502 9.9998 12.0504ZM31.9998 12.0504C31.5538 12.0504 31.1258 12.1184 30.6998 12.1804C30.8378 11.7164 30.9798 11.2444 31.2078 10.8204C31.4358 10.2044 31.7918 9.67035 32.1458 9.13235C32.4418 8.55035 32.9638 8.15635 33.3478 7.65835C33.7498 7.17435 34.2978 6.85235 34.7318 6.45035C35.1578 6.03035 35.7158 5.82035 36.1598 5.52435C36.6238 5.25835 37.0278 4.96435 37.4598 4.82435L38.5378 4.38035L39.4858 3.98635L38.5158 0.110352L37.3218 0.398351C36.9398 0.494351 36.4738 0.606351 35.9438 0.740351C35.4018 0.840351 34.8238 1.11435 34.1798 1.36435C33.5458 1.65035 32.8078 1.84035 32.1238 2.29835C31.4358 2.73435 30.6418 3.09835 29.9418 3.68235C29.2638 4.28435 28.4458 4.80635 27.8418 5.57035C27.1818 6.28635 26.5298 7.03835 26.0238 7.89435C25.4378 8.71035 25.0398 9.60635 24.6198 10.4924C24.2398 11.3784 23.9338 12.2844 23.6838 13.1644C23.2098 14.9284 22.9978 16.6044 22.9158 18.0384C22.8478 19.4744 22.8878 20.6684 22.9718 21.5324C23.0018 21.9404 23.0578 22.3364 23.0978 22.6104L23.1478 22.9464L23.1998 22.9344C23.5555 24.596 24.3744 26.123 25.5617 27.3387C26.749 28.5544 28.2563 29.4091 29.9091 29.804C31.5619 30.1989 33.2927 30.1177 34.9013 29.57C36.5099 29.0223 37.9306 28.0303 38.999 26.7089C40.0674 25.3875 40.7399 23.7906 40.9386 22.1029C41.1374 20.4153 40.8543 18.7059 40.1221 17.1724C39.3899 15.6389 38.2385 14.3441 36.8011 13.4376C35.3637 12.5312 33.6991 12.0502 31.9998 12.0504Z" fill="#00AEEF" fill-opacity="0.2"/>
</svg>
