<svg width="100" height="100" viewBox="0 0 100 100" fill="none" xmlns="http://www.w3.org/2000/svg">
<g clip-path="url(#clip0_2629_8653)">
<path d="M23.4238 67.8469H38.2179V84.0348H23.4238V67.8469Z" fill="#00538B"/>
<path d="M76.5771 84.0349H61.7831V67.847H76.5771V84.0349Z" fill="#00538B"/>
<path d="M45.627 29.4799C44.4532 28.8115 43.1172 28.6567 41.8782 29.014V23.7057C41.8782 22.4723 41.3704 21.2664 40.485 20.3978C39.6085 19.5376 38.4606 19.0782 37.2516 19.0994C36.6236 19.1112 36.0254 19.2534 35.483 19.4992C35.2801 18.6592 34.8433 17.8784 34.2185 17.2654C33.3418 16.4052 32.1952 15.9445 30.985 15.9668C29.645 15.9922 28.4412 16.6099 27.6242 17.565C26.8694 16.9627 25.9213 16.5943 24.8927 16.5749C23.681 16.553 22.5358 17.0132 21.6591 17.8734C20.9739 18.5459 20.5147 19.4202 20.3423 20.3529C19.814 20.1215 19.2342 19.988 18.6264 19.9766C17.4165 19.9523 16.2695 20.4147 15.3929 21.2749C14.5078 22.1434 14 23.3491 14 24.5827C14 24.5827 14.0008 37.8873 14.0025 45.1225C14.0032 48.394 15.3483 51.5846 17.6928 53.8763L21.4184 57.518V60.4329C19.9715 61.1685 18.9777 62.6721 18.9777 64.4033V67.8472C18.9777 68.6239 19.6073 69.2535 20.384 69.2535H41.4323C42.209 69.2535 42.8385 68.6239 42.8385 67.8472V64.4033C42.8385 62.353 41.4451 60.622 39.5554 60.1081V57.832L43.9561 53.9796C46.6157 51.6514 48.1416 48.2934 48.1426 44.7667L48.1442 33.7918C48.1445 31.9895 47.2034 30.3775 45.627 29.4799ZM45.3301 44.7661C45.3294 47.4823 44.1534 50.0692 42.1038 51.8636L37.223 56.1361C36.9179 56.4031 36.7429 56.7889 36.7429 57.1942V61.3589C36.7429 62.1356 37.3724 62.7652 38.1491 62.7652H38.3877C39.2911 62.7652 40.026 63.5001 40.026 64.4033V66.441H21.7902V64.4033C21.7902 63.5001 22.5251 62.7652 23.4283 62.7652C24.205 62.7652 24.8346 62.1356 24.8346 61.3589C24.8346 60.8806 24.5958 60.4581 24.2309 60.204V56.9261C24.2309 56.5477 24.0783 56.185 23.8076 55.9205L19.6588 51.865C17.8521 50.0991 16.8156 47.6414 16.815 45.1218C16.8133 37.8869 16.8125 24.5825 16.8125 24.5827C16.8125 24.0993 17.0132 23.6254 17.363 23.2822C17.6963 22.9552 18.125 22.7791 18.5735 22.7883C19.507 22.806 20.2665 23.5793 20.2665 24.5123V38.1466C20.2665 38.9233 20.8961 39.5529 21.6728 39.5529C22.4495 39.5529 23.079 38.9233 23.079 38.1466V21.1809C23.079 20.6977 23.2797 20.2237 23.6296 19.8804C23.9629 19.5535 24.3904 19.377 24.8399 19.3864C25.7734 19.404 26.5329 20.1774 26.5329 21.1103V38.1465C26.5329 38.9232 27.1625 39.5527 27.9392 39.5527C28.7158 39.5527 29.3454 38.9232 29.3454 38.1465V20.5024C29.3454 19.5695 30.1049 18.7961 31.0385 18.7785C31.4862 18.7747 31.9158 18.9456 32.2489 19.2725C32.5988 19.6158 32.7995 20.09 32.7995 20.5732V38.7255C32.7995 39.5021 33.429 40.1317 34.2057 40.1317C34.9824 40.1317 35.612 39.5021 35.612 38.7255V23.6351C35.612 22.7022 36.3715 21.9289 37.3051 21.9112C37.7552 21.9054 38.1823 22.0783 38.5154 22.4052C38.8653 22.7485 39.066 23.2225 39.066 23.7057V45.0783C35.8535 45.3831 33.3323 48.0877 33.3323 51.3682C33.3323 52.1449 33.9619 52.7745 34.7385 52.7745C35.5152 52.7745 36.1448 52.1449 36.1448 51.3682C36.1448 49.435 37.7268 47.8623 39.6714 47.8623H40.4722C41.2489 47.8623 41.8785 47.2327 41.8785 46.456V32.158C41.907 32.12 41.9915 32.0347 42.1693 31.929C43.0863 31.3848 43.9198 31.7441 44.2354 31.9238C44.9219 32.3148 45.3318 33.013 45.3317 33.7913L45.3301 44.7661Z" fill="#1D376C"/>
<path d="M84.607 21.2744C83.7304 20.4142 82.5836 19.9535 81.3733 19.9762H81.3735C80.7658 19.9877 80.1859 20.1211 79.6577 20.3525C79.4852 19.4197 79.0262 18.5453 78.3408 17.873C77.4641 17.0128 76.3179 16.5526 75.1074 16.5744C74.0788 16.5939 73.1305 16.9623 72.3759 17.5646C71.5588 16.6095 70.3551 15.9917 69.0151 15.9664C67.8087 15.9436 66.6582 16.4047 65.7817 17.2651C65.1569 17.878 64.7201 18.6589 64.5172 19.4989C63.9749 19.2531 63.3767 19.111 62.7487 19.0991C62.72 19.0985 62.6915 19.0982 62.6631 19.0982C61.486 19.0982 60.3711 19.5577 59.5153 20.3976C58.6299 21.2664 58.1221 22.472 58.1221 23.7055V29.0139C56.8832 28.6568 55.5473 28.8115 54.3735 29.4799C52.7971 30.3775 51.8562 31.9895 51.8564 33.7917L51.8578 44.7668C51.859 48.2937 53.3848 51.6515 56.0444 53.9797L60.4453 57.832V60.108C58.5555 60.6221 57.1621 62.3529 57.1621 64.4033V67.8472C57.1621 68.6238 57.7918 69.2534 58.5683 69.2534H79.6167C80.3932 69.2534 81.0229 68.6238 81.0229 67.8472V64.4033C81.0229 62.6719 80.0293 61.1683 78.5822 60.4328V57.518L82.3079 53.8763C84.6523 51.5847 85.9972 48.3942 85.9982 45.1226C85.9993 37.8871 86.0002 24.5825 86.0002 24.5825C86.0002 23.3489 85.4924 22.1432 84.607 21.2744ZM83.1852 45.1216C83.1845 47.6412 82.1479 50.099 80.3413 51.8649L76.1923 55.9203C75.9216 56.185 75.769 56.5474 75.769 56.9259V60.2039C75.4041 60.4579 75.1653 60.8805 75.1653 61.3587C75.1653 62.1354 75.795 62.765 76.5716 62.765C77.4749 62.765 78.2097 63.4999 78.2097 64.4031V66.4408H59.9742V64.4031C59.9742 63.4999 60.7091 62.765 61.6123 62.765H61.8509C62.6275 62.765 63.2572 62.1354 63.2572 61.3587V57.194C63.2572 56.7886 63.0823 56.403 62.7772 56.1359L57.8964 51.8634C55.8468 50.0692 54.6708 47.4823 54.6699 44.7661L54.6685 33.7914C54.6684 33.0131 55.0782 32.3149 55.7648 31.9239C56.0804 31.7441 56.9136 31.3846 57.831 31.9291C58.0092 32.0348 58.0936 32.1203 58.1218 32.1581V46.4559C58.1218 47.2325 58.7516 47.8621 59.5281 47.8621H60.329C62.2734 47.8621 63.8554 49.4349 63.8554 51.368C63.8554 52.1447 64.4851 52.7743 65.2617 52.7743C66.0382 52.7743 66.6679 52.1447 66.6679 51.368C66.6679 48.0875 64.1466 45.3829 60.9343 45.0781V30.9822C60.9343 30.9785 60.9342 30.975 60.9342 30.9715V23.7055C60.9342 23.2224 61.1349 22.7483 61.4846 22.405C61.8179 22.0779 62.2474 21.9031 62.695 21.911C63.6286 21.9287 64.3881 22.702 64.3881 23.6349V38.7254C64.3881 39.5021 65.0178 40.1317 65.7943 40.1317C66.5709 40.1317 67.2006 39.5021 67.2006 38.7254V20.573C67.2006 20.0898 67.4013 19.6157 67.7511 19.2723C68.0844 18.9452 68.5125 18.7717 68.9616 18.7782C69.8953 18.7958 70.6546 19.5692 70.6546 20.5021V38.1462C70.6546 38.9228 71.2843 39.5524 72.0609 39.5524C72.8374 39.5524 73.4671 38.9228 73.4671 38.1462V21.1103C73.4671 20.1774 74.2266 19.404 75.1603 19.3864C75.6066 19.3757 76.0373 19.5533 76.3705 19.8804C76.7203 20.2237 76.921 20.6977 76.921 21.1809V38.1465C76.921 38.9231 77.5507 39.5527 78.3273 39.5527C79.1038 39.5527 79.7335 38.9231 79.7335 38.1465V24.512C79.7335 23.5791 80.4929 22.8057 81.4264 22.788H81.4265C81.8686 22.7804 82.3034 22.9547 82.6367 23.2818C82.9866 23.6251 83.1873 24.0991 83.1873 24.5823C83.1877 24.5823 83.1868 37.8867 83.1852 45.1216Z" fill="#1D376C"/>
</g>
<defs>
<clipPath id="clip0_2629_8653">
<rect width="72" height="72" fill="white" transform="translate(14 14.0002)"/>
</clipPath>
</defs>
</svg>
