<svg width="44" height="44" viewBox="0 0 44 44" fill="none" xmlns="http://www.w3.org/2000/svg">
<rect width="44" height="44" rx="22" fill="#40AE49" fill-opacity="0.1"/>
<path fill-rule="evenodd" clip-rule="evenodd" d="M16.2765 11.8374C16.2765 13.5885 14.8569 15.0081 13.1058 15.0081C11.3546 15.0081 9.93502 13.5885 9.93502 11.8374C9.93502 10.0862 11.3546 8.66663 13.1058 8.66663C14.8569 8.66663 16.2765 10.0862 16.2765 11.8374ZM10.5692 16.9106H15.6423C17.3907 16.9106 18.8131 18.333 18.8131 20.0813V27.0569C18.8131 27.348 18.6152 27.601 18.333 27.6721L16.2289 28.1984L15.6392 34.096C15.6068 34.4194 15.3341 34.6667 15.0082 34.6667H11.2033C10.8774 34.6667 10.6047 34.4194 10.5723 34.096L9.98258 28.1984L7.87849 27.6721C7.59629 27.601 7.39844 27.348 7.39844 27.0569V20.0813C7.39844 18.333 8.82083 16.9106 10.5692 16.9106ZM28.9594 15.0081C30.7106 15.0081 32.1301 13.5885 32.1301 11.8374C32.1301 10.0862 30.7106 8.66663 28.9594 8.66663C27.2083 8.66663 25.7887 10.0862 25.7887 11.8374C25.7887 13.5885 27.2083 15.0081 28.9594 15.0081ZM32.9989 18.3038L35.9115 28.7894C35.9648 28.9803 35.9255 29.1851 35.8056 29.343C35.6858 29.5009 35.4987 29.5935 35.3009 29.5935H32.0559L31.4909 34.1112C31.4516 34.4283 31.1814 34.6667 30.8618 34.6667H27.057C26.7373 34.6667 26.4672 34.4283 26.4279 34.1112L25.8629 29.5935H22.6179C22.4201 29.5935 22.233 29.5009 22.1132 29.343C21.9933 29.1851 21.954 28.9803 22.0072 28.7894L24.9199 18.3038C25.1475 17.4839 25.9009 16.9106 26.7526 16.9106H31.1662C32.0179 16.9106 32.7712 17.4839 32.9989 18.3038Z" fill="#15803D"/>
</svg>
