<svg width="44" height="44" viewBox="0 0 44 44" fill="none" xmlns="http://www.w3.org/2000/svg">
<rect width="44" height="44" rx="22" fill="#40AE49" fill-opacity="0.1"/>
<g clip-path="url(#clip0_2528_7330)">
<path fill-rule="evenodd" clip-rule="evenodd" d="M21.8666 12.4C21.2337 12.4 20.615 12.2123 20.0888 11.8607C19.5625 11.5091 19.1524 11.0093 18.9102 10.4246C18.668 9.83986 18.6046 9.19645 18.7281 8.57571C18.8516 7.95497 19.1563 7.38479 19.6039 6.93726C20.0514 6.48973 20.6216 6.18496 21.2423 6.06149C21.8631 5.93802 22.5065 6.00139 23.0912 6.24359C23.6759 6.48579 24.1757 6.89594 24.5273 7.42218C24.8789 7.94841 25.0666 8.5671 25.0666 9.2C25.0656 10.0484 24.7281 10.8617 24.1282 11.4616C23.5283 12.0615 22.715 12.399 21.8666 12.4ZM18.6666 33.2V36.6286C18.6666 36.9923 18.839 37.3411 19.1459 37.5983C19.4527 37.8555 19.8689 38 20.3029 38H21.2298C21.6232 37.9986 22.003 37.879 22.3002 37.663C22.5974 37.447 22.7924 37.1488 22.8497 36.8226L23.4666 33.2H18.6666ZM29.742 24.2293C29.5527 25.0589 29.1529 25.8319 28.5775 26.481L29.8412 30.7721C29.8698 30.869 29.8744 30.9709 29.8546 31.0698C29.8349 31.1686 29.7913 31.2618 29.7274 31.342C29.6634 31.4222 29.5808 31.4872 29.486 31.532C29.3912 31.5767 29.2867 31.6 29.1809 31.6H16.1525C16.0508 31.6 15.9504 31.5785 15.8585 31.5371C15.7666 31.4957 15.6856 31.4353 15.6213 31.3605C15.557 31.2856 15.511 31.1981 15.4866 31.1042C15.4623 31.0103 15.4602 30.9125 15.4805 30.8178L17.1338 22.9753L20.9305 24.8879C21.0875 24.9808 21.263 25.042 21.4459 25.0677C21.6289 25.0933 21.8155 25.083 21.994 25.0372C22.2565 24.9716 22.4924 24.8333 22.6719 24.6398C22.8513 24.4463 22.966 24.2063 23.0014 23.9506C23.0367 23.6948 22.9912 23.4349 22.8705 23.2038C22.7499 22.9728 22.5595 22.7811 22.3238 22.6533L18.222 20.3758C17.7894 20.1354 17.4641 19.7533 17.3069 19.301C17.1497 18.8488 17.1715 18.3576 17.3683 17.9196L18.595 15.1877C18.7533 14.8353 19.0169 14.5349 19.3533 14.3237C19.6896 14.1126 20.0838 14 20.4868 14H23.3407C23.7896 14 24.2262 14.1395 24.5839 14.3974C24.9416 14.6553 25.2007 15.0173 25.3217 15.4282L26.1357 18.1895C26.982 18.4602 27.7459 18.9235 28.3608 19.5391C28.9757 20.1546 29.423 20.9038 29.6638 21.7212C29.9045 22.5387 29.9314 23.3997 29.742 24.2293Z" fill="#15803D"/>
</g>
<defs>
<clipPath id="clip0_2528_7330">
<rect width="32" height="32" fill="white" transform="translate(6 6)"/>
</clipPath>
</defs>
</svg>
