<svg width="44" height="44" viewBox="0 0 44 44" fill="none" xmlns="http://www.w3.org/2000/svg">
<rect width="44" height="44" rx="22" fill="#40AE49" fill-opacity="0.1"/>
<path d="M35.1424 14.1224L29.873 8.85297C29.625 8.605 29.253 8.605 29.005 8.85297C28.7571 9.10095 28.7571 9.47291 29.005 9.72089L29.9349 10.6508L26.4013 14.1844L21.9997 9.72089C21.7518 9.47291 21.3798 9.47291 21.1318 9.72089C20.8839 9.96886 20.8839 10.3408 21.1318 10.5888L24.1695 13.6265L21.5658 16.2302L23.7356 18.4C23.9835 18.648 23.9835 19.02 23.7356 19.2679C23.6116 19.3919 23.4256 19.4539 23.3016 19.4539C23.1776 19.4539 22.9916 19.3919 22.8677 19.2679L20.6979 17.0981L18.962 18.834L21.1318 21.0038C21.3798 21.2517 21.3798 21.6237 21.1318 21.8717C21.0078 21.9957 20.8219 22.0576 20.6979 22.0576C20.5739 22.0576 20.3879 21.9957 20.2639 21.8717L18.0941 19.7019L16.2963 21.4997L18.5281 23.6695C18.7761 23.9175 18.7761 24.2894 18.5281 24.5374C18.4041 24.6614 18.2181 24.7234 18.0941 24.7234C17.9082 24.7234 17.7842 24.6614 17.6602 24.5374L15.4284 22.3676L12.3907 25.4053C12.1427 25.6533 12.1427 26.0252 12.3907 26.2732L14.5605 28.443L8.85706 34.1464C8.60909 34.3944 8.60909 34.7664 8.85706 35.0143C8.98105 35.1383 9.16703 35.2003 9.29102 35.2003C9.41501 35.2003 9.60099 35.1383 9.72498 35.0143L15.4284 29.3109L17.5982 31.4807C17.7222 31.6047 17.9082 31.6667 18.0321 31.6667C18.1561 31.6667 18.3421 31.6047 18.4661 31.4807L30.3069 19.6399L33.3446 22.6776C33.4686 22.8016 33.6546 22.8636 33.7786 22.8636C33.9025 22.8636 34.0885 22.8016 34.2125 22.6776C34.4605 22.4296 34.4605 22.0576 34.2125 21.8097L29.749 17.3461L33.2826 13.8125L34.2125 14.7424C34.3365 14.8664 34.5225 14.9284 34.6465 14.9284C34.7705 14.9284 34.9564 14.8664 35.0804 14.7424C35.3904 14.7424 35.3904 14.3704 35.1424 14.1224Z" fill="#15803D"/>
</svg>
