<svg width="54" height="54" viewBox="0 0 54 54" fill="none" xmlns="http://www.w3.org/2000/svg">
<path d="M26.9999 52.9929C41.3557 52.9929 52.9934 41.3552 52.9934 26.9994C52.9934 12.6436 41.3557 1.00586 26.9999 1.00586C12.644 1.00586 1.00635 12.6436 1.00635 26.9994C1.00635 41.3552 12.644 52.9929 26.9999 52.9929Z" fill="white"/>
<path fill-rule="evenodd" clip-rule="evenodd" d="M27 1.67923C13.0159 1.67923 1.6796 13.0156 1.6796 26.9997C1.6796 40.9837 13.0159 52.3201 27 52.3201C40.9841 52.3201 52.3205 40.9837 52.3205 26.9997C52.3205 13.0156 40.9841 1.67923 27 1.67923ZM0.333374 26.9997C0.333374 12.2721 12.2724 0.333008 27 0.333008C41.7276 0.333008 53.6667 12.2721 53.6667 26.9997C53.6667 41.7272 41.7276 53.6663 27 53.6663C12.2724 53.6663 0.333374 41.7272 0.333374 26.9997Z" fill="#40AE49"/>
<path d="M22.4128 32.2669C22.073 31.4174 21.6483 30.6529 21.2236 29.8034C19.8644 27.5099 18.3354 25.3013 16.6365 23.2626C16.4666 23.0077 16.2118 22.7529 16.0419 22.498C16.0419 22.498 15.9569 22.498 15.9569 22.583C15.872 22.6679 15.787 22.7529 15.7021 22.8378C14.4279 24.3669 13.2386 25.9808 12.0494 27.6797C11.115 29.0389 10.2655 30.398 9.67089 31.9271C9.33111 32.7765 8.99133 33.626 8.99133 34.5604C8.99133 36.0045 9.41606 37.3636 10.2655 38.4679C11.9645 40.7615 14.258 41.7808 17.1462 41.2711C19.7795 40.8464 21.5634 39.2324 22.4978 36.769C23.0924 35.3249 23.0924 33.7959 22.4128 32.2669ZM19.5247 34.8152H16.9763V37.3636H15.0225V34.8152H12.4741V32.8615H15.0225V30.3131H16.9763V32.8615H19.5247V34.8152Z" fill="#182F70"/>
<path d="M27.2547 30.9923C27.2547 32.6912 27.2547 34.4751 27.2547 36.174C27.2547 36.5138 27.2547 36.8536 27.3397 37.1934C27.7644 39.9966 30.6526 41.8654 33.3709 41.2708C35.7493 40.7611 37.4483 38.7224 37.4483 36.2589C37.4483 32.6912 37.4483 25.7256 37.4483 22.0729C37.4483 21.7332 37.4483 21.7332 37.7881 21.6482C39.9967 20.7988 42.0354 19.6095 43.9042 18.1654C44.159 17.9955 44.4139 17.6557 44.4988 17.4009C44.6687 16.8063 44.4988 16.0418 43.8193 15.702C43.3945 15.4471 42.9698 15.1923 42.5451 14.9374C40.8461 13.9181 39.0623 12.8987 37.2784 12.0493C36.7687 11.7944 36.259 11.6245 35.6644 11.6245C34.8999 11.5396 34.1354 11.7095 33.5408 12.1342C33.0311 12.559 32.4365 12.6439 31.8418 12.474C31.502 12.3891 31.2472 12.2192 30.9924 12.0493C29.8881 11.3697 28.7838 11.2848 27.6795 11.7945C26.9999 12.1342 26.3203 12.474 25.7257 12.8138C24.1117 13.7482 22.4977 14.6826 20.7988 15.617C19.9494 16.1267 19.8644 17.3159 20.6289 17.9106C22.5827 19.4396 24.7063 20.7138 27.0848 21.5633C27.2547 21.6482 27.2547 21.6482 27.2547 21.8181C27.2547 23.7719 27.2547 29.0385 27.2547 30.9923Z" fill="white"/>
<path d="M27.2547 30.9923C27.2547 29.1235 27.2547 23.7719 27.2547 21.9031C27.2547 21.7332 27.2547 21.7332 27.0848 21.6482C24.7063 20.7988 22.5827 19.5246 20.6289 17.9955C19.8644 17.4009 19.9494 16.1267 20.7988 15.702C22.4128 14.7676 24.1117 13.8332 25.7257 12.8988C26.4053 12.559 26.9999 12.2192 27.6795 11.8794C28.8687 11.3697 29.973 11.4547 30.9924 12.1342C31.2472 12.3041 31.502 12.474 31.8418 12.559C32.4365 12.6439 33.0311 12.559 33.5408 12.2192C34.1354 11.7095 34.8999 11.6246 35.6644 11.7095C36.259 11.7095 36.7687 11.8794 37.2784 12.1342C39.0623 12.9837 40.8461 14.0031 42.5451 15.0224C42.9698 15.2772 43.3945 15.5321 43.8193 15.7869C44.4988 16.1267 44.6687 16.8912 44.4988 17.4858C44.4139 17.8256 44.244 18.0805 43.9042 18.2504C41.9504 19.6945 39.9967 20.8837 37.7881 21.7331C37.4483 21.8181 37.4483 21.8181 37.4483 22.1579C37.4483 25.7256 37.4483 32.6912 37.4483 36.3439C37.4483 38.8073 35.7493 40.846 33.3709 41.3557C30.5676 41.9503 27.7644 40.0815 27.3397 37.2783C27.2547 36.9385 27.2547 36.5987 27.2547 36.259C27.2547 34.3901 27.2547 32.6912 27.2547 30.9923ZM29.2934 20.6289C29.2934 20.7138 29.2934 20.7138 29.2934 20.7988C29.2934 24.7912 29.2934 32.1815 29.2934 36.174C29.2934 36.3439 29.2934 36.4288 29.2934 36.5987C29.4633 38.3826 31.1623 39.5719 32.8612 39.2321C34.3902 38.9772 35.3246 37.703 35.3246 36.174C35.3246 32.1815 35.3246 24.7912 35.3246 20.7988C35.3246 20.7138 35.3246 20.7138 35.3246 20.6289C33.3709 20.6289 31.3322 20.6289 29.2934 20.6289ZM32.3515 18.5902C33.7107 18.5902 35.0698 18.5902 36.4289 18.5902C36.8537 18.5902 37.2784 18.2504 37.3633 17.8256C37.4483 17.4009 37.2784 16.8912 36.8537 16.7213C36.6838 16.6364 36.4289 16.5515 36.259 16.5515C33.6257 16.5515 30.9074 16.5515 28.2741 16.5515C28.1891 16.5515 28.1891 16.5515 28.1042 16.5515C27.5096 16.5515 26.9999 17.1461 27.1698 17.7407C27.2547 18.2504 27.6795 18.5902 28.1892 18.5902C29.6332 18.5902 30.9924 18.5902 32.3515 18.5902Z" fill="#182F70"/>
<path d="M29.2935 20.6289C31.3322 20.6289 33.3709 20.6289 35.4096 20.6289C35.4096 20.7139 35.4096 20.7139 35.4096 20.7988C35.4096 24.7913 35.4096 32.1816 35.4096 36.174C35.4096 37.7031 34.3902 38.9773 32.9461 39.2321C31.2472 39.5719 29.5483 38.2977 29.3784 36.5988C29.3784 36.4289 29.3784 36.3439 29.3784 36.174C29.3784 32.1816 29.3784 24.7913 29.3784 20.7988C29.2935 20.7988 29.2935 20.7139 29.2935 20.6289Z" fill="white"/>
<path d="M32.3517 18.5905C30.9926 18.5905 29.6334 18.5905 28.2743 18.5905C27.7646 18.5905 27.3399 18.2507 27.255 17.741C27.17 17.1464 27.5948 16.5518 28.1894 16.5518C28.2743 16.5518 28.2743 16.5518 28.3593 16.5518C30.9926 16.5518 33.7109 16.5518 36.3442 16.5518C36.5141 16.5518 36.7689 16.6367 36.9388 16.7216C37.3636 16.8915 37.5335 17.4012 37.4485 17.8259C37.3636 18.2507 36.9388 18.5905 36.5141 18.5905C35.07 18.5905 33.7109 18.5905 32.3517 18.5905Z" fill="white"/>
</svg>
