<svg width="54" height="54" viewBox="0 0 54 54" fill="none" xmlns="http://www.w3.org/2000/svg">
<path d="M27.0003 52.993C41.3561 52.993 52.9938 41.3553 52.9938 26.9994C52.9938 12.6436 41.3561 1.00586 27.0003 1.00586C12.6444 1.00586 1.00671 12.6436 1.00671 26.9994C1.00671 41.3553 12.6444 52.993 27.0003 52.993Z" fill="white"/>
<path fill-rule="evenodd" clip-rule="evenodd" d="M27 1.67924C13.016 1.67924 1.6796 13.0156 1.6796 26.9997C1.6796 40.9838 13.016 52.3201 27 52.3201C40.9841 52.3201 52.3205 40.9838 52.3205 26.9997C52.3205 13.0156 40.9841 1.67924 27 1.67924ZM0.333374 26.9997C0.333374 12.2721 12.2725 0.333008 27 0.333008C41.7276 0.333008 53.6667 12.2721 53.6667 26.9997C53.6667 41.7273 41.7276 53.6663 27 53.6663C12.2725 53.6663 0.333374 41.7273 0.333374 26.9997Z" fill="#00AEEF"/>
<path d="M39.4023 11.3691C39.3174 11.3691 39.3174 11.3691 39.4023 11.3691C39.3174 11.3691 39.3174 11.3691 39.4023 11.3691C37.7883 11.3691 37.3636 11.3691 35.7496 11.3691C35.7496 11.4541 35.7496 11.624 35.7496 11.7089C35.7496 18.0799 35.7496 24.5358 35.7496 30.9068C35.7496 33.2003 35.7496 35.4939 35.6647 37.7874C35.5797 39.7412 33.626 41.0154 31.7571 39.996C31.1625 39.6562 30.7378 39.1466 30.4829 38.5519C30.4829 38.467 30.398 38.382 30.398 38.2971C30.398 37.5326 30.398 36.6831 30.398 35.9186C30.398 27.8487 30.398 19.7788 30.398 11.7089C30.398 11.624 30.398 11.539 30.398 11.539C28.784 11.539 28.2743 11.539 26.6604 11.539C26.1507 11.539 25.726 11.9638 25.726 12.5584C25.726 13.153 26.1507 13.4928 26.6604 13.5777C26.6604 13.5777 26.6604 13.5777 26.7453 13.5777C26.8303 13.5777 26.7453 13.5777 26.8303 13.5777H26.9152C27.6797 13.5777 27.3399 13.5777 28.1894 13.5777C28.4442 13.5777 28.4442 13.5777 28.4442 13.8326C28.4442 19.3541 28.4442 24.8756 28.4442 30.3971C28.4442 33.0304 28.4442 35.7487 28.5292 38.3821C28.5292 38.8068 28.6141 39.3165 28.784 39.7412C29.8883 42.2046 32.7765 43.3089 35.155 42.0347C36.769 41.1853 37.6184 39.9111 37.7034 38.1272C37.7883 36.4283 37.7883 34.6444 37.7883 32.9455C37.7883 29.4627 37.7883 26.0648 37.7883 22.582C37.7883 19.6939 37.7883 16.7208 37.7883 13.8326C37.7883 13.7476 37.7883 13.6627 37.7883 13.5777C38.7227 13.5777 38.4679 13.5777 39.3174 13.5777C39.3174 13.5777 39.4023 13.5777 39.4872 13.5777C39.9969 13.5777 40.5066 13.153 40.5066 12.5584C40.3367 11.8788 39.912 11.3691 39.4023 11.3691Z" fill="#182F70"/>
<path d="M25.2162 30.9921C24.7915 29.9727 24.2818 28.9534 23.7722 28.019C22.1582 25.1308 20.2044 22.4974 18.0808 19.9491C17.8259 19.6093 17.5711 19.3544 17.3163 19.0146C17.2313 19.0146 17.2313 19.0996 17.2313 19.0996C17.1464 19.1845 17.0614 19.2695 16.9765 19.3544C15.3625 21.3082 13.9184 23.262 12.4743 25.3007C11.37 26.9996 10.2657 28.6985 9.5012 30.5673C9.07646 31.5867 8.65173 32.691 8.65173 33.8802C8.65173 35.6641 9.16141 37.2781 10.1808 38.7222C12.3044 41.5254 15.1926 42.7996 18.6754 42.205C21.9033 41.6953 24.1969 39.7415 25.3012 36.5985C26.0657 34.7297 25.9808 32.8609 25.2162 30.9921ZM21.5636 34.1351H18.4205V37.2781H16.0421V34.1351H12.899V31.7566H16.0421V28.6136H18.4205V31.7566H21.5636V34.1351Z" fill="#182F70"/>
<path d="M29.2936 16.8057H36.4291" stroke="#182F70" stroke-width="2" stroke-miterlimit="10"/>
</svg>
