<svg width="54" height="54" viewBox="0 0 54 54" fill="none" xmlns="http://www.w3.org/2000/svg">
<path d="M27.0001 52.993C41.356 52.993 52.9937 41.3553 52.9937 26.9994C52.9937 12.6436 41.356 1.00586 27.0001 1.00586C12.6443 1.00586 1.00659 12.6436 1.00659 26.9994C1.00659 41.3553 12.6443 52.993 27.0001 52.993Z" fill="white"/>
<path fill-rule="evenodd" clip-rule="evenodd" d="M27 1.67924C13.0159 1.67924 1.67954 13.0156 1.67954 26.9997C1.67954 40.9838 13.0159 52.3201 27 52.3201C40.9841 52.3201 52.3204 40.9838 52.3204 26.9997C52.3204 13.0156 40.9841 1.67924 27 1.67924ZM0.333313 26.9997C0.333313 12.2721 12.2724 0.333008 27 0.333008C41.7276 0.333008 53.6666 12.2721 53.6666 26.9997C53.6666 41.7273 41.7276 53.6663 27 53.6663C12.2724 53.6663 0.333313 41.7273 0.333313 26.9997Z" fill="#40AE49"/>
<path d="M19.525 31.7568C18.5056 32.0117 17.5712 32.4364 16.7218 33.031C13.5788 35.2396 12.1347 38.2977 12.5594 42.1203C12.7293 43.6493 13.5788 44.6687 15.0228 45.1784C15.3626 45.3483 15.7874 45.4332 16.1271 45.5181C17.3164 45.773 18.5056 45.773 19.6949 45.773C23.6024 45.773 27.5099 45.773 31.4175 45.773C32.6067 45.773 33.711 45.773 34.9003 45.773C35.9196 45.773 36.854 45.688 37.8734 45.3483C39.4024 44.9235 40.4218 43.9042 40.6766 42.2902C40.8465 41.3558 40.8465 40.5063 40.6766 39.5719C40.1669 36.259 38.3831 33.8805 35.4099 32.4364C34.8153 32.0966 34.1358 31.9267 33.4562 31.7568L33.5411 31.8418C34.2207 32.6063 34.5605 33.4558 34.7304 34.3902C34.7304 34.5601 34.8153 34.645 34.9852 34.645C35.9196 34.9848 36.4293 35.5794 36.5142 36.5988C36.6841 37.788 35.8347 38.8923 34.6454 39.0622C33.4562 39.2321 32.3519 38.5525 32.0121 37.3633C31.7573 36.1741 32.3519 34.9848 33.5411 34.645C33.6261 34.645 33.6261 34.645 33.711 34.5601C33.5411 33.3708 32.9465 32.4364 32.0121 31.8418C31.9272 31.7568 31.8422 31.7568 31.6723 31.8418C30.1433 33.2859 28.6142 34.73 27.0852 36.1741C26.9153 36.344 26.7454 36.5138 26.5755 36.6837C26.0659 36.1741 25.4712 35.6644 24.9616 35.1547C23.7723 34.0504 22.5831 32.8612 21.3938 31.7568C21.3089 31.6719 21.3089 31.587 21.139 31.6719C19.9497 32.3515 19.3551 33.3708 19.1852 34.645C19.1852 34.73 19.1852 34.73 19.1852 34.8149C19.4401 34.9848 19.6099 35.3246 19.8648 35.4945C20.7142 36.0042 21.139 36.7687 21.5637 37.6181C21.6487 37.7031 21.5637 37.873 21.5637 37.9579C21.5637 38.0429 21.5637 38.1278 21.5637 38.2128C21.9035 39.2321 22.0734 40.2515 21.9884 41.2708C21.9035 41.9504 21.6487 42.4601 20.9691 42.63C20.5444 42.8848 20.1196 42.7999 19.6099 42.7149C19.2702 42.7149 19.1003 42.3751 19.1003 42.0353C19.1003 41.6956 19.4401 41.4407 19.6949 41.4407C19.9497 41.4407 20.2046 41.4407 20.4594 41.4407C20.7142 41.4407 20.7142 41.4407 20.7992 41.1859C20.8841 40.3364 20.7992 39.402 20.4594 38.6375C20.4594 38.5525 20.3745 38.5526 20.3745 38.4676C20.2895 38.3827 20.2046 38.2128 20.1196 38.1278C19.8648 37.7031 19.6949 37.3633 19.3551 37.0235C18.8454 36.5988 18.4207 36.5988 17.911 37.0235C17.8261 37.1085 17.8261 37.1085 17.7411 37.1934C17.4863 37.5332 17.3164 37.873 17.0616 38.2128C16.9766 38.2977 16.9766 38.4676 16.8917 38.4676C16.7218 38.6375 16.6368 38.8074 16.5519 38.9773C16.4669 39.3171 16.382 39.7418 16.382 40.0816C16.382 40.5063 16.382 40.8461 16.382 41.2708C16.382 41.3558 16.382 41.4407 16.5519 41.4407C16.8917 41.4407 17.1465 41.4407 17.4863 41.4407C17.911 41.4407 18.1659 41.6956 18.2508 42.1203C18.2508 42.545 17.911 42.7999 17.5712 42.7999C17.1465 42.7999 16.7218 42.7999 16.382 42.63C15.8723 42.4601 15.5325 42.1203 15.4476 41.6106C15.2777 40.7612 15.3626 39.9966 15.5325 39.1472C15.6175 38.7224 15.8723 38.2977 15.8723 37.788V37.7031C16.2121 36.8536 16.7218 36.1741 17.4013 35.6644C17.5712 35.4945 17.8261 35.4095 17.996 35.1547C18.0809 35.0698 18.1659 35.0698 18.1659 34.9848C18.2508 34.8999 18.2508 34.8149 18.2508 34.8149C18.2508 34.3052 18.4207 33.7956 18.5906 33.2859C18.8454 32.6913 19.1003 32.1816 19.525 31.7568ZM33.2863 36.7687C33.2863 37.3633 33.711 37.873 34.3056 37.873C34.9003 37.873 35.4099 37.4482 35.4099 36.8536C35.4099 36.259 34.9852 35.7493 34.3906 35.7493C33.796 35.7493 33.2863 36.1741 33.2863 36.7687Z" fill="#182F70"/>
<path d="M19.5249 31.7568C19.1001 32.2665 18.7603 32.6912 18.5904 33.2009C18.4206 33.7106 18.2507 34.2203 18.2507 34.73C18.2507 34.8149 18.1657 34.8998 18.1657 34.8998C18.0808 34.9848 17.9958 34.9848 17.9958 35.0697C17.8259 35.3246 17.656 35.4095 17.4012 35.5794C16.6367 36.0891 16.212 36.8536 15.8722 37.6181V37.7031C15.8722 38.2127 15.6173 38.6375 15.5324 39.0622C15.3625 39.9117 15.3625 40.6762 15.4474 41.5257C15.5324 42.0353 15.8722 42.3751 16.3818 42.545C16.8066 42.7149 17.1464 42.7149 17.5711 42.7149C17.9958 42.7149 18.2507 42.4601 18.2507 42.0353C18.2507 41.6955 17.9109 41.3558 17.4862 41.3558C17.1464 41.3558 16.8915 41.3558 16.5517 41.3558C16.3818 41.3558 16.3818 41.2708 16.3818 41.1859C16.3818 40.7611 16.2969 40.4214 16.3818 39.9966C16.3818 39.5719 16.5517 39.2321 16.5517 38.8923C16.6367 38.7224 16.6367 38.4676 16.8915 38.3826C16.9765 38.2977 17.0614 38.2127 17.0614 38.1278C17.3163 37.788 17.4861 37.4482 17.741 37.1085C17.741 37.0235 17.8259 37.0235 17.9109 36.9386C18.4206 36.5138 18.8453 36.5138 19.355 36.9386C19.6948 37.2783 19.9496 37.6181 20.1195 38.0429C20.2044 38.2128 20.2894 38.2977 20.3743 38.3826C20.3743 38.4676 20.4593 38.4676 20.4593 38.5525C20.7991 39.402 20.884 40.2515 20.799 41.1009C20.799 41.3558 20.7991 41.3558 20.4593 41.3558C20.2044 41.3558 19.9496 41.3558 19.6948 41.3558C19.355 41.3558 19.1001 41.6106 19.1001 41.9504C19.1001 42.2902 19.27 42.63 19.6098 42.63C20.0345 42.63 20.5442 42.7999 20.9689 42.545C21.6485 42.3751 21.9034 41.8654 21.9883 41.1859C22.0732 40.1665 21.9883 39.1472 21.5636 38.1278C21.5636 38.0429 21.5636 37.9579 21.5636 37.873C21.5636 37.788 21.5636 37.6181 21.5636 37.5332C21.2238 36.6837 20.7141 35.9192 19.8646 35.4095C19.5249 35.2396 19.4399 34.8998 19.1851 34.73C19.1851 34.73 19.1851 34.645 19.1851 34.5601C19.27 33.2009 19.9496 32.2665 21.1388 31.5869C21.2238 31.502 21.3087 31.5869 21.3937 31.6719C22.5829 32.7762 23.7722 33.9654 24.9614 35.0697C25.4711 35.5794 25.9808 36.0891 26.5754 36.5988C26.7453 36.4289 26.9152 36.259 27.0851 36.0891C28.6141 34.645 30.1431 33.2009 31.6722 31.7568C31.7571 31.6719 31.8421 31.6719 32.012 31.7568C33.0313 32.4364 33.541 33.2859 33.7109 34.4751C33.6259 34.4751 33.6259 34.5601 33.541 34.5601C32.4367 34.9848 31.7571 36.174 32.012 37.2783C32.3517 38.4676 33.456 39.1472 34.6453 38.9773C35.8345 38.8074 36.684 37.7031 36.5141 36.5138C36.4292 35.5794 35.8345 34.8998 34.9851 34.5601C34.8152 34.4751 34.7302 34.4751 34.7302 34.3052C34.6453 33.3708 34.2206 32.5214 33.541 31.7568L33.456 31.6719C34.1356 31.8418 34.8152 32.0117 35.4098 32.3515C38.3829 33.7955 40.1668 36.174 40.6765 39.4869C40.8464 40.4214 40.8464 41.2708 40.6765 42.2052C40.4216 43.8192 39.4023 44.8386 37.8732 45.2633C36.9388 45.5181 35.9195 45.688 34.9001 45.688C33.7109 45.688 32.6066 45.688 31.4173 45.688C27.5098 45.688 23.6023 45.688 19.6948 45.688C18.5055 45.688 17.3163 45.688 16.127 45.4332C15.7023 45.3482 15.3625 45.2633 15.0227 45.0934C13.5786 44.5837 12.7292 43.5644 12.5593 42.0353C12.0496 38.2127 13.4937 35.1547 16.7216 32.9461C17.5711 32.4364 18.5055 32.0117 19.5249 31.7568ZM29.2937 40.2515C29.2087 40.2515 29.1238 40.2515 29.1238 40.2515C28.784 40.2515 28.4442 40.2515 28.0195 40.2515C27.7646 40.2515 27.6797 40.3364 27.6797 40.5912C27.6797 40.931 27.6797 41.1859 27.6797 41.5257C27.6797 42.0353 27.6797 42.0353 28.1894 42.0353C28.5292 42.0353 28.8689 42.0353 29.2087 42.0353C29.2087 42.0353 29.2087 42.0353 29.2087 42.1203C29.2087 42.545 29.2087 42.9697 29.2087 43.3945C29.2087 43.6493 29.2937 43.6493 29.5485 43.6493C29.8883 43.6493 30.313 43.6493 30.6528 43.6493C30.9926 43.6493 30.9926 43.5644 30.9926 43.3095C30.9926 42.8848 30.9926 42.545 30.9926 42.1203C31.0775 42.1203 31.1625 42.1203 31.1625 42.1203C31.5023 42.1203 31.8421 42.1203 32.2668 42.1203C32.5216 42.1203 32.6066 42.0353 32.6066 41.7805C32.6066 41.3558 32.6066 41.016 32.6066 40.5912C32.6066 40.4214 32.5216 40.3364 32.3517 40.3364C32.012 40.3364 31.5872 40.3364 31.2474 40.3364C31.1625 40.3364 31.0776 40.3364 31.0776 40.3364V40.2515C31.0776 39.8267 31.0776 39.4869 31.0776 39.0622C31.0776 38.8074 30.9926 38.7224 30.7378 38.7224C30.398 38.7224 30.0582 38.7224 29.6335 38.7224C29.2937 38.7224 29.2937 38.8074 29.2937 39.0622C29.2937 39.402 29.2937 39.8267 29.2937 40.2515Z" fill="#182F70"/>
<path d="M33.2862 36.7684C33.2862 36.1738 33.7959 35.749 34.3905 35.749C34.9851 35.749 35.4099 36.2587 35.4099 36.8533C35.4099 37.4479 34.9002 37.8727 34.3055 37.8727C33.7109 37.8727 33.2862 37.363 33.2862 36.7684Z" fill="#182F70"/>
<path d="M29.2936 40.2517C29.2936 39.827 29.2936 39.4022 29.2936 39.0624C29.2936 38.7227 29.3785 38.7227 29.6334 38.7227C29.9732 38.7227 30.313 38.7227 30.7377 38.7227C30.9925 38.7227 31.0775 38.8076 31.0775 39.0624C31.0775 39.4872 31.0775 39.827 31.0775 40.2517C31.0775 40.2517 31.0775 40.2517 31.0775 40.3366C31.1624 40.3366 31.1624 40.3366 31.2474 40.3366C31.5872 40.3366 32.0119 40.3366 32.3517 40.3366C32.5216 40.3366 32.6065 40.4216 32.6065 40.5915C32.6065 41.0162 32.6065 41.356 32.6065 41.7807C32.6065 42.0356 32.5216 42.1205 32.2667 42.1205C31.9269 42.1205 31.5872 42.1205 31.1624 42.1205C31.0775 42.1205 31.0775 42.1205 30.9925 42.1205C30.9925 42.5452 30.9925 42.97 30.9925 43.3097C30.9925 43.6495 30.9076 43.6495 30.6527 43.6495C30.313 43.6495 29.8882 43.6495 29.5484 43.6495C29.2936 43.6495 29.2936 43.5646 29.2087 43.3947C29.2087 42.97 29.2087 42.5452 29.2087 42.1205C29.2087 42.1205 29.2087 42.1205 29.2087 42.0356C28.8689 42.0356 28.5291 42.0356 28.1893 42.0356C27.6796 42.0356 27.6796 42.0356 27.6796 41.5259C27.6796 41.1861 27.6796 40.9313 27.6796 40.5915C27.6796 40.3366 27.7646 40.2517 28.0194 40.2517C28.3592 40.2517 28.699 40.2517 29.1237 40.2517C29.2087 40.2517 29.2087 40.2517 29.2936 40.2517Z" fill="white"/>
<path d="M27.0002 15.7021C23.0927 15.7021 19.9497 18.8452 19.9497 22.7527C19.9497 26.6602 23.0927 29.8882 27.0002 29.8882C30.9078 29.8882 34.0508 26.7452 34.1357 22.8376C34.0508 18.9301 30.9078 15.7021 27.0002 15.7021Z" fill="#182F70"/>
<path fill-rule="evenodd" clip-rule="evenodd" d="M32.6917 10.1803C32.6917 8.79765 33.825 7.80176 35.0702 7.80176H40.6767C42.0059 7.80176 43.0552 8.79668 43.0552 10.0953V13.3233C43.0552 14.7059 41.9219 15.7018 40.6767 15.7018H39.1245L34.4756 20.3507V15.7135C33.411 15.4438 32.6917 14.4665 32.6917 13.4082V10.1803ZM35.0702 9.33079C34.6165 9.33079 34.2207 9.69404 34.2207 10.1803V13.4082C34.2207 13.8619 34.584 14.2577 35.0702 14.2577H36.0046V16.6593L38.4912 14.1727H40.6767C41.1303 14.1727 41.5261 13.8095 41.5261 13.3233V10.0953C41.5261 9.69501 41.2163 9.33079 40.6767 9.33079H35.0702Z" fill="#40AE49"/>
</svg>
