<svg width="54" height="54" viewBox="0 0 54 54" fill="none" xmlns="http://www.w3.org/2000/svg">
<path d="M27.0003 52.993C41.3561 52.993 52.9938 41.3553 52.9938 26.9994C52.9938 12.6436 41.3561 1.00586 27.0003 1.00586C12.6444 1.00586 1.00671 12.6436 1.00671 26.9994C1.00671 41.3553 12.6444 52.993 27.0003 52.993Z" fill="white"/>
<path fill-rule="evenodd" clip-rule="evenodd" d="M27 1.67924C13.0159 1.67924 1.6796 13.0156 1.6796 26.9997C1.6796 40.9838 13.0159 52.3201 27 52.3201C40.9841 52.3201 52.3205 40.9838 52.3205 26.9997C52.3205 13.0156 40.9841 1.67924 27 1.67924ZM0.333374 26.9997C0.333374 12.2721 12.2724 0.333008 27 0.333008C41.7276 0.333008 53.6667 12.2721 53.6667 26.9997C53.6667 41.7273 41.7276 53.6663 27 53.6663C12.2724 53.6663 0.333374 41.7273 0.333374 26.9997Z" fill="#00AEEF"/>
<path d="M27.7645 40.5911C27.8495 40.5062 27.8495 40.4212 27.9344 40.3363C28.6989 39.3169 28.9538 38.1277 28.699 36.8535C28.1893 34.8148 27.4248 32.7761 26.3205 30.9922C26.0656 30.5675 25.7258 30.1427 25.386 29.8029C24.7914 29.1234 24.1968 29.1234 23.5172 29.8029C23.1774 30.1427 22.8377 30.5675 22.5828 30.9922C21.4785 32.7761 20.714 34.7298 20.2043 36.7685C19.6946 38.9771 20.9688 41.1008 22.9226 41.7804C23.6871 42.0352 24.4516 42.0352 25.3011 42.0352C29.2936 42.0352 33.286 42.0352 37.2785 42.0352C38.3828 42.0352 38.9774 41.4406 38.9774 40.3363C38.9774 30.2277 38.9774 20.1191 38.9774 10.0104C38.9774 8.90615 38.3828 8.31152 37.2785 8.31152C31.0774 8.31152 24.8764 8.31152 18.6753 8.31152C17.486 8.31152 16.9764 8.8212 16.9764 10.0104C16.9764 14.7674 16.9764 19.5244 16.9764 24.2814C16.9764 24.5363 16.8914 24.7062 16.7215 24.961C13.7484 28.0191 10.7753 31.1621 7.71723 34.2201C6.52798 35.4943 6.44303 37.1933 7.1226 38.5524C8.2269 40.6761 11.1151 41.3556 12.9839 39.4019C16.7215 35.4094 20.5441 31.5019 24.3667 27.5094C24.6215 27.2545 24.8764 26.9997 25.3011 27.2545C25.386 27.2545 25.471 27.2545 25.5559 27.2545C26.4904 27.3395 27.2549 26.8298 27.6796 26.0653C28.1043 25.2158 27.9344 24.1965 27.2549 23.5169C25.8957 22.1578 24.5366 20.7137 23.2624 19.3545C22.5828 18.59 21.4785 18.5051 20.6291 18.9298C19.7796 19.3545 19.2699 20.3739 19.6097 21.3933C19.7796 21.818 19.6097 22.0728 19.2699 22.3277C18.9301 22.5825 18.6753 22.8373 18.4205 23.0922C18.4205 18.675 18.4205 14.2578 18.4205 9.84056C24.7914 9.84056 31.0774 9.84056 37.4484 9.84056C37.4484 20.1191 37.4484 30.3975 37.4484 40.5911C34.3054 40.5911 31.0774 40.5911 27.7645 40.5911ZM23.6871 14.1728C23.6871 14.6825 23.6871 15.1922 23.6871 15.6169C23.6871 16.4664 24.2817 17.061 25.1312 17.061C26.1506 17.061 27.085 17.061 28.1043 17.061C28.9538 17.061 29.5484 16.3814 29.5484 15.532C29.5484 14.5975 29.5484 13.6631 29.5484 12.6438C29.5484 11.7943 28.9538 11.1148 28.1043 11.1148C27.1699 11.1148 26.1506 11.1148 25.2162 11.1148C24.3667 11.1148 23.7721 11.7094 23.7721 12.6438C23.6871 13.2384 23.6871 13.7481 23.6871 14.1728ZM32.0968 20.1191C33.2011 20.1191 34.2205 20.1191 35.3248 20.1191C35.8344 20.1191 36.1742 19.8642 36.1742 19.3545C36.1742 18.9298 35.8344 18.59 35.3248 18.59C33.2011 18.59 31.0774 18.59 28.9538 18.59C28.4441 18.59 28.1043 18.8449 28.1043 19.3545C28.1043 19.7793 28.4441 20.0341 28.9538 20.1191C30.0581 20.1191 31.0774 20.1191 32.0968 20.1191ZM32.1817 21.5631C31.1624 21.5631 30.0581 21.5631 29.0387 21.5631C28.8688 21.5631 28.699 21.5631 28.614 21.6481C28.2742 21.818 28.1043 22.1578 28.1893 22.4976C28.2742 22.8373 28.5291 23.0072 28.9538 23.0072C31.0774 23.0072 33.2011 23.0072 35.3248 23.0072C35.8344 23.0072 36.1742 22.7524 36.1742 22.2427C36.1742 21.818 35.8344 21.5631 35.3248 21.5631C34.2205 21.5631 33.2011 21.5631 32.1817 21.5631ZM33.6258 16.4664C34.2205 16.4664 34.7301 16.4664 35.3248 16.4664C35.8344 16.4664 36.1742 16.2115 36.1742 15.7019C36.1742 15.2771 35.8344 14.9373 35.3248 14.9373C34.2205 14.9373 33.0312 14.9373 31.9269 14.9373C31.4172 14.9373 31.0774 15.2771 31.0774 15.7019C31.0774 16.1266 31.4172 16.3814 31.9269 16.3814C32.4366 16.4664 33.0312 16.4664 33.6258 16.4664ZM33.6258 13.4932C34.2205 13.4932 34.7301 13.4932 35.3248 13.4932C35.8344 13.4932 36.1742 13.1535 36.1742 12.7287C36.1742 12.304 35.8344 12.0492 35.3248 12.0492C34.1355 12.0492 33.0312 12.0492 31.842 12.0492C31.3323 12.0492 30.9925 12.3889 30.9925 12.8137C30.9925 13.2384 31.3323 13.5782 31.842 13.5782C32.4366 13.4933 33.0312 13.4932 33.6258 13.4932Z" fill="white"/>
<path d="M27.7646 40.5911C31.0775 40.5911 34.3055 40.5911 37.6184 40.5911C37.6184 30.3126 37.6184 20.1191 37.6184 9.84056C31.2474 9.84056 24.9614 9.84056 18.5904 9.84056C18.5904 14.2578 18.5904 18.675 18.5904 23.0922C18.8452 22.8373 19.185 22.5825 19.4399 22.3277C19.6947 22.0728 19.8646 21.818 19.7797 21.3933C19.5248 20.4588 19.9495 19.4395 20.799 18.9298C21.6485 18.5051 22.7528 18.59 23.4323 19.3545C24.7915 20.7137 26.1506 22.1578 27.4248 23.5169C28.1044 24.1965 28.2743 25.2158 27.8495 26.0653C27.4248 26.9148 26.6603 27.3395 25.7259 27.2545C25.6409 27.2545 25.556 27.2545 25.4711 27.2545C25.0463 26.9997 24.7915 27.2545 24.5366 27.5094C20.7141 31.5019 16.8915 35.4094 13.1538 39.4019C11.285 41.4406 8.4818 40.6761 7.29255 38.5524C6.61298 37.2782 6.61298 35.4943 7.88718 34.2201C10.8603 31.1621 13.8334 28.0191 16.8915 24.961C17.0614 24.7911 17.1463 24.5363 17.1463 24.2814C17.1463 19.5244 17.1463 14.7674 17.1463 10.0104C17.1463 8.8212 17.656 8.31152 18.8452 8.31152C25.0463 8.31152 31.2474 8.31152 37.4485 8.31152C38.6377 8.31152 39.1474 8.90615 39.1474 10.0104C39.1474 20.1191 39.1474 30.2277 39.1474 40.3363C39.1474 41.4406 38.5528 42.0352 37.4485 42.0352C33.456 42.0352 29.4635 42.0352 25.4711 42.0352C24.7065 42.0352 23.8571 42.0352 23.0926 41.7804C21.1388 41.1008 19.7797 38.9771 20.3743 36.7685C20.884 34.7298 21.6485 32.7761 22.7528 30.9922C23.0076 30.5675 23.3474 30.1427 23.6872 29.8029C24.2818 29.1234 24.8764 29.1234 25.556 29.8029C25.8958 30.1427 26.2356 30.5675 26.4904 30.9922C27.5947 32.7761 28.3592 34.8148 28.8689 36.8535C29.1237 38.1277 28.8689 39.3169 28.1044 40.3363C27.9345 40.4212 27.8495 40.5062 27.7646 40.5911ZM15.7022 28.3588C13.4087 30.7373 11.1151 33.1158 8.82158 35.4943C8.56674 35.7492 8.39685 36.1739 8.39685 36.5137C8.31191 37.533 8.99148 38.5524 9.92589 38.9771C10.6904 39.3169 11.37 39.147 11.9646 38.5524C14.0883 36.3438 16.2119 34.1352 18.3356 31.9266C18.5904 31.6717 18.6753 31.5019 18.5904 31.1621C18.5055 30.9922 18.5904 30.7373 18.5904 30.5675C18.5904 29.9728 18.5055 29.8879 17.9108 29.8879C17.3162 29.8879 16.7216 29.8029 16.3818 29.2933C16.042 29.0384 15.8721 28.6986 15.7022 28.3588ZM24.5366 30.9072C24.4517 30.9072 24.4517 30.9922 24.4517 30.9922C24.3667 31.0771 24.3667 31.0771 24.2818 31.1621C23.0076 33.0309 22.1581 35.0696 21.7334 37.3632C21.4786 38.5524 21.9883 39.5717 23.0076 40.2513C24.027 40.9309 25.1313 40.9309 26.1506 40.2513C27.17 39.5717 27.5947 38.5524 27.3399 37.3632C26.9151 35.3244 26.0657 33.4556 25.0463 31.7567C24.8764 31.332 24.7065 31.1621 24.5366 30.9072ZM23.942 26.1502C22.9227 25.0459 21.9033 24.0266 20.884 23.0072C19.7797 24.1115 18.7603 25.2158 17.656 26.3201C17.3162 26.6599 16.9764 26.9148 17.2313 27.5094V27.5943C17.2313 28.5287 17.2313 28.5287 18.1657 28.6137C19.0151 28.6137 19.6947 29.2083 19.8646 30.0578C19.8646 30.1427 19.9495 30.2277 19.9495 30.3975C21.3087 28.8685 22.5829 27.5094 23.942 26.1502ZM26.7452 25.0459C26.6603 24.8761 26.5754 24.6212 26.4055 24.4513C25.1313 23.0922 23.7721 21.733 22.4979 20.3739C22.1581 20.0341 21.8184 19.9492 21.4786 20.289C21.1388 20.5438 21.1388 21.0535 21.4786 21.3933C22.8377 22.8373 24.1969 24.1965 25.556 25.6406C25.8108 25.8954 26.0657 25.9803 26.3205 25.8105C26.4904 25.6406 26.6603 25.3857 26.7452 25.0459Z" fill="#182F70"/>
<path d="M23.6871 14.1733C23.6871 13.6636 23.6871 13.2389 23.6871 12.7292C23.6871 11.8798 24.2817 11.2851 25.1312 11.2002C26.0656 11.2002 27.085 11.2002 28.0194 11.2002C28.8688 11.2002 29.4635 11.8798 29.4635 12.7292C29.4635 13.6636 29.4635 14.598 29.4635 15.6174C29.4635 16.4669 28.8688 17.0615 28.0194 17.1464C27 17.1464 26.0656 17.1464 25.0463 17.1464C24.1968 17.1464 23.6022 16.5518 23.6022 15.7023C23.6871 15.1927 23.6871 14.683 23.6871 14.1733ZM25.2162 15.6174C26.2355 15.6174 27.1699 15.6174 28.1043 15.6174C28.1043 14.683 28.1043 13.6636 28.1043 12.7292C27.085 12.7292 26.1506 12.7292 25.2162 12.7292C25.2162 13.7486 25.2162 14.683 25.2162 15.6174Z" fill="#00AEEF"/>
<path d="M32.0968 20.1189C31.0775 20.1189 29.9732 20.1189 28.9538 20.1189C28.4442 20.1189 28.1044 19.864 28.1044 19.3544C28.1044 18.9296 28.4442 18.5898 28.9538 18.5898C31.0775 18.5898 33.2011 18.5898 35.3248 18.5898C35.8345 18.5898 36.1743 18.8447 36.1743 19.3544C36.1743 19.7791 35.8345 20.1189 35.3248 20.1189C34.3054 20.1189 33.2011 20.1189 32.0968 20.1189Z" fill="#00AEEF"/>
<path d="M32.1817 21.5635C33.2011 21.5635 34.3054 21.5635 35.3247 21.5635C35.8344 21.5635 36.1742 21.8183 36.1742 22.243C36.1742 22.6678 35.8344 23.0076 35.3247 23.0076C33.2011 23.0076 31.0774 23.0076 28.9538 23.0076C28.529 23.0076 28.2742 22.7527 28.1892 22.4979C28.1043 22.1581 28.2742 21.8183 28.614 21.6484C28.7839 21.5635 28.9538 21.5635 29.0387 21.5635C30.0581 21.5635 31.0774 21.5635 32.1817 21.5635Z" fill="#00AEEF"/>
<path d="M33.6259 16.4665C33.0313 16.4665 32.4366 16.4665 31.842 16.4665C31.3323 16.4665 30.9926 16.2117 30.9926 15.787C30.9926 15.3622 31.3323 15.0225 31.842 15.0225C32.9463 15.0225 34.1356 15.0225 35.2399 15.0225C35.7495 15.0225 36.0893 15.2773 36.0893 15.787C36.0893 16.2117 35.7495 16.5515 35.2399 16.5515C34.7302 16.4666 34.2205 16.4665 33.6259 16.4665Z" fill="#00AEEF"/>
<path d="M33.6259 13.4929C33.0313 13.4929 32.4366 13.4929 31.842 13.4929C31.3323 13.4929 30.9926 13.1531 30.9926 12.7284C30.9926 12.3037 31.3323 11.9639 31.842 11.9639C33.0313 11.9639 34.1356 11.9639 35.3248 11.9639C35.8345 11.9639 36.1743 12.2187 36.1743 12.6434C36.1743 13.0682 35.8345 13.408 35.3248 13.408C34.7302 13.4929 34.2205 13.4929 33.6259 13.4929Z" fill="#00AEEF"/>
<path d="M15.7021 28.3584C15.872 28.6982 16.0418 29.038 16.2967 29.3778C16.6365 29.8874 17.2311 29.9724 17.8257 29.9724C18.4203 29.9724 18.5053 30.0573 18.5053 30.6519C18.5053 30.8218 18.5053 31.0767 18.5053 31.2466C18.5902 31.5864 18.5053 31.7563 18.2505 32.0111C16.1268 34.2197 14.0031 36.4283 11.8795 38.6369C11.2849 39.2315 10.6053 39.4014 9.84077 39.0616C8.90636 38.6369 8.22679 37.6175 8.31173 36.5982C8.31173 36.2584 8.48163 35.8337 8.73647 35.5788C11.03 33.1154 13.3236 30.7369 15.7021 28.3584Z" fill="white"/>
<path d="M24.5365 30.9072C24.7064 31.1621 24.8763 31.4169 25.0462 31.6717C26.0655 33.4556 26.915 35.3244 27.3397 37.2782C27.5946 38.4674 27.1698 39.4868 26.1505 40.1664C25.1311 40.8459 24.0268 40.8459 23.0075 40.1664C21.9881 39.4868 21.4784 38.4674 21.7333 37.2782C22.158 35.0696 23.0924 33.0309 24.2817 31.0771C24.3666 30.9922 24.3666 30.9922 24.4516 30.9072C24.4516 30.9072 24.4516 30.9072 24.5365 30.9072Z" fill="white"/>
<path d="M23.9418 26.1498C22.5827 27.509 21.3085 28.8681 20.0343 30.2272C20.0343 30.0573 19.9494 29.9724 19.9494 29.8875C19.7795 29.1229 19.0999 28.5283 18.2504 28.4434C17.316 28.3584 17.316 28.3584 17.316 27.424V27.3391C17.0612 26.8294 17.401 26.4896 17.7408 26.1498C18.8451 25.0455 19.8644 23.9412 20.9687 22.8369C21.9031 24.0262 22.8375 25.0455 23.9418 26.1498Z" fill="white"/>
<path d="M26.7452 25.0461C26.6602 25.3859 26.5753 25.6407 26.2355 25.8106C25.9806 25.9805 25.6409 25.8955 25.471 25.6407C24.1118 24.2815 22.7527 22.8375 21.3935 21.3934C21.0538 21.0536 21.1387 20.5439 21.3935 20.2891C21.7333 20.0342 22.0731 20.0342 22.4129 20.374C23.6871 21.7332 25.0462 23.0923 26.3204 24.4514C26.4903 24.6213 26.5753 24.8762 26.7452 25.0461Z" fill="white"/>
<path d="M25.2162 15.6167C25.2162 14.6823 25.2162 13.7479 25.2162 12.7285C26.1506 12.7285 27.17 12.7285 28.1044 12.7285C28.1044 13.6629 28.1044 14.5973 28.1044 15.6167C27.17 15.6167 26.1506 15.6167 25.2162 15.6167Z" fill="white"/>
</svg>
