<svg width="54" height="54" viewBox="0 0 54 54" fill="none" xmlns="http://www.w3.org/2000/svg">
<path d="M27.0001 52.993C41.356 52.993 52.9937 41.3553 52.9937 26.9994C52.9937 12.6436 41.356 1.00586 27.0001 1.00586C12.6443 1.00586 1.00659 12.6436 1.00659 26.9994C1.00659 41.3553 12.6443 52.993 27.0001 52.993Z" fill="white"/>
<path fill-rule="evenodd" clip-rule="evenodd" d="M27 1.67924C13.0159 1.67924 1.67954 13.0156 1.67954 26.9997C1.67954 40.9838 13.0159 52.3201 27 52.3201C40.9841 52.3201 52.3204 40.9838 52.3204 26.9997C52.3204 13.0156 40.9841 1.67924 27 1.67924ZM0.333313 26.9997C0.333313 12.2721 12.2724 0.333008 27 0.333008C41.7276 0.333008 53.6666 12.2721 53.6666 26.9997C53.6666 41.7273 41.7276 53.6663 27 53.6663C12.2724 53.6663 0.333313 41.7273 0.333313 26.9997Z" fill="#40AE49"/>
<path d="M27.7645 40.5911C27.8494 40.5062 27.8494 40.4212 27.9344 40.3363C28.6989 39.3169 28.9537 38.1277 28.6989 36.8535C28.1892 34.8148 27.4247 32.7761 26.3204 30.9922C26.0656 30.5675 25.7258 30.1427 25.386 29.8029C24.7914 29.1234 24.1967 29.1234 23.5172 29.8029C23.1774 30.1427 22.8376 30.5675 22.5828 30.9922C21.4785 32.7761 20.7139 34.7298 20.2043 36.7685C19.6946 38.9771 20.9688 41.1008 22.9225 41.7804C23.6871 42.0352 24.4516 42.0352 25.301 42.0352C29.2935 42.0352 33.286 42.0352 37.2785 42.0352C38.3828 42.0352 38.9774 41.4406 38.9774 40.3363C38.9774 30.2277 38.9774 20.1191 38.9774 10.0104C38.9774 8.90615 38.3828 8.31152 37.2785 8.31152C31.0774 8.31152 24.8763 8.31152 18.6752 8.31152C17.486 8.31152 16.9763 8.8212 16.9763 10.0104C16.9763 14.7674 16.9763 19.5244 16.9763 24.2814C16.9763 24.5363 16.8914 24.7062 16.7215 24.961C13.7484 28.0191 10.7752 31.1621 7.71717 34.2201C6.52792 35.4943 6.44297 37.1933 7.12254 38.5524C8.22684 40.6761 11.115 41.3556 12.9838 39.4019C16.7215 35.4094 20.5441 31.5019 24.3666 27.5094C24.6215 27.2545 24.8763 26.9997 25.301 27.2545C25.386 27.2545 25.4709 27.2545 25.5559 27.2545C26.4903 27.3395 27.2548 26.8298 27.6795 26.0653C28.1043 25.2158 27.9344 24.1965 27.2548 23.5169C25.8957 22.1578 24.5365 20.7137 23.2623 19.3545C22.5828 18.59 21.4785 18.5051 20.629 18.9298C19.7795 19.3545 19.2699 20.3739 19.6096 21.3933C19.7795 21.818 19.6096 22.0728 19.2699 22.3277C18.9301 22.5825 18.6752 22.8373 18.4204 23.0922C18.4204 18.675 18.4204 14.2578 18.4204 9.84056C24.7914 9.84056 31.0774 9.84056 37.4484 9.84056C37.4484 20.1191 37.4484 30.3975 37.4484 40.5911C34.3053 40.5911 31.0774 40.5911 27.7645 40.5911ZM23.6871 14.1728C23.6871 14.6825 23.6871 15.1922 23.6871 15.6169C23.6871 16.4664 24.2817 17.061 25.1311 17.061C26.1505 17.061 27.0849 17.061 28.1043 17.061C28.9537 17.061 29.5484 16.3814 29.5484 15.532C29.5484 14.5975 29.5484 13.6631 29.5484 12.6438C29.5484 11.7943 28.9537 11.1148 28.1043 11.1148C27.1699 11.1148 26.1505 11.1148 25.2161 11.1148C24.3666 11.1148 23.772 11.7094 23.772 12.6438C23.6871 13.2384 23.6871 13.7481 23.6871 14.1728ZM32.0967 20.1191C33.201 20.1191 34.2204 20.1191 35.3247 20.1191C35.8344 20.1191 36.1742 19.8642 36.1742 19.3545C36.1742 18.9298 35.8344 18.59 35.3247 18.59C33.201 18.59 31.0774 18.59 28.9537 18.59C28.4441 18.59 28.1043 18.8449 28.1043 19.3545C28.1043 19.7793 28.4441 20.0341 28.9537 20.1191C30.058 20.1191 31.0774 20.1191 32.0967 20.1191ZM32.1817 21.5631C31.1623 21.5631 30.058 21.5631 29.0387 21.5631C28.8688 21.5631 28.6989 21.5631 28.6139 21.6481C28.2742 21.818 28.1043 22.1578 28.1892 22.4976C28.2742 22.8373 28.529 23.0072 28.9537 23.0072C31.0774 23.0072 33.201 23.0072 35.3247 23.0072C35.8344 23.0072 36.1742 22.7524 36.1742 22.2427C36.1742 21.818 35.8344 21.5631 35.3247 21.5631C34.2204 21.5631 33.201 21.5631 32.1817 21.5631ZM33.6258 16.4664C34.2204 16.4664 34.7301 16.4664 35.3247 16.4664C35.8344 16.4664 36.1742 16.2115 36.1742 15.7019C36.1742 15.2771 35.8344 14.9373 35.3247 14.9373C34.2204 14.9373 33.0312 14.9373 31.9269 14.9373C31.4172 14.9373 31.0774 15.2771 31.0774 15.7019C31.0774 16.1266 31.4172 16.3814 31.9269 16.3814C32.4365 16.4664 33.0312 16.4664 33.6258 16.4664ZM33.6258 13.4932C34.2204 13.4932 34.7301 13.4932 35.3247 13.4932C35.8344 13.4932 36.1742 13.1535 36.1742 12.7287C36.1742 12.304 35.8344 12.0492 35.3247 12.0492C34.1355 12.0492 33.0312 12.0492 31.8419 12.0492C31.3322 12.0492 30.9924 12.3889 30.9924 12.8137C30.9924 13.2384 31.3322 13.5782 31.8419 13.5782C32.4365 13.4933 33.0312 13.4932 33.6258 13.4932Z" fill="white"/>
<path d="M27.7645 40.5911C31.0774 40.5911 34.3054 40.5911 37.6183 40.5911C37.6183 30.3126 37.6183 20.1191 37.6183 9.84056C31.2473 9.84056 24.9613 9.84056 18.5903 9.84056C18.5903 14.2578 18.5903 18.675 18.5903 23.0922C18.8452 22.8373 19.185 22.5825 19.4398 22.3277C19.6946 22.0728 19.8645 21.818 19.7796 21.3933C19.5248 20.4588 19.9495 19.4395 20.7989 18.9298C21.6484 18.5051 22.7527 18.59 23.4323 19.3545C24.7914 20.7137 26.1506 22.1578 27.4248 23.5169C28.1043 24.1965 28.2742 25.2158 27.8495 26.0653C27.4248 26.9148 26.6602 27.3395 25.7258 27.2545C25.6409 27.2545 25.5559 27.2545 25.471 27.2545C25.0463 26.9997 24.7914 27.2545 24.5366 27.5094C20.714 31.5019 16.8914 35.4094 13.1538 39.4019C11.285 41.4406 8.48174 40.6761 7.29249 38.5524C6.61292 37.2782 6.61292 35.4943 7.88711 34.2201C10.8602 31.1621 13.8334 28.0191 16.8914 24.961C17.0613 24.7911 17.1463 24.5363 17.1463 24.2814C17.1463 19.5244 17.1463 14.7674 17.1463 10.0104C17.1463 8.8212 17.6559 8.31152 18.8452 8.31152C25.0463 8.31152 31.2473 8.31152 37.4484 8.31152C38.6377 8.31152 39.1473 8.90615 39.1473 10.0104C39.1473 20.1191 39.1473 30.2277 39.1473 40.3363C39.1473 41.4406 38.5527 42.0352 37.4484 42.0352C33.4559 42.0352 29.4635 42.0352 25.471 42.0352C24.7065 42.0352 23.857 42.0352 23.0925 41.7804C21.1387 41.1008 19.7796 38.9771 20.3742 36.7685C20.8839 34.7298 21.6484 32.7761 22.7527 30.9922C23.0075 30.5675 23.3473 30.1427 23.6871 29.8029C24.2817 29.1234 24.8764 29.1234 25.5559 29.8029C25.8957 30.1427 26.2355 30.5675 26.4903 30.9922C27.5946 32.7761 28.3592 34.8148 28.8688 36.8535C29.1237 38.1277 28.8688 39.3169 28.1043 40.3363C27.9344 40.4212 27.8495 40.5062 27.7645 40.5911ZM15.7022 28.3588C13.4086 30.7373 11.1151 33.1158 8.82152 35.4943C8.56668 35.7492 8.39679 36.1739 8.39679 36.5137C8.31184 37.533 8.99142 38.5524 9.92583 38.9771C10.6903 39.3169 11.3699 39.147 11.9645 38.5524C14.0882 36.3438 16.2118 34.1352 18.3355 31.9266C18.5903 31.6717 18.6753 31.5019 18.5903 31.1621C18.5054 30.9922 18.5903 30.7373 18.5903 30.5675C18.5903 29.9728 18.5054 29.8879 17.9108 29.8879C17.3162 29.8879 16.7215 29.8029 16.3817 29.2933C16.042 29.0384 15.8721 28.6986 15.7022 28.3588ZM24.5366 30.9072C24.4516 30.9072 24.4516 30.9922 24.4516 30.9922C24.3667 31.0771 24.3667 31.0771 24.2817 31.1621C23.0075 33.0309 22.1581 35.0696 21.7334 37.3632C21.4785 38.5524 21.9882 39.5717 23.0075 40.2513C24.0269 40.9309 25.1312 40.9309 26.1506 40.2513C27.1699 39.5717 27.5946 38.5524 27.3398 37.3632C26.9151 35.3244 26.0656 33.4556 25.0463 31.7567C24.8764 31.332 24.7065 31.1621 24.5366 30.9072ZM23.942 26.1502C22.9226 25.0459 21.9032 24.0266 20.8839 23.0072C19.7796 24.1115 18.7602 25.2158 17.6559 26.3201C17.3161 26.6599 16.9764 26.9148 17.2312 27.5094V27.5943C17.2312 28.5287 17.2312 28.5287 18.1656 28.6137C19.0151 28.6137 19.6946 29.2083 19.8645 30.0578C19.8645 30.1427 19.9495 30.2277 19.9495 30.3975C21.3086 28.8685 22.5828 27.5094 23.942 26.1502ZM26.7452 25.0459C26.6602 24.8761 26.5753 24.6212 26.4054 24.4513C25.1312 23.0922 23.7721 21.733 22.4979 20.3739C22.1581 20.0341 21.8183 19.9492 21.4785 20.289C21.1387 20.5438 21.1387 21.0535 21.4785 21.3933C22.8377 22.8373 24.1968 24.1965 25.5559 25.6406C25.8108 25.8954 26.0656 25.9803 26.3205 25.8105C26.4903 25.6406 26.6602 25.3857 26.7452 25.0459Z" fill="#182F70"/>
<path d="M23.6871 14.1733C23.6871 13.6636 23.6871 13.2389 23.6871 12.7292C23.6871 11.8798 24.2817 11.2851 25.1311 11.2002C26.0656 11.2002 27.0849 11.2002 28.0193 11.2002C28.8688 11.2002 29.4634 11.8798 29.4634 12.7292C29.4634 13.6636 29.4634 14.598 29.4634 15.6174C29.4634 16.4669 28.8688 17.0615 28.0193 17.1464C27 17.1464 26.0656 17.1464 25.0462 17.1464C24.1967 17.1464 23.6021 16.5518 23.6021 15.7023C23.6871 15.1927 23.6871 14.683 23.6871 14.1733ZM25.2161 15.6174C26.2354 15.6174 27.1699 15.6174 28.1043 15.6174C28.1043 14.683 28.1043 13.6636 28.1043 12.7292C27.0849 12.7292 26.1505 12.7292 25.2161 12.7292C25.2161 13.7486 25.2161 14.683 25.2161 15.6174Z" fill="#40AE49"/>
<path d="M32.0968 20.1189C31.0774 20.1189 29.9731 20.1189 28.9538 20.1189C28.4441 20.1189 28.1043 19.864 28.1043 19.3544C28.1043 18.9296 28.4441 18.5898 28.9538 18.5898C31.0774 18.5898 33.2011 18.5898 35.3247 18.5898C35.8344 18.5898 36.1742 18.8447 36.1742 19.3544C36.1742 19.7791 35.8344 20.1189 35.3247 20.1189C34.3054 20.1189 33.2011 20.1189 32.0968 20.1189Z" fill="#40AE49"/>
<path d="M32.1817 21.5635C33.201 21.5635 34.3053 21.5635 35.3247 21.5635C35.8344 21.5635 36.1741 21.8183 36.1741 22.243C36.1741 22.6678 35.8344 23.0076 35.3247 23.0076C33.201 23.0076 31.0774 23.0076 28.9537 23.0076C28.529 23.0076 28.2741 22.7527 28.1892 22.4979C28.1042 22.1581 28.2741 21.8183 28.6139 21.6484C28.7838 21.5635 28.9537 21.5635 29.0387 21.5635C30.058 21.5635 31.0774 21.5635 32.1817 21.5635Z" fill="#40AE49"/>
<path d="M33.6258 16.4665C33.0312 16.4665 32.4366 16.4665 31.842 16.4665C31.3323 16.4665 30.9925 16.2117 30.9925 15.787C30.9925 15.3622 31.3323 15.0225 31.842 15.0225C32.9463 15.0225 34.1355 15.0225 35.2398 15.0225C35.7495 15.0225 36.0893 15.2773 36.0893 15.787C36.0893 16.2117 35.7495 16.5515 35.2398 16.5515C34.7301 16.4666 34.2204 16.4665 33.6258 16.4665Z" fill="#40AE49"/>
<path d="M33.6258 13.4929C33.0312 13.4929 32.4366 13.4929 31.842 13.4929C31.3323 13.4929 30.9925 13.1531 30.9925 12.7284C30.9925 12.3037 31.3323 11.9639 31.842 11.9639C33.0312 11.9639 34.1355 11.9639 35.3248 11.9639C35.8344 11.9639 36.1742 12.2187 36.1742 12.6434C36.1742 13.0682 35.8344 13.408 35.3248 13.408C34.7301 13.4929 34.2204 13.4929 33.6258 13.4929Z" fill="#40AE49"/>
<path d="M15.702 28.3584C15.8719 28.6982 16.0418 29.038 16.2966 29.3778C16.6364 29.8874 17.231 29.9724 17.8257 29.9724C18.4203 29.9724 18.5052 30.0573 18.5052 30.6519C18.5052 30.8218 18.5052 31.0767 18.5052 31.2466C18.5902 31.5864 18.5052 31.7563 18.2504 32.0111C16.1267 34.2197 14.0031 36.4283 11.8794 38.6369C11.2848 39.2315 10.6052 39.4014 9.84071 39.0616C8.9063 38.6369 8.22673 37.6175 8.31167 36.5982C8.31167 36.2584 8.48157 35.8337 8.7364 35.5788C11.03 33.1154 13.3235 30.7369 15.702 28.3584Z" fill="white"/>
<path d="M24.5364 30.9072C24.7063 31.1621 24.8762 31.4169 25.0461 31.6717C26.0654 33.4556 26.9149 35.3244 27.3396 37.2782C27.5944 38.4674 27.1697 39.4868 26.1504 40.1664C25.131 40.8459 24.0267 40.8459 23.0073 40.1664C21.988 39.4868 21.4783 38.4674 21.7332 37.2782C22.1579 35.0696 23.0923 33.0309 24.2815 31.0771C24.3665 30.9922 24.3665 30.9922 24.4514 30.9072C24.4514 30.9072 24.4514 30.9072 24.5364 30.9072Z" fill="white"/>
<path d="M23.9418 26.1498C22.5827 27.509 21.3085 28.8681 20.0343 30.2272C20.0343 30.0573 19.9494 29.9724 19.9494 29.8875C19.7795 29.1229 19.0999 28.5283 18.2504 28.4434C17.316 28.3584 17.316 28.3584 17.316 27.424V27.3391C17.0612 26.8294 17.401 26.4896 17.7408 26.1498C18.8451 25.0455 19.8644 23.9412 20.9687 22.8369C21.9031 24.0262 22.8375 25.0455 23.9418 26.1498Z" fill="white"/>
<path d="M26.7451 25.0461C26.6602 25.3859 26.5752 25.6407 26.2354 25.8106C25.9806 25.9805 25.6408 25.8955 25.4709 25.6407C24.1118 24.2815 22.7526 22.8375 21.3935 21.3934C21.0537 21.0536 21.1386 20.5439 21.3935 20.2891C21.7333 20.0342 22.0731 20.0342 22.4128 20.374C23.687 21.7332 25.0462 23.0923 26.3204 24.4514C26.4903 24.6213 26.5752 24.8762 26.7451 25.0461Z" fill="white"/>
<path d="M25.2161 15.6167C25.2161 14.6823 25.2161 13.7479 25.2161 12.7285C26.1505 12.7285 27.1699 12.7285 28.1043 12.7285C28.1043 13.6629 28.1043 14.5973 28.1043 15.6167C27.1699 15.6167 26.1505 15.6167 25.2161 15.6167Z" fill="white"/>
</svg>
