<svg width="54" height="54" viewBox="0 0 54 54" fill="none" xmlns="http://www.w3.org/2000/svg">
<path d="M27.0003 52.993C41.3561 52.993 52.9938 41.3553 52.9938 26.9994C52.9938 12.6436 41.3561 1.00586 27.0003 1.00586C12.6444 1.00586 1.00671 12.6436 1.00671 26.9994C1.00671 41.3553 12.6444 52.993 27.0003 52.993Z" fill="white"/>
<path fill-rule="evenodd" clip-rule="evenodd" d="M27 1.67924C13.0159 1.67924 1.6796 13.0156 1.6796 26.9997C1.6796 40.9838 13.0159 52.3201 27 52.3201C40.9841 52.3201 52.3205 40.9838 52.3205 26.9997C52.3205 13.0156 40.9841 1.67924 27 1.67924ZM0.333374 26.9997C0.333374 12.2721 12.2724 0.333008 27 0.333008C41.7276 0.333008 53.6667 12.2721 53.6667 26.9997C53.6667 41.7273 41.7276 53.6663 27 53.6663C12.2724 53.6663 0.333374 41.7273 0.333374 26.9997Z" fill="#00AEEF"/>
<path d="M19.5252 31.7568C18.5058 32.0117 17.5714 32.4364 16.722 33.031C13.5789 35.2396 12.1349 38.2977 12.5596 42.1203C12.7295 43.6493 13.5789 44.6687 15.023 45.1784C15.3628 45.3483 15.7875 45.4332 16.1273 45.5181C17.3166 45.773 18.5058 45.773 19.6951 45.773C23.6026 45.773 27.5101 45.773 31.4177 45.773C32.6069 45.773 33.7112 45.773 34.9005 45.773C35.9198 45.773 36.8542 45.688 37.8736 45.3483C39.4026 44.9235 40.422 43.9042 40.6768 42.2902C40.8467 41.3558 40.8467 40.5063 40.6768 39.5719C40.1671 36.259 38.3832 33.8805 35.4101 32.4364C34.8155 32.0966 34.1359 31.9267 33.4564 31.7568L33.5413 31.8418C34.2209 32.6063 34.5607 33.4558 34.7306 34.3902C34.7306 34.5601 34.8155 34.645 34.9854 34.645C35.9198 34.9848 36.4295 35.5794 36.5144 36.5988C36.6843 37.788 35.8349 38.8923 34.6456 39.0622C33.4564 39.2321 32.3521 38.5525 32.0123 37.3633C31.7574 36.1741 32.3521 34.9848 33.5413 34.645C33.6263 34.645 33.6263 34.645 33.7112 34.5601C33.5413 33.3708 32.9467 32.4364 32.0123 31.8418C31.9273 31.7568 31.8424 31.7568 31.6725 31.8418C30.1435 33.2859 28.6144 34.73 27.0854 36.1741C26.9155 36.344 26.7456 36.5138 26.5757 36.6837C26.066 36.1741 25.4714 35.6644 24.9617 35.1547C23.7725 34.0504 22.5832 32.8612 21.394 31.7568C21.3091 31.6719 21.309 31.587 21.1392 31.6719C19.9499 32.3515 19.3553 33.3708 19.1854 34.645C19.1854 34.73 19.1854 34.73 19.1854 34.8149C19.4402 34.9848 19.6101 35.3246 19.865 35.4945C20.7144 36.0042 21.1392 36.7687 21.5639 37.6181C21.6488 37.7031 21.5639 37.873 21.5639 37.9579C21.5639 38.0429 21.5639 38.1278 21.5639 38.2128C21.9037 39.2321 22.0736 40.2515 21.9886 41.2708C21.9037 41.9504 21.6488 42.4601 20.9693 42.63C20.5445 42.8848 20.1198 42.7999 19.6101 42.7149C19.2703 42.7149 19.1004 42.3751 19.1004 42.0353C19.1004 41.6956 19.4402 41.4407 19.6951 41.4407C19.9499 41.4407 20.2048 41.4407 20.4596 41.4407C20.7144 41.4407 20.7144 41.4407 20.7994 41.1859C20.8843 40.3364 20.7994 39.402 20.4596 38.6375C20.4596 38.5525 20.3746 38.5526 20.3746 38.4676C20.2897 38.3827 20.2048 38.2128 20.1198 38.1278C19.865 37.7031 19.6951 37.3633 19.3553 37.0235C18.8456 36.5988 18.4209 36.5988 17.9112 37.0235C17.8263 37.1085 17.8263 37.1085 17.7413 37.1934C17.4865 37.5332 17.3166 37.873 17.0617 38.2128C16.9768 38.2977 16.9768 38.4676 16.8918 38.4676C16.722 38.6375 16.637 38.8074 16.5521 38.9773C16.4671 39.3171 16.3822 39.7418 16.3822 40.0816C16.3822 40.5063 16.3822 40.8461 16.3822 41.2708C16.3822 41.3558 16.3822 41.4407 16.5521 41.4407C16.8918 41.4407 17.1467 41.4407 17.4865 41.4407C17.9112 41.4407 18.166 41.6956 18.251 42.1203C18.251 42.545 17.9112 42.7999 17.5714 42.7999C17.1467 42.7999 16.722 42.7999 16.3822 42.63C15.8725 42.4601 15.5327 42.1203 15.4478 41.6106C15.2779 40.7612 15.3628 39.9966 15.5327 39.1472C15.6177 38.7224 15.8725 38.2977 15.8725 37.788V37.7031C16.2123 36.8536 16.722 36.1741 17.4015 35.6644C17.5714 35.4945 17.8263 35.4095 17.9961 35.1547C18.0811 35.0698 18.166 35.0698 18.166 34.9848C18.251 34.8999 18.251 34.8149 18.251 34.8149C18.251 34.3052 18.4209 33.7956 18.5908 33.2859C18.8456 32.6913 19.1004 32.1816 19.5252 31.7568ZM33.2865 36.7687C33.2865 37.3633 33.7112 37.873 34.3058 37.873C34.9004 37.873 35.4101 37.4482 35.4101 36.8536C35.4101 36.259 34.9854 35.7493 34.3908 35.7493C33.7961 35.7493 33.2865 36.1741 33.2865 36.7687Z" fill="#182F70"/>
<path d="M19.525 31.7568C19.1003 32.2665 18.7605 32.6912 18.5906 33.2009C18.4207 33.7106 18.2508 34.2203 18.2508 34.73C18.2508 34.8149 18.1659 34.8998 18.1659 34.8998C18.081 34.9848 17.996 34.9848 17.996 35.0697C17.8261 35.3246 17.6562 35.4095 17.4014 35.5794C16.6369 36.0891 16.2121 36.8536 15.8724 37.6181V37.7031C15.8724 38.2127 15.6175 38.6375 15.5326 39.0622C15.3627 39.9117 15.3627 40.6762 15.4476 41.5257C15.5326 42.0353 15.8724 42.3751 16.382 42.545C16.8068 42.7149 17.1465 42.7149 17.5713 42.7149C17.996 42.7149 18.2508 42.4601 18.2508 42.0353C18.2508 41.6955 17.9111 41.3558 17.4863 41.3558C17.1465 41.3558 16.8917 41.3558 16.5519 41.3558C16.382 41.3558 16.382 41.2708 16.382 41.1859C16.382 40.7611 16.2971 40.4214 16.382 39.9966C16.382 39.5719 16.5519 39.2321 16.5519 38.8923C16.6369 38.7224 16.6369 38.4676 16.8917 38.3826C16.9767 38.2977 17.0616 38.2127 17.0616 38.1278C17.3164 37.788 17.4863 37.4482 17.7412 37.1085C17.7412 37.0235 17.8261 37.0235 17.9111 36.9386C18.4207 36.5138 18.8455 36.5138 19.3551 36.9386C19.6949 37.2783 19.9498 37.6181 20.1197 38.0429C20.2046 38.2128 20.2896 38.2977 20.3745 38.3826C20.3745 38.4676 20.4595 38.4676 20.4595 38.5525C20.7992 39.402 20.8842 40.2515 20.7992 41.1009C20.7992 41.3558 20.7992 41.3558 20.4595 41.3558C20.2046 41.3558 19.9498 41.3558 19.6949 41.3558C19.3552 41.3558 19.1003 41.6106 19.1003 41.9504C19.1003 42.2902 19.2702 42.63 19.61 42.63C20.0347 42.63 20.5444 42.7999 20.9691 42.545C21.6487 42.3751 21.9035 41.8654 21.9885 41.1859C22.0734 40.1665 21.9885 39.1472 21.5638 38.1278C21.5638 38.0429 21.5638 37.9579 21.5638 37.873C21.5638 37.788 21.5638 37.6181 21.5638 37.5332C21.224 36.6837 20.7143 35.9192 19.8648 35.4095C19.525 35.2396 19.4401 34.8998 19.1853 34.73C19.1853 34.73 19.1853 34.645 19.1853 34.5601C19.2702 33.2009 19.9498 32.2665 21.139 31.5869C21.224 31.502 21.3089 31.5869 21.3939 31.6719C22.5831 32.7762 23.7724 33.9654 24.9616 35.0697C25.4713 35.5794 25.981 36.0891 26.5756 36.5988C26.7455 36.4289 26.9154 36.259 27.0853 36.0891C28.6143 34.645 30.1433 33.2009 31.6724 31.7568C31.7573 31.6719 31.8422 31.6719 32.0121 31.7568C33.0315 32.4364 33.5412 33.2859 33.7111 34.4751C33.6261 34.4751 33.6261 34.5601 33.5412 34.5601C32.4369 34.9848 31.7573 36.174 32.0121 37.2783C32.3519 38.4676 33.4562 39.1472 34.6455 38.9773C35.8347 38.8074 36.6842 37.7031 36.5143 36.5138C36.4293 35.5794 35.8347 34.8998 34.9853 34.5601C34.8154 34.4751 34.7304 34.4751 34.7304 34.3052C34.6455 33.3708 34.2207 32.5214 33.5412 31.7568L33.4562 31.6719C34.1358 31.8418 34.8154 32.0117 35.41 32.3515C38.3831 33.7955 40.167 36.174 40.6767 39.4869C40.8466 40.4214 40.8466 41.2708 40.6767 42.2052C40.4218 43.8192 39.4025 44.8386 37.8734 45.2633C36.939 45.5181 35.9197 45.688 34.9003 45.688C33.7111 45.688 32.6068 45.688 31.4175 45.688C27.51 45.688 23.6025 45.688 19.6949 45.688C18.5057 45.688 17.3164 45.688 16.1272 45.4332C15.7025 45.3482 15.3627 45.2633 15.0229 45.0934C13.5788 44.5837 12.7293 43.5644 12.5595 42.0353C12.0498 38.2127 13.4939 35.1547 16.7218 32.9461C17.5713 32.4364 18.5057 32.0117 19.525 31.7568ZM29.2939 40.2515C29.2089 40.2515 29.124 40.2515 29.124 40.2515C28.7842 40.2515 28.4444 40.2515 28.0197 40.2515C27.7648 40.2515 27.6799 40.3364 27.6799 40.5912C27.6799 40.931 27.6799 41.1859 27.6799 41.5257C27.6799 42.0353 27.6799 42.0353 28.1896 42.0353C28.5293 42.0353 28.8691 42.0353 29.2089 42.0353C29.2089 42.0353 29.2089 42.0353 29.2089 42.1203C29.2089 42.545 29.2089 42.9697 29.2089 43.3945C29.2089 43.6493 29.2939 43.6493 29.5487 43.6493C29.8885 43.6493 30.3132 43.6493 30.653 43.6493C30.9928 43.6493 30.9928 43.5644 30.9928 43.3095C30.9928 42.8848 30.9928 42.545 30.9928 42.1203C31.0777 42.1203 31.1627 42.1203 31.1627 42.1203C31.5025 42.1203 31.8422 42.1203 32.267 42.1203C32.5218 42.1203 32.6068 42.0353 32.6068 41.7805C32.6068 41.3558 32.6068 41.016 32.6068 40.5912C32.6068 40.4214 32.5218 40.3364 32.3519 40.3364C32.0121 40.3364 31.5874 40.3364 31.2476 40.3364C31.1627 40.3364 31.0777 40.3364 31.0777 40.3364V40.2515C31.0777 39.8267 31.0777 39.4869 31.0777 39.0622C31.0777 38.8074 30.9928 38.7224 30.7379 38.7224C30.3982 38.7224 30.0584 38.7224 29.6336 38.7224C29.2939 38.7224 29.2939 38.8074 29.2939 39.0622C29.2939 39.402 29.2939 39.8267 29.2939 40.2515Z" fill="#182F70"/>
<path d="M33.2864 36.7684C33.2864 36.1738 33.7961 35.749 34.3907 35.749C34.9853 35.749 35.41 36.2587 35.41 36.8533C35.41 37.4479 34.9004 37.8727 34.3057 37.8727C33.7111 37.8727 33.2864 37.363 33.2864 36.7684Z" fill="#182F70"/>
<path d="M29.2938 40.2517C29.2938 39.827 29.2938 39.4022 29.2938 39.0624C29.2938 38.7227 29.3787 38.7227 29.6336 38.7227C29.9734 38.7227 30.3131 38.7227 30.7379 38.7227C30.9927 38.7227 31.0777 38.8076 31.0777 39.0624C31.0777 39.4872 31.0777 39.827 31.0777 40.2517C31.0777 40.2517 31.0777 40.2517 31.0777 40.3366C31.1626 40.3366 31.1626 40.3366 31.2476 40.3366C31.5873 40.3366 32.0121 40.3366 32.3519 40.3366C32.5217 40.3366 32.6067 40.4216 32.6067 40.5915C32.6067 41.0162 32.6067 41.356 32.6067 41.7807C32.6067 42.0356 32.5217 42.1205 32.2669 42.1205C31.9271 42.1205 31.5873 42.1205 31.1626 42.1205C31.0777 42.1205 31.0777 42.1205 30.9927 42.1205C30.9927 42.5452 30.9927 42.97 30.9927 43.3097C30.9927 43.6495 30.9078 43.6495 30.6529 43.6495C30.3131 43.6495 29.8884 43.6495 29.5486 43.6495C29.2938 43.6495 29.2938 43.5646 29.2088 43.3947C29.2088 42.97 29.2088 42.5452 29.2088 42.1205C29.2088 42.1205 29.2088 42.1205 29.2088 42.0356C28.8691 42.0356 28.5293 42.0356 28.1895 42.0356C27.6798 42.0356 27.6798 42.0356 27.6798 41.5259C27.6798 41.1861 27.6798 40.9313 27.6798 40.5915C27.6798 40.3366 27.7648 40.2517 28.0196 40.2517C28.3594 40.2517 28.6992 40.2517 29.1239 40.2517C29.2088 40.2517 29.2088 40.2517 29.2938 40.2517Z" fill="white"/>
<path d="M27.0004 15.7021C23.0928 15.7021 19.9498 18.8452 19.9498 22.7527C19.9498 26.6602 23.0928 29.8882 27.0004 29.8882C30.9079 29.8882 34.0509 26.7452 34.1359 22.8376C34.0509 18.9301 30.9079 15.7021 27.0004 15.7021Z" fill="#182F70"/>
<path fill-rule="evenodd" clip-rule="evenodd" d="M32.6918 10.1803C32.6918 8.79765 33.825 7.80176 35.0703 7.80176H40.6767C42.0059 7.80176 43.0552 8.79668 43.0552 10.0953V13.3233C43.0552 14.7059 41.922 15.7018 40.6767 15.7018H39.1246L34.4756 20.3507V15.7135C33.411 15.4438 32.6918 14.4665 32.6918 13.4082V10.1803ZM35.0703 9.33079C34.6166 9.33079 34.2208 9.69404 34.2208 10.1803V13.4082C34.2208 13.8619 34.5841 14.2577 35.0703 14.2577H36.0047V16.6593L38.4912 14.1727H40.6767C41.1304 14.1727 41.5262 13.8095 41.5262 13.3233V10.0953C41.5262 9.69501 41.2164 9.33079 40.6767 9.33079H35.0703Z" fill="#00AEEF"/>
</svg>
