<svg width="44" height="44" viewBox="0 0 44 44" fill="none" xmlns="http://www.w3.org/2000/svg">
<rect width="44" height="44" rx="22" fill="#00AEEF" fill-opacity="0.1"/>
<path fill-rule="evenodd" clip-rule="evenodd" d="M18.7012 8.99968H21.2012V10.6663H22.8678V8.99968H25.3678C25.5889 8.99968 25.8008 8.91188 25.9571 8.7556C26.1134 8.59932 26.2012 8.38736 26.2012 8.16634C26.2012 7.94533 26.1134 7.73337 25.9571 7.57709C25.8008 7.42081 25.5889 7.33301 25.3678 7.33301H18.7012C18.4802 7.33301 18.2682 7.42081 18.1119 7.57709C17.9556 7.73337 17.8678 7.94533 17.8678 8.16634C17.8678 8.38736 17.9556 8.59932 18.1119 8.7556C18.2682 8.91188 18.4802 8.99968 18.7012 8.99968ZM22.0345 12.333C19.8919 12.333 17.7974 12.9684 16.0158 14.1588C14.2343 15.3491 12.8458 17.0411 12.0258 19.0206C11.2059 21.0001 10.9913 23.1784 11.4093 25.2798C11.8273 27.3813 12.8591 29.3116 14.3742 30.8267C15.8893 32.3418 17.8196 33.3735 19.921 33.7915C22.0225 34.2095 24.2007 33.995 26.1803 33.1751C28.1598 32.3551 29.8517 30.9666 31.0421 29.185C32.2325 27.4035 32.8679 25.309 32.8679 23.1664C32.8646 20.2942 31.7221 17.5406 29.6912 15.5097C27.6603 13.4787 24.9067 12.3363 22.0345 12.333ZM27.8679 23.9997H21.2012V17.333H22.8679V22.333H27.8679V23.9997ZM29.1895 13.1665L30.368 11.988L33.2129 14.8329L32.0344 16.0114L29.1895 13.1665Z" fill="#0369A1"/>
</svg>
