<svg width="44" height="44" viewBox="0 0 44 44" fill="none" xmlns="http://www.w3.org/2000/svg">
<rect width="44" height="44" rx="22" fill="#40AE49" fill-opacity="0.1"/>
<path fill-rule="evenodd" clip-rule="evenodd" d="M15.3334 8.66699H28.6667C29.1269 8.66699 29.5 9.04009 29.5 9.50033V12.0003C29.5 12.4606 29.1269 12.8337 28.6667 12.8337H15.3334C14.8731 12.8337 14.5 12.4606 14.5 12.0003V9.50033C14.5 9.04009 14.8731 8.66699 15.3334 8.66699ZM26.1667 22.5887L31.0584 30.1978C31.3821 30.7014 31.5643 31.2828 31.5857 31.8811C31.6071 32.4793 31.467 33.0723 31.1801 33.5977C30.8932 34.1231 30.4702 34.5616 29.9553 34.8671C29.4405 35.1725 28.8529 35.3337 28.2542 35.3337H15.7459C15.1473 35.3337 14.5597 35.1725 14.0448 34.8671C13.53 34.5616 13.1069 34.1231 12.82 33.5977C12.5332 33.0723 12.3931 32.4793 12.4145 31.8811C12.4359 31.2828 12.618 30.7014 12.9417 30.1978L17.8334 22.5887V14.5003H19.5001V22.8337C19.5001 22.9935 19.4541 23.15 19.3676 23.2845L16.9792 27.0003H27.0209L24.6326 23.2845C24.5461 23.15 24.5001 22.9935 24.5001 22.8337V14.5003H26.1667V22.5887Z" fill="#15803D"/>
</svg>
