<svg width="1440" height="311" viewBox="0 0 1440 311" fill="none" xmlns="http://www.w3.org/2000/svg">
<path fill-rule="evenodd" clip-rule="evenodd" d="M1440 176.5C1331.5 208.481 1200 -30.7295 1080 3.44345C959.999 37.6164 840 123.049 720 123.049C600 123.049 480 37.6164 360 46.1597C240 54.7029 120 157.222 60 208.481L2.26991e-05 259.741L2.71804e-05 311L60 311C120 311 240 311 360 311C480 311 600 311 720 311C840 311 959.999 311 1080 311C1200 311 1320 311 1380 311L1440 311L1440 176.5Z" fill="#FFB860" fill-opacity="0.07"/>
<path fill-rule="evenodd" clip-rule="evenodd" d="M0 110.145L60 124.492C120 138.838 240 167.532 360 201.008C480 234.484 600 272.742 720 248.83C840 224.919 975.68 171.157 1080 100.58C1172.5 37.9998 1366 -35.5002 1440 81.4512V311H1380C1320 311 1200 311 1080 311C960 311 840 311 720 311C600 311 480 311 360 311C240 311 120 311 60 311H0V110.145Z" fill="#FFB860" fill-opacity="0.07"/>
</svg>
